<svg version="1.1" viewBox="0.0 0.0 1366.0 768.0" fill="none" stroke="none" stroke-linecap="square" stroke-miterlimit="10" xmlns:xlink="http://www.w3.org/1999/xlink" xmlns="http://www.w3.org/2000/svg"><clipPath id="g327ca35d53c_0_0.0"><path d="m0 0l1366.0 0l0 768.0l-1366.0 0l0 -768.0z" clip-rule="nonzero"/></clipPath><g clip-path="url(#g327ca35d53c_0_0.0)"><path fill="#afbea4" d="m0 0l1366.0 0l0 768.0l-1366.0 0z" fill-rule="evenodd"/><path fill="#000000" fill-opacity="0.0" d="m131.44612 539.31714l658.1418 0l0 83.055115l-658.1418 0z" fill-rule="evenodd"/><path fill="#173505" d="m152.02425 575.75793q-2.0625 0 -3.53125 -0.828125q-1.453125 -0.828125 -2.234375 -2.34375q-0.78125 -1.53125 -0.78125 -3.59375q0 -2.078125 0.78125 -3.578125q0.78125 -1.515625 2.234375 -2.34375q1.46875 -0.84375 3.53125 -0.84375q1.375 0 2.484375 0.390625q1.109375 0.390625 1.921875 1.15625l-0.796875 1.90625q-0.875 -0.703125 -1.6875 -1.015625q-0.8125 -0.3125 -1.84375 -0.3125q-2.0 0 -3.0625 1.203125q-1.046875 1.203125 -1.046875 3.4375q0 2.21875 1.046875 3.4375q1.0625 1.203125 3.0625 1.203125q1.03125 0 1.84375 -0.3125q0.8125 -0.3125 1.6875 -1.03125l0.796875 1.90625q-0.8125 0.734375 -1.921875 1.15625q-1.109375 0.40625 -2.484375 0.40625zm6.654541 -0.1875l0 -13.15625l5.75 0q2.15625 0 3.34375 1.03125q1.1875 1.03125 1.1875 2.859375q0 1.203125 -0.53125 2.0625q-0.53125 0.859375 -1.53125 1.328125q-0.984375 0.453125 -2.328125 0.453125l0.265625 -0.359375l0.640625 0q0.78125 0 1.390625 0.40625q0.625 0.40625 1.015625 1.25l1.921875 4.125l-2.65625 0l-1.9375 -4.265625q-0.265625 -0.65625 -0.796875 -0.859375q-0.53125 -0.203125 -1.28125 -0.203125l-2.046875 0l0 5.328125l-2.40625 0zm2.40625 -7.109375l2.953125 0q1.265625 0 1.921875 -0.53125q0.671875 -0.53125 0.671875 -1.5625q0 -1.015625 -0.671875 -1.53125q-0.65625 -0.53125 -1.921875 -0.53125l-2.953125 0l0 4.15625zm10.690445 7.109375l0 -13.15625l8.859375 0l0 1.890625l-6.546875 0l0 3.640625l6.125 0l0 1.890625l-6.125 0l0 3.828125l6.546875 0l0 1.90625l-8.859375 0zm11.100464 0l0 -13.15625l4.78125 0q2.25 0 3.8125 0.78125q1.5625 0.765625 2.359375 2.234375q0.796875 1.46875 0.796875 3.5625q0 2.0625 -0.796875 3.546875q-0.796875 1.46875 -2.359375 2.25q-1.5625 0.78125 -3.8125 0.78125l-4.78125 0zm2.40625 -2.0l2.21875 0q2.390625 0 3.546875 -1.125q1.15625 -1.140625 1.15625 -3.453125q0 -2.34375 -1.15625 -3.46875q-1.15625 -1.125 -3.546875 -1.125l-2.21875 0l0 9.171875zm11.809814 2.0l0 -13.15625l2.40625 0l0 13.15625l-2.40625 0zm8.39212 0l0 -11.171875l-4.34375 0l0 -1.984375l11.109375 0l0 1.984375l-4.359375 0l0 11.171875l-2.40625 0zm12.618881 0.1875q-1.59375 0 -2.921875 -0.390625q-1.328125 -0.40625 -2.28125 -1.125l0.734375 -1.875q0.640625 0.4375 1.328125 0.75q0.6875 0.3125 1.46875 0.46875q0.796875 0.15625 1.671875 0.15625q1.46875 0 2.125 -0.484375q0.65625 -0.484375 0.65625 -1.265625q0 -0.6875 -0.453125 -1.046875q-0.453125 -0.375 -1.609375 -0.625l-2.09375 -0.421875q-1.8125 -0.375 -2.71875 -1.25q-0.890625 -0.875 -0.890625 -2.34375q0 -1.234375 0.65625 -2.140625q0.65625 -0.921875 1.828125 -1.421875q1.171875 -0.515625 2.734375 -0.515625q1.40625 0 2.59375 0.40625q1.203125 0.40625 2.0 1.140625l-0.75 1.796875q-0.796875 -0.671875 -1.75 -1.0q-0.953125 -0.328125 -2.125 -0.328125q-1.328125 0 -2.0625 0.515625q-0.734375 0.515625 -0.734375 1.40625q0 0.6875 0.453125 1.109375q0.453125 0.40625 1.5625 0.625l2.09375 0.421875q1.859375 0.359375 2.75 1.21875q0.90625 0.84375 0.90625 2.28125q0 1.171875 -0.640625 2.0625q-0.640625 0.890625 -1.796875 1.390625q-1.15625 0.484375 -2.734375 0.484375zm6.9864044 -7.03125l0 -2.578125l2.625 0l0 2.578125l-2.625 0zm0 6.84375l0 -2.59375l2.625 0l0 2.59375l-2.625 0z" fill-rule="nonzero"/><path fill="#173505" d="m238.41357 575.57043l0 -11.84375l-4.640625 0l0 -1.3125l10.8125 0l0 1.3125l-4.625 0l0 11.84375l-1.546875 0zm7.9089966 0l0 -13.734375l1.515625 0l0 6.4375l-0.234375 0q0.390625 -1.09375 1.3125 -1.65625q0.921875 -0.578125 2.125 -0.578125q1.6875 0 2.5 0.90625q0.828125 0.90625 0.828125 2.734375l0 5.890625l-1.515625 0l0 -5.796875q0 -1.3125 -0.515625 -1.90625q-0.5 -0.59375 -1.640625 -0.59375q-1.3125 0 -2.09375 0.796875q-0.765625 0.796875 -0.765625 2.109375l0 5.390625l-1.515625 0zm10.932587 0l0 -9.359375l1.515625 0l0 9.359375l-1.515625 0zm-0.1875 -11.5l0 -1.6875l1.875 0l0 1.6875l-1.875 0zm7.7526855 11.671875q-1.125 0 -2.09375 -0.3125q-0.96875 -0.3125 -1.609375 -0.859375l0.53125 -1.078125q0.6875 0.546875 1.5 0.8125q0.8125 0.265625 1.6875 0.265625q1.125 0 1.6875 -0.40625q0.5625 -0.40625 0.5625 -1.109375q0 -0.546875 -0.359375 -0.875q-0.359375 -0.328125 -1.1875 -0.515625l-1.734375 -0.34375q-1.1875 -0.265625 -1.796875 -0.890625q-0.59375 -0.625 -0.59375 -1.59375q0 -0.828125 0.421875 -1.453125q0.4375 -0.625 1.25 -0.984375q0.828125 -0.359375 1.9375 -0.359375q1.03125 0 1.890625 0.3125q0.875 0.296875 1.453125 0.875l-0.546875 1.046875q-0.5625 -0.53125 -1.28125 -0.796875q-0.71875 -0.28125 -1.484375 -0.28125q-1.09375 0 -1.65625 0.4375q-0.546875 0.4375 -0.546875 1.140625q0 0.546875 0.34375 0.890625q0.359375 0.34375 1.078125 0.515625l1.734375 0.359375q1.265625 0.28125 1.890625 0.875q0.625 0.578125 0.625 1.5625q0 0.84375 -0.46875 1.46875q-0.453125 0.625 -1.296875 0.96875q-0.828125 0.328125 -1.9375 0.328125zm10.997772 3.859375l0 -11.234375q0 -0.515625 -0.046875 -1.0625q-0.046875 -0.5625 -0.09375 -1.09375l1.453125 0l0.203125 2.21875l-0.21875 0q0.296875 -1.109375 1.203125 -1.75q0.921875 -0.640625 2.1875 -0.640625q1.265625 0 2.1875 0.578125q0.921875 0.578125 1.4375 1.65625q0.53125 1.078125 0.53125 2.609375q0 1.515625 -0.515625 2.609375q-0.5 1.078125 -1.4375 1.671875q-0.9375 0.578125 -2.203125 0.578125q-1.25 0 -2.171875 -0.625q-0.90625 -0.640625 -1.203125 -1.75l0.203125 0l0 6.234375l-1.515625 0zm4.390625 -5.09375q1.34375 0 2.125 -0.921875q0.796875 -0.921875 0.796875 -2.703125q0 -1.78125 -0.796875 -2.703125q-0.78125 -0.9375 -2.125 -0.9375q-1.328125 0 -2.125 0.9375q-0.78125 0.921875 -0.78125 2.703125q0 1.78125 0.78125 2.703125q0.796875 0.921875 2.125 0.921875zm6.771881 1.0625l0 -7.109375q0 -0.5625 -0.03125 -1.140625q-0.03125 -0.578125 -0.078125 -1.109375l1.453125 0l0.1875 2.265625l-0.265625 0.015625q0.1875 -0.828125 0.65625 -1.375q0.46875 -0.546875 1.09375 -0.8125q0.640625 -0.265625 1.328125 -0.265625q0.28125 0 0.5 0.015625q0.21875 0.015625 0.390625 0.09375l-0.015625 1.34375q-0.28125 -0.09375 -0.515625 -0.125q-0.234375 -0.03125 -0.53125 -0.03125q-0.8125 0 -1.421875 0.40625q-0.609375 0.390625 -0.921875 1.0q-0.296875 0.609375 -0.296875 1.3125l0 5.515625l-1.53125 0zm10.863342 0.171875q-2.203125 0 -3.484375 -1.28125q-1.265625 -1.28125 -1.265625 -3.5625q0 -1.46875 0.5625 -2.5625q0.5625 -1.09375 1.5625 -1.6875q1.015625 -0.609375 2.3125 -0.609375q1.296875 0 2.171875 0.546875q0.875 0.53125 1.34375 1.53125q0.46875 1.0 0.46875 2.359375l0 0.5625l-7.265625 0l0 -0.953125l6.28125 0l-0.328125 0.234375q0 -1.484375 -0.671875 -2.3125q-0.671875 -0.84375 -2.0 -0.84375q-1.390625 0 -2.171875 0.984375q-0.78125 0.96875 -0.78125 2.625l0 0.171875q0 1.75 0.859375 2.65625q0.875 0.90625 2.4375 0.90625q0.84375 0 1.578125 -0.25q0.734375 -0.25 1.40625 -0.828125l0.515625 1.0625q-0.609375 0.59375 -1.5625 0.921875q-0.9375 0.328125 -1.96875 0.328125zm9.102142 0q-1.125 0 -2.09375 -0.3125q-0.96875 -0.3125 -1.609375 -0.859375l0.53125 -1.078125q0.6875 0.546875 1.5 0.8125q0.8125 0.265625 1.6875 0.265625q1.125 0 1.6875 -0.40625q0.5625 -0.40625 0.5625 -1.109375q0 -0.546875 -0.359375 -0.875q-0.359375 -0.328125 -1.1875 -0.515625l-1.734375 -0.34375q-1.1875 -0.265625 -1.796875 -0.890625q-0.59375 -0.625 -0.59375 -1.59375q0 -0.828125 0.421875 -1.453125q0.4375 -0.625 1.25 -0.984375q0.828125 -0.359375 1.9375 -0.359375q1.03125 0 1.890625 0.3125q0.875 0.296875 1.453125 0.875l-0.546875 1.046875q-0.5625 -0.53125 -1.28125 -0.796875q-0.71875 -0.28125 -1.484375 -0.28125q-1.09375 0 -1.65625 0.4375q-0.546875 0.4375 -0.546875 1.140625q0 0.546875 0.34375 0.890625q0.359375 0.34375 1.078125 0.515625l1.734375 0.359375q1.265625 0.28125 1.890625 0.875q0.625 0.578125 0.625 1.5625q0 0.84375 -0.46875 1.46875q-0.453125 0.625 -1.296875 0.96875q-0.828125 0.328125 -1.9375 0.328125zm10.3003845 0q-2.203125 0 -3.484375 -1.28125q-1.265625 -1.28125 -1.265625 -3.5625q0 -1.46875 0.5625 -2.5625q0.5625 -1.09375 1.5625 -1.6875q1.015625 -0.609375 2.3125 -0.609375q1.296875 0 2.171875 0.546875q0.875 0.53125 1.34375 1.53125q0.46875 1.0 0.46875 2.359375l0 0.5625l-7.265625 0l0 -0.953125l6.28125 0l-0.328125 0.234375q0 -1.484375 -0.671875 -2.3125q-0.671875 -0.84375 -2.0 -0.84375q-1.390625 0 -2.171875 0.984375q-0.78125 0.96875 -0.78125 2.625l0 0.171875q0 1.75 0.859375 2.65625q0.875 0.90625 2.4375 0.90625q0.84375 0 1.578125 -0.25q0.734375 -0.25 1.40625 -0.828125l0.515625 1.0625q-0.609375 0.59375 -1.5625 0.921875q-0.9375 0.328125 -1.96875 0.328125zm5.977112 -0.171875l0 -7.203125q0 -0.515625 -0.046875 -1.0625q-0.046875 -0.5625 -0.09375 -1.09375l1.453125 0l0.1875 2.046875l-0.21875 0q0.40625 -1.078125 1.3125 -1.640625q0.90625 -0.578125 2.09375 -0.578125q1.65625 0 2.5 0.890625q0.859375 0.875 0.859375 2.78125l0 5.859375l-1.515625 0l0 -5.765625q0 -1.328125 -0.53125 -1.921875q-0.53125 -0.609375 -1.640625 -0.609375q-1.3125 0 -2.078125 0.796875q-0.765625 0.796875 -0.765625 2.140625l0 5.359375l-1.515625 0zm14.260712 0.171875q-1.375 0 -2.109375 -0.796875q-0.734375 -0.796875 -0.734375 -2.390625l0 -5.171875l-1.828125 0l0 -1.171875l1.828125 0l0 -2.5625l1.515625 -0.421875l0 2.984375l2.6875 0l0 1.171875l-2.6875 0l0 5.0q0 1.109375 0.375 1.59375q0.390625 0.46875 1.15625 0.46875q0.359375 0 0.625 -0.0625q0.28125 -0.0625 0.515625 -0.15625l0 1.265625q-0.265625 0.109375 -0.625 0.171875q-0.359375 0.078125 -0.71875 0.078125zm6.7640686 0q-1.25 0 -2.1875 -0.578125q-0.921875 -0.59375 -1.4375 -1.671875q-0.515625 -1.09375 -0.515625 -2.609375q0 -1.53125 0.515625 -2.609375q0.515625 -1.078125 1.4375 -1.65625q0.9375 -0.578125 2.1875 -0.578125q1.28125 0 2.203125 0.640625q0.921875 0.640625 1.21875 1.75l-0.21875 0l0.203125 -2.21875l1.453125 0q-0.0625 0.53125 -0.109375 1.09375q-0.046875 0.546875 -0.046875 1.0625l0 7.203125l-1.5 0l0 -2.203125l0.203125 0q-0.296875 1.109375 -1.234375 1.75q-0.9375 0.625 -2.171875 0.625zm0.296875 -1.234375q1.34375 0 2.125 -0.921875q0.796875 -0.921875 0.796875 -2.703125q0 -1.78125 -0.796875 -2.703125q-0.78125 -0.9375 -2.125 -0.9375q-1.3125 0 -2.109375 0.9375q-0.796875 0.921875 -0.796875 2.703125q0 1.78125 0.796875 2.703125q0.796875 0.921875 2.109375 0.921875zm10.662506 1.234375q-1.375 0 -2.109375 -0.796875q-0.734375 -0.796875 -0.734375 -2.390625l0 -5.171875l-1.828125 0l0 -1.171875l1.828125 0l0 -2.5625l1.515625 -0.421875l0 2.984375l2.6875 0l0 1.171875l-2.6875 0l0 5.0q0 1.109375 0.375 1.59375q0.390625 0.46875 1.15625 0.46875q0.359375 0 0.625 -0.0625q0.28125 -0.0625 0.515625 -0.15625l0 1.265625q-0.265625 0.109375 -0.625 0.171875q-0.359375 0.078125 -0.71875 0.078125zm3.2015686 -0.171875l0 -9.359375l1.515625 0l0 9.359375l-1.515625 0zm-0.1875 -11.5l0 -1.6875l1.875 0l0 1.6875l-1.875 0zm8.471436 11.671875q-1.34375 0 -2.34375 -0.578125q-0.984375 -0.59375 -1.53125 -1.6875q-0.546875 -1.09375 -0.546875 -2.59375q0 -1.5 0.546875 -2.578125q0.546875 -1.09375 1.53125 -1.671875q1.0 -0.59375 2.34375 -0.59375q1.359375 0 2.359375 0.59375q1.0 0.578125 1.546875 1.671875q0.5625 1.078125 0.5625 2.578125q0 1.5 -0.5625 2.59375q-0.546875 1.09375 -1.546875 1.6875q-1.0 0.578125 -2.359375 0.578125zm0 -1.234375q1.34375 0 2.125 -0.921875q0.796875 -0.921875 0.796875 -2.703125q0 -1.78125 -0.796875 -2.703125q-0.796875 -0.9375 -2.125 -0.9375q-1.3125 0 -2.109375 0.9375q-0.78125 0.921875 -0.78125 2.703125q0 1.78125 0.78125 2.703125q0.796875 0.921875 2.109375 0.921875zm6.80896 1.0625l0 -7.203125q0 -0.515625 -0.046875 -1.0625q-0.046875 -0.5625 -0.09375 -1.09375l1.453125 0l0.1875 2.046875l-0.21875 0q0.40625 -1.078125 1.3125 -1.640625q0.90625 -0.578125 2.09375 -0.578125q1.65625 0 2.5 0.890625q0.859375 0.875 0.859375 2.78125l0 5.859375l-1.515625 0l0 -5.765625q0 -1.328125 -0.53125 -1.921875q-0.53125 -0.609375 -1.640625 -0.609375q-1.3125 0 -2.078125 0.796875q-0.765625 0.796875 -0.765625 2.140625l0 5.359375l-1.515625 0zm19.130005 0.171875q-1.375 0 -2.109375 -0.796875q-0.734375 -0.796875 -0.734375 -2.390625l0 -5.171875l-1.828125 0l0 -1.171875l1.828125 0l0 -2.5625l1.515625 -0.421875l0 2.984375l2.6875 0l0 1.171875l-2.6875 0l0 5.0q0 1.109375 0.375 1.59375q0.390625 0.46875 1.15625 0.46875q0.359375 0 0.625 -0.0625q0.28125 -0.0625 0.515625 -0.15625l0 1.265625q-0.265625 0.109375 -0.625 0.171875q-0.359375 0.078125 -0.71875 0.078125zm7.2800903 0q-2.203125 0 -3.484375 -1.28125q-1.265625 -1.28125 -1.265625 -3.5625q0 -1.46875 0.5625 -2.5625q0.5625 -1.09375 1.5625 -1.6875q1.015625 -0.609375 2.3125 -0.609375q1.296875 0 2.171875 0.546875q0.875 0.53125 1.34375 1.53125q0.46875 1.0 0.46875 2.359375l0 0.5625l-7.265625 0l0 -0.953125l6.28125 0l-0.328125 0.234375q0 -1.484375 -0.671875 -2.3125q-0.671875 -0.84375 -2.0 -0.84375q-1.390625 0 -2.171875 0.984375q-0.78125 0.96875 -0.78125 2.625l0 0.171875q0 1.75 0.859375 2.65625q0.875 0.90625 2.4375 0.90625q0.84375 0 1.578125 -0.25q0.734375 -0.25 1.40625 -0.828125l0.515625 1.0625q-0.609375 0.59375 -1.5625 0.921875q-0.9375 0.328125 -1.96875 0.328125zm5.977112 -0.171875l0 -7.203125q0 -0.515625 -0.046875 -1.0625q-0.046875 -0.5625 -0.09375 -1.09375l1.453125 0l0.1875 2.046875l-0.21875 0q0.359375 -1.0625 1.171875 -1.640625q0.8125 -0.578125 1.96875 -0.578125q1.1875 0 1.921875 0.5625q0.734375 0.5625 1.0 1.734375l-0.28125 0q0.34375 -1.0625 1.234375 -1.671875q0.90625 -0.625 2.09375 -0.625q1.546875 0 2.328125 0.890625q0.796875 0.875 0.796875 2.78125l0 5.859375l-1.515625 0l0 -5.765625q0 -1.328125 -0.46875 -1.921875q-0.46875 -0.609375 -1.484375 -0.609375q-1.1875 0 -1.875 0.8125q-0.671875 0.8125 -0.671875 2.171875l0 5.3125l-1.5 0l0 -5.765625q0 -1.328125 -0.46875 -1.921875q-0.46875 -0.609375 -1.5 -0.609375q-1.171875 0 -1.84375 0.8125q-0.671875 0.8125 -0.671875 2.171875l0 5.3125l-1.515625 0zm16.380188 4.03125l0 -11.234375q0 -0.515625 -0.046875 -1.0625q-0.046875 -0.5625 -0.09375 -1.09375l1.453125 0l0.203125 2.21875l-0.21875 0q0.296875 -1.109375 1.203125 -1.75q0.921875 -0.640625 2.1875 -0.640625q1.265625 0 2.1875 0.578125q0.921875 0.578125 1.4375 1.65625q0.53125 1.078125 0.53125 2.609375q0 1.515625 -0.515625 2.609375q-0.5 1.078125 -1.4375 1.671875q-0.9375 0.578125 -2.203125 0.578125q-1.25 0 -2.171875 -0.625q-0.90625 -0.640625 -1.203125 -1.75l0.203125 0l0 6.234375l-1.515625 0zm4.390625 -5.09375q1.34375 0 2.125 -0.921875q0.796875 -0.921875 0.796875 -2.703125q0 -1.78125 -0.796875 -2.703125q-0.78125 -0.9375 -2.125 -0.9375q-1.328125 0 -2.125 0.9375q-0.78125 0.921875 -0.78125 2.703125q0 1.78125 0.78125 2.703125q0.796875 0.921875 2.125 0.921875zm6.8031616 1.0625l0 -13.734375l1.515625 0l0 13.734375l-1.515625 0zm8.002686 0.171875q-1.25 0 -2.1875 -0.578125q-0.921875 -0.59375 -1.4375 -1.671875q-0.515625 -1.09375 -0.515625 -2.609375q0 -1.53125 0.515625 -2.609375q0.515625 -1.078125 1.4375 -1.65625q0.9375 -0.578125 2.1875 -0.578125q1.28125 0 2.203125 0.640625q0.921875 0.640625 1.21875 1.75l-0.21875 0l0.203125 -2.21875l1.453125 0q-0.0625 0.53125 -0.109375 1.09375q-0.046875 0.546875 -0.046875 1.0625l0 7.203125l-1.5 0l0 -2.203125l0.203125 0q-0.296875 1.109375 -1.234375 1.75q-0.9375 0.625 -2.171875 0.625zm0.296875 -1.234375q1.34375 0 2.125 -0.921875q0.796875 -0.921875 0.796875 -2.703125q0 -1.78125 -0.796875 -2.703125q-0.78125 -0.9375 -2.125 -0.9375q-1.3125 0 -2.109375 0.9375q-0.796875 0.921875 -0.796875 2.703125q0 1.78125 0.796875 2.703125q0.796875 0.921875 2.109375 0.921875zm10.662476 1.234375q-1.375 0 -2.109375 -0.796875q-0.734375 -0.796875 -0.734375 -2.390625l0 -5.171875l-1.828125 0l0 -1.171875l1.828125 0l0 -2.5625l1.515625 -0.421875l0 2.984375l2.6875 0l0 1.171875l-2.6875 0l0 5.0q0 1.109375 0.375 1.59375q0.390625 0.46875 1.15625 0.46875q0.359375 0 0.625 -0.0625q0.28125 -0.0625 0.515625 -0.15625l0 1.265625q-0.265625 0.109375 -0.625 0.171875q-0.359375 0.078125 -0.71875 0.078125zm7.280121 0q-2.203125 0 -3.484375 -1.28125q-1.265625 -1.28125 -1.265625 -3.5625q0 -1.46875 0.5625 -2.5625q0.5625 -1.09375 1.5625 -1.6875q1.015625 -0.609375 2.3125 -0.609375q1.296875 0 2.171875 0.546875q0.875 0.53125 1.34375 1.53125q0.46875 1.0 0.46875 2.359375l0 0.5625l-7.265625 0l0 -0.953125l6.28125 0l-0.328125 0.234375q0 -1.484375 -0.671875 -2.3125q-0.671875 -0.84375 -2.0 -0.84375q-1.390625 0 -2.171875 0.984375q-0.78125 0.96875 -0.78125 2.625l0 0.171875q0 1.75 0.859375 2.65625q0.875 0.90625 2.4375 0.90625q0.84375 0 1.578125 -0.25q0.734375 -0.25 1.40625 -0.828125l0.515625 1.0625q-0.609375 0.59375 -1.5625 0.921875q-0.9375 0.328125 -1.96875 0.328125zm13.346405 -0.171875l-3.46875 -9.359375l1.609375 0l2.890625 8.234375l-0.484375 0l2.984375 -8.234375l1.3125 0l2.921875 8.234375l-0.46875 0l2.90625 -8.234375l1.53125 0l-3.484375 9.359375l-1.453125 0l-3.015625 -8.375l0.734375 0l-3.03125 8.375l-1.484375 0zm17.088104 0.171875q-1.25 0 -2.1875 -0.578125q-0.921875 -0.59375 -1.4375 -1.671875q-0.515625 -1.09375 -0.515625 -2.609375q0 -1.53125 0.515625 -2.609375q0.515625 -1.078125 1.4375 -1.65625q0.9375 -0.578125 2.1875 -0.578125q1.28125 0 2.203125 0.640625q0.921875 0.640625 1.21875 1.75l-0.21875 0l0.203125 -2.21875l1.453125 0q-0.0625 0.53125 -0.109375 1.09375q-0.046875 0.546875 -0.046875 1.0625l0 7.203125l-1.5 0l0 -2.203125l0.203125 0q-0.296875 1.109375 -1.234375 1.75q-0.9375 0.625 -2.171875 0.625zm0.296875 -1.234375q1.34375 0 2.125 -0.921875q0.796875 -0.921875 0.796875 -2.703125q0 -1.78125 -0.796875 -2.703125q-0.78125 -0.9375 -2.125 -0.9375q-1.3125 0 -2.109375 0.9375q-0.796875 0.921875 -0.796875 2.703125q0 1.78125 0.796875 2.703125q0.796875 0.921875 2.109375 0.921875zm10.459381 1.234375q-1.125 0 -2.09375 -0.3125q-0.96875 -0.3125 -1.609375 -0.859375l0.53125 -1.078125q0.6875 0.546875 1.5 0.8125q0.8125 0.265625 1.6875 0.265625q1.125 0 1.6875 -0.40625q0.5625 -0.40625 0.5625 -1.109375q0 -0.546875 -0.359375 -0.875q-0.359375 -0.328125 -1.1875 -0.515625l-1.734375 -0.34375q-1.1875 -0.265625 -1.796875 -0.890625q-0.59375 -0.625 -0.59375 -1.59375q0 -0.828125 0.421875 -1.453125q0.4375 -0.625 1.25 -0.984375q0.828125 -0.359375 1.9375 -0.359375q1.03125 0 1.890625 0.3125q0.875 0.296875 1.453125 0.875l-0.546875 1.046875q-0.5625 -0.53125 -1.28125 -0.796875q-0.71875 -0.28125 -1.484375 -0.28125q-1.09375 0 -1.65625 0.4375q-0.546875 0.4375 -0.546875 1.140625q0 0.546875 0.34375 0.890625q0.359375 0.34375 1.078125 0.515625l1.734375 0.359375q1.265625 0.28125 1.890625 0.875q0.625 0.578125 0.625 1.5625q0 0.84375 -0.46875 1.46875q-0.453125 0.625 -1.296875 0.96875q-0.828125 0.328125 -1.9375 0.328125zm14.935272 0q-1.375 0 -2.390625 -0.59375q-1.015625 -0.609375 -1.578125 -1.703125q-0.546875 -1.109375 -0.546875 -2.609375q0 -1.53125 0.5625 -2.59375q0.5625 -1.078125 1.578125 -1.640625q1.015625 -0.5625 2.375 -0.5625q0.90625 0 1.75 0.3125q0.84375 0.3125 1.40625 0.890625l-0.546875 1.09375q-0.546875 -0.546875 -1.21875 -0.796875q-0.65625 -0.265625 -1.296875 -0.265625q-1.453125 0 -2.265625 0.921875q-0.796875 0.90625 -0.796875 2.65625q0 1.734375 0.796875 2.6875q0.8125 0.953125 2.265625 0.953125q0.625 0 1.28125 -0.234375q0.65625 -0.25 1.234375 -0.8125l0.546875 1.0625q-0.578125 0.59375 -1.4375 0.921875q-0.859375 0.3125 -1.71875 0.3125zm5.2661133 -0.171875l0 -7.109375q0 -0.5625 -0.03125 -1.140625q-0.03125 -0.578125 -0.078125 -1.109375l1.453125 0l0.1875 2.265625l-0.265625 0.015625q0.1875 -0.828125 0.65625 -1.375q0.46875 -0.546875 1.09375 -0.8125q0.640625 -0.265625 1.328125 -0.265625q0.28125 0 0.5 0.015625q0.21875 0.015625 0.390625 0.09375l-0.015625 1.34375q-0.28125 -0.09375 -0.515625 -0.125q-0.234375 -0.03125 -0.53125 -0.03125q-0.8125 0 -1.421875 0.40625q-0.609375 0.390625 -0.921875 1.0q-0.296875 0.609375 -0.296875 1.3125l0 5.515625l-1.53125 0zm10.863342 0.171875q-2.203125 0 -3.484375 -1.28125q-1.265625 -1.28125 -1.265625 -3.5625q0 -1.46875 0.5625 -2.5625q0.5625 -1.09375 1.5625 -1.6875q1.015625 -0.609375 2.3125 -0.609375q1.296875 0 2.171875 0.546875q0.875 0.53125 1.34375 1.53125q0.46875 1.0 0.46875 2.359375l0 0.5625l-7.265625 0l0 -0.953125l6.28125 0l-0.328125 0.234375q0 -1.484375 -0.671875 -2.3125q-0.671875 -0.84375 -2.0 -0.84375q-1.390625 0 -2.171875 0.984375q-0.78125 0.96875 -0.78125 2.625l0 0.171875q0 1.75 0.859375 2.65625q0.875 0.90625 2.4375 0.90625q0.84375 0 1.578125 -0.25q0.734375 -0.25 1.40625 -0.828125l0.515625 1.0625q-0.609375 0.59375 -1.5625 0.921875q-0.9375 0.328125 -1.96875 0.328125zm9.539612 0q-1.25 0 -2.1875 -0.578125q-0.921875 -0.59375 -1.4375 -1.671875q-0.515625 -1.09375 -0.515625 -2.609375q0 -1.53125 0.515625 -2.609375q0.515625 -1.078125 1.4375 -1.65625q0.9375 -0.578125 2.1875 -0.578125q1.28125 0 2.203125 0.640625q0.921875 0.640625 1.21875 1.75l-0.21875 0l0.203125 -2.21875l1.453125 0q-0.0625 0.53125 -0.109375 1.09375q-0.046875 0.546875 -0.046875 1.0625l0 7.203125l-1.5 0l0 -2.203125l0.203125 0q-0.296875 1.109375 -1.234375 1.75q-0.9375 0.625 -2.171875 0.625zm0.296875 -1.234375q1.34375 0 2.125 -0.921875q0.796875 -0.921875 0.796875 -2.703125q0 -1.78125 -0.796875 -2.703125q-0.78125 -0.9375 -2.125 -0.9375q-1.3125 0 -2.109375 0.9375q-0.796875 0.921875 -0.796875 2.703125q0 1.78125 0.796875 2.703125q0.796875 0.921875 2.109375 0.921875zm10.662476 1.234375q-1.375 0 -2.109375 -0.796875q-0.734375 -0.796875 -0.734375 -2.390625l0 -5.171875l-1.828125 0l0 -1.171875l1.828125 0l0 -2.5625l1.515625 -0.421875l0 2.984375l2.6875 0l0 1.171875l-2.6875 0l0 5.0q0 1.109375 0.375 1.59375q0.390625 0.46875 1.15625 0.46875q0.359375 0 0.625 -0.0625q0.28125 -0.0625 0.515625 -0.15625l0 1.265625q-0.265625 0.109375 -0.625 0.171875q-0.359375 0.078125 -0.71875 0.078125zm7.2801514 0q-2.203125 0 -3.484375 -1.28125q-1.265625 -1.28125 -1.265625 -3.5625q0 -1.46875 0.5625 -2.5625q0.5625 -1.09375 1.5625 -1.6875q1.015625 -0.609375 2.3125 -0.609375q1.296875 0 2.171875 0.546875q0.875 0.53125 1.34375 1.53125q0.46875 1.0 0.46875 2.359375l0 0.5625l-7.265625 0l0 -0.953125l6.28125 0l-0.328125 0.234375q0 -1.484375 -0.671875 -2.3125q-0.671875 -0.84375 -2.0 -0.84375q-1.390625 0 -2.171875 0.984375q-0.78125 0.96875 -0.78125 2.625l0 0.171875q0 1.75 0.859375 2.65625q0.875 0.90625 2.4375 0.90625q0.84375 0 1.578125 -0.25q0.734375 -0.25 1.40625 -0.828125l0.515625 1.0625q-0.609375 0.59375 -1.5625 0.921875q-0.9375 0.328125 -1.96875 0.328125zm9.523987 0q-1.234375 0 -2.171875 -0.578125q-0.921875 -0.59375 -1.4375 -1.671875q-0.515625 -1.09375 -0.515625 -2.609375q0 -1.53125 0.515625 -2.609375q0.515625 -1.078125 1.4375 -1.65625q0.9375 -0.578125 2.171875 -0.578125q1.265625 0 2.1875 0.640625q0.9375 0.625 1.25 1.703125l-0.21875 0l0 -6.546875l1.5 0l0 13.734375l-1.484375 0l0 -2.234375l0.203125 0q-0.296875 1.109375 -1.234375 1.765625q-0.9375 0.640625 -2.203125 0.640625zm0.3125 -1.234375q1.328125 0 2.125 -0.921875q0.8125 -0.921875 0.8125 -2.703125q0 -1.78125 -0.8125 -2.703125q-0.796875 -0.9375 -2.125 -0.9375q-1.3125 0 -2.109375 0.9375q-0.796875 0.921875 -0.796875 2.703125q0 1.78125 0.796875 2.703125q0.796875 0.921875 2.109375 0.921875zm16.9068 1.234375q-1.265625 0 -2.1875 -0.640625q-0.90625 -0.65625 -1.21875 -1.765625l0.203125 0l0 2.234375l-1.5 0l0 -13.734375l1.515625 0l0 6.546875l-0.21875 0q0.3125 -1.078125 1.21875 -1.703125q0.921875 -0.640625 2.1875 -0.640625q1.265625 0 2.1875 0.59375q0.9375 0.578125 1.4375 1.671875q0.515625 1.078125 0.515625 2.578125q0 1.515625 -0.53125 2.609375q-0.515625 1.078125 -1.4375 1.671875q-0.921875 0.578125 -2.171875 0.578125zm-0.3125 -1.234375q1.328125 0 2.125 -0.90625q0.796875 -0.921875 0.796875 -2.71875q0 -1.78125 -0.796875 -2.703125q-0.796875 -0.9375 -2.125 -0.9375q-1.328125 0 -2.125 0.9375q-0.78125 0.921875 -0.78125 2.703125q0 1.78125 0.78125 2.703125q0.796875 0.921875 2.125 0.921875zm6.2974854 5.296875l-0.34375 -1.25q0.875 -0.203125 1.453125 -0.484375q0.59375 -0.265625 0.984375 -0.71875q0.390625 -0.4375 0.671875 -1.109375l0.484375 -1.09375l-0.03125 0.625l-4.09375 -9.5625l1.640625 0l3.390625 8.21875l-0.5 0l3.34375 -8.21875l1.59375 0l-4.328125 10.140625q-0.375 0.890625 -0.828125 1.5q-0.453125 0.609375 -0.96875 0.984375q-0.5 0.390625 -1.125 0.609375q-0.609375 0.234375 -1.34375 0.359375z" fill-rule="nonzero"/><path fill="#000000" fill-opacity="0.0" d="m606.15045 556.8209l75.5578 0l0 23.413574l-75.5578 0l0 -23.413574z" fill-rule="nonzero"/><path fill="#173505" d="m612.1973 575.75793q-1.59375 0 -2.921875 -0.390625q-1.328125 -0.40625 -2.28125 -1.125l0.734375 -1.875q0.640625 0.4375 1.328125 0.75q0.6875 0.3125 1.46875 0.46875q0.796875 0.15625 1.671875 0.15625q1.46875 0 2.125 -0.484375q0.65625 -0.484375 0.65625 -1.265625q0 -0.6875 -0.453125 -1.046875q-0.453125 -0.375 -1.609375 -0.625l-2.09375 -0.421875q-1.8125 -0.375 -2.71875 -1.25q-0.890625 -0.875 -0.890625 -2.34375q0 -1.234375 0.65625 -2.140625q0.65625 -0.921875 1.828125 -1.421875q1.171875 -0.515625 2.734375 -0.515625q1.40625 0 2.59375 0.40625q1.203125 0.40625 2.0 1.140625l-0.75 1.796875q-0.796875 -0.671875 -1.75 -1.0q-0.953125 -0.328125 -2.125 -0.328125q-1.328125 0 -2.0625 0.515625q-0.734375 0.515625 -0.734375 1.40625q0 0.6875 0.453125 1.109375q0.453125 0.40625 1.5625 0.625l2.09375 0.421875q1.859375 0.359375 2.75 1.21875q0.90625 0.84375 0.90625 2.28125q0 1.171875 -0.640625 2.0625q-0.640625 0.890625 -1.796875 1.390625q-1.15625 0.484375 -2.734375 0.484375zm7.252014 -0.1875l0 -13.734375l2.328125 0l0 13.734375l-2.328125 0zm4.8692627 0l0 -9.421875l2.328125 0l0 9.421875l-2.328125 0zm-0.125 -11.1875l0 -2.28125l2.59375 0l0 2.28125l-2.59375 0zm8.650513 11.375q-1.234375 0 -2.171875 -0.578125q-0.9375 -0.59375 -1.46875 -1.6875q-0.515625 -1.109375 -0.515625 -2.640625q0 -1.53125 0.515625 -2.625q0.53125 -1.09375 1.46875 -1.671875q0.9375 -0.59375 2.171875 -0.59375q1.171875 0 2.078125 0.578125q0.90625 0.5625 1.203125 1.53125l-0.234375 0l0 -6.234375l2.328125 0l0 13.734375l-2.296875 0l0 -2.0l0.234375 0q-0.3125 1.015625 -1.21875 1.609375q-0.890625 0.578125 -2.09375 0.578125zm0.65625 -1.796875q1.09375 0 1.765625 -0.765625q0.671875 -0.78125 0.671875 -2.34375q0 -1.5625 -0.671875 -2.328125q-0.671875 -0.765625 -1.765625 -0.765625q-1.09375 0 -1.78125 0.765625q-0.6875 0.765625 -0.6875 2.328125q0 1.5625 0.6875 2.34375q0.6875 0.765625 1.78125 0.765625zm11.816895 1.796875q-2.375 0 -3.71875 -1.296875q-1.34375 -1.3125 -1.34375 -3.59375q0 -1.46875 0.578125 -2.5625q0.578125 -1.109375 1.609375 -1.71875q1.046875 -0.625 2.421875 -0.625q1.359375 0 2.265625 0.578125q0.921875 0.578125 1.390625 1.625q0.484375 1.046875 0.484375 2.4375l0 0.625l-6.859375 0l0 -1.234375l5.203125 0l-0.328125 0.265625q0 -1.3125 -0.546875 -2.0q-0.546875 -0.6875 -1.59375 -0.6875q-1.15625 0 -1.78125 0.828125q-0.625 0.8125 -0.625 2.28125l0 0.25q0 1.53125 0.75 2.28125q0.765625 0.75 2.140625 0.75q0.796875 0 1.5 -0.203125q0.703125 -0.21875 1.34375 -0.703125l0.6875 1.5625q-0.671875 0.546875 -1.609375 0.84375q-0.9375 0.296875 -1.96875 0.296875zm9.020508 0q-1.203125 0 -2.234375 -0.28125q-1.015625 -0.296875 -1.703125 -0.828125l0.65625 -1.5625q0.703125 0.484375 1.5625 0.75q0.859375 0.265625 1.734375 0.265625q0.9375 0 1.390625 -0.3125q0.46875 -0.328125 0.46875 -0.875q0 -0.421875 -0.296875 -0.671875q-0.296875 -0.25 -0.921875 -0.390625l-1.859375 -0.34375q-1.203125 -0.265625 -1.828125 -0.890625q-0.625 -0.640625 -0.625 -1.671875q0 -0.875 0.46875 -1.546875q0.484375 -0.671875 1.359375 -1.046875q0.890625 -0.390625 2.09375 -0.390625q1.046875 0 1.96875 0.28125q0.921875 0.28125 1.546875 0.84375l-0.65625 1.5q-0.59375 -0.453125 -1.34375 -0.71875q-0.734375 -0.265625 -1.4375 -0.265625q-0.96875 0 -1.421875 0.34375q-0.453125 0.34375 -0.453125 0.890625q0 0.40625 0.265625 0.6875q0.28125 0.265625 0.859375 0.390625l1.859375 0.359375q1.25 0.234375 1.890625 0.84375q0.65625 0.609375 0.65625 1.65625q0 0.9375 -0.515625 1.609375q-0.5 0.671875 -1.390625 1.03125q-0.890625 0.34375 -2.09375 0.34375zm10.362427 3.984375q-1.3125 0 -2.375 -0.28125q-1.046875 -0.265625 -1.859375 -0.84375l0.5 -1.6875q0.53125 0.359375 1.109375 0.578125q0.578125 0.234375 1.1875 0.34375q0.625 0.109375 1.265625 0.109375q1.296875 0 1.9375 -0.65625q0.65625 -0.640625 0.65625 -1.828125l0 -2.25l0.1875 0q-0.296875 0.96875 -1.203125 1.546875q-0.90625 0.578125 -2.078125 0.578125q-1.28125 0 -2.21875 -0.5625q-0.9375 -0.578125 -1.46875 -1.640625q-0.515625 -1.0625 -0.515625 -2.5q0 -1.4375 0.515625 -2.484375q0.53125 -1.0625 1.46875 -1.625q0.9375 -0.578125 2.21875 -0.578125q1.1875 0 2.0625 0.578125q0.890625 0.5625 1.203125 1.53125l-0.171875 -0.109375l0.1875 -1.8125l2.25 0q-0.078125 0.578125 -0.109375 1.171875q-0.03125 0.59375 -0.03125 1.171875l0 6.703125q0 2.21875 -1.203125 3.375q-1.203125 1.171875 -3.515625 1.171875zm-0.046875 -6.1875q1.125 0 1.78125 -0.75q0.671875 -0.765625 0.671875 -2.15625q0 -1.40625 -0.671875 -2.140625q-0.65625 -0.75 -1.78125 -0.75q-1.140625 0 -1.8125 0.75q-0.671875 0.734375 -0.671875 2.140625q0 1.390625 0.671875 2.15625q0.671875 0.75 1.8125 0.75zm11.526062 2.203125q-1.453125 0 -2.515625 -0.59375q-1.0625 -0.59375 -1.65625 -1.6875q-0.578125 -1.109375 -0.578125 -2.625q0 -1.515625 0.578125 -2.59375q0.59375 -1.09375 1.65625 -1.6875q1.0625 -0.609375 2.515625 -0.609375q1.46875 0 2.53125 0.609375q1.078125 0.59375 1.65625 1.6875q0.59375 1.078125 0.59375 2.59375q0 1.515625 -0.59375 2.625q-0.578125 1.09375 -1.65625 1.6875q-1.0625 0.59375 -2.53125 0.59375zm0 -1.796875q1.109375 0 1.75 -0.765625q0.65625 -0.78125 0.65625 -2.34375q0 -1.5625 -0.65625 -2.328125q-0.640625 -0.765625 -1.75 -0.765625q-1.09375 0 -1.75 0.765625q-0.65625 0.765625 -0.65625 2.328125q0 1.5625 0.65625 2.34375q0.65625 0.765625 1.75 0.765625z" fill-rule="nonzero"/><path fill="#173505" d="m683.6614 577.69543l-0.703125 -0.546875q0.5 -0.515625 0.65625 -0.96875q0.171875 -0.453125 0.171875 -0.921875l0.328125 0.3125l-1.234375 0l0 -1.90625l1.90625 0l0 1.34375q0 0.75 -0.25 1.40625q-0.234375 0.671875 -0.875 1.28125zm12.20105 -1.953125q-1.25 0 -2.1875 -0.578125q-0.921875 -0.59375 -1.4375 -1.671875q-0.515625 -1.09375 -0.515625 -2.609375q0 -1.53125 0.515625 -2.609375q0.515625 -1.078125 1.4375 -1.65625q0.9375 -0.578125 2.1875 -0.578125q1.28125 0 2.203125 0.640625q0.921875 0.640625 1.21875 1.75l-0.21875 0l0.203125 -2.21875l1.453125 0q-0.0625 0.53125 -0.109375 1.09375q-0.046875 0.546875 -0.046875 1.0625l0 7.203125l-1.5 0l0 -2.203125l0.203125 0q-0.296875 1.109375 -1.234375 1.75q-0.9375 0.625 -2.171875 0.625zm0.296875 -1.234375q1.34375 0 2.125 -0.921875q0.796875 -0.921875 0.796875 -2.703125q0 -1.78125 -0.796875 -2.703125q-0.78125 -0.9375 -2.125 -0.9375q-1.3125 0 -2.109375 0.9375q-0.796875 0.921875 -0.796875 2.703125q0 1.78125 0.796875 2.703125q0.796875 0.921875 2.109375 0.921875zm7.3343506 1.0625l0 -7.203125q0 -0.515625 -0.046875 -1.0625q-0.046875 -0.5625 -0.09375 -1.09375l1.453125 0l0.1875 2.046875l-0.21875 0q0.40625 -1.078125 1.3125 -1.640625q0.90625 -0.578125 2.09375 -0.578125q1.65625 0 2.5 0.890625q0.859375 0.875 0.859375 2.78125l0 5.859375l-1.515625 0l0 -5.765625q0 -1.328125 -0.53125 -1.921875q-0.53125 -0.609375 -1.640625 -0.609375q-1.3125 0 -2.078125 0.796875q-0.765625 0.796875 -0.765625 2.140625l0 5.359375l-1.515625 0zm14.479431 0.171875q-1.234375 0 -2.171875 -0.578125q-0.921875 -0.59375 -1.4375 -1.671875q-0.515625 -1.09375 -0.515625 -2.609375q0 -1.53125 0.515625 -2.609375q0.515625 -1.078125 1.4375 -1.65625q0.9375 -0.578125 2.171875 -0.578125q1.265625 0 2.1875 0.640625q0.9375 0.625 1.25 1.703125l-0.21875 0l0 -6.546875l1.5 0l0 13.734375l-1.484375 0l0 -2.234375l0.203125 0q-0.296875 1.109375 -1.234375 1.765625q-0.9375 0.640625 -2.203125 0.640625zm0.3125 -1.234375q1.328125 0 2.125 -0.921875q0.8125 -0.921875 0.8125 -2.703125q0 -1.78125 -0.8125 -2.703125q-0.796875 -0.9375 -2.125 -0.9375q-1.3125 0 -2.109375 0.9375q-0.796875 0.921875 -0.796875 2.703125q0 1.78125 0.796875 2.703125q0.796875 0.921875 2.109375 0.921875z" fill-rule="nonzero"/><path fill="#173505" d="m606.15045 576.7838l75.5578 0l0 1.6799927l-75.5578 0l0 -1.6799927z" fill-rule="nonzero"/><path fill="#173505" d="m145.91487 598.2371l0 -9.359375l1.515625 0l0 9.359375l-1.515625 0zm-0.1875 -11.5l0 -1.6875l1.875 0l0 1.6875l-1.875 0zm4.6276855 11.5l0 -7.203125q0 -0.515625 -0.046875 -1.0625q-0.046875 -0.5625 -0.09375 -1.09375l1.453125 0l0.1875 2.046875l-0.21875 0q0.40625 -1.078125 1.3125 -1.640625q0.90625 -0.578125 2.09375 -0.578125q1.65625 0 2.5 0.890625q0.859375 0.875 0.859375 2.78125l0 5.859375l-1.515625 0l0 -5.765625q0 -1.328125 -0.53125 -1.921875q-0.53125 -0.609375 -1.640625 -0.609375q-1.3125 0 -2.078125 0.796875q-0.765625 0.796875 -0.765625 2.140625l0 5.359375l-1.515625 0zm14.870071 0.171875q-1.375 0 -2.390625 -0.59375q-1.015625 -0.609375 -1.578125 -1.703125q-0.546875 -1.109375 -0.546875 -2.609375q0 -1.53125 0.5625 -2.59375q0.5625 -1.078125 1.578125 -1.640625q1.015625 -0.5625 2.375 -0.5625q0.90625 0 1.75 0.3125q0.84375 0.3125 1.40625 0.890625l-0.546875 1.09375q-0.546875 -0.546875 -1.21875 -0.796875q-0.65625 -0.265625 -1.296875 -0.265625q-1.453125 0 -2.265625 0.921875q-0.796875 0.90625 -0.796875 2.65625q0 1.734375 0.796875 2.6875q0.8125 0.953125 2.265625 0.953125q0.625 0 1.28125 -0.234375q0.65625 -0.25 1.234375 -0.8125l0.546875 1.0625q-0.578125 0.59375 -1.4375 0.921875q-0.859375 0.3125 -1.71875 0.3125zm5.297348 -0.171875l0 -13.734375l1.515625 0l0 13.734375l-1.515625 0zm7.7526855 0.171875q-1.671875 0 -2.515625 -0.90625q-0.84375 -0.921875 -0.84375 -2.8125l0 -5.8125l1.5 0l0 5.78125q0 1.28125 0.515625 1.890625q0.53125 0.609375 1.640625 0.609375q1.234375 0 1.96875 -0.796875q0.75 -0.8125 0.75 -2.15625l0 -5.328125l1.515625 0l0 9.359375l-1.484375 0l0 -2.109375l0.25 0q-0.390625 1.078125 -1.265625 1.6875q-0.859375 0.59375 -2.03125 0.59375zm10.999039 0q-1.234375 0 -2.171875 -0.578125q-0.921875 -0.59375 -1.4375 -1.671875q-0.515625 -1.09375 -0.515625 -2.609375q0 -1.53125 0.515625 -2.609375q0.515625 -1.078125 1.4375 -1.65625q0.9375 -0.578125 2.171875 -0.578125q1.265625 0 2.1875 0.640625q0.9375 0.625 1.25 1.703125l-0.21875 0l0 -6.546875l1.5 0l0 13.734375l-1.484375 0l0 -2.234375l0.203125 0q-0.296875 1.109375 -1.234375 1.765625q-0.9375 0.640625 -2.203125 0.640625zm0.3125 -1.234375q1.328125 0 2.125 -0.921875q0.8125 -0.921875 0.8125 -2.703125q0 -1.78125 -0.8125 -2.703125q-0.796875 -0.9375 -2.125 -0.9375q-1.3125 0 -2.109375 0.9375q-0.796875 0.921875 -0.796875 2.703125q0 1.78125 0.796875 2.703125q0.796875 0.921875 2.109375 0.921875zm11.506256 1.234375q-2.203125 0 -3.484375 -1.28125q-1.265625 -1.28125 -1.265625 -3.5625q0 -1.46875 0.5625 -2.5625q0.5625 -1.09375 1.5625 -1.6875q1.015625 -0.609375 2.3125 -0.609375q1.296875 0 2.171875 0.546875q0.875 0.53125 1.34375 1.53125q0.46875 1.0 0.46875 2.359375l0 0.5625l-7.265625 0l0 -0.953125l6.28125 0l-0.328125 0.234375q0 -1.484375 -0.671875 -2.3125q-0.671875 -0.84375 -2.0 -0.84375q-1.390625 0 -2.171875 0.984375q-0.78125 0.96875 -0.78125 2.625l0 0.171875q0 1.75 0.859375 2.65625q0.875 0.90625 2.4375 0.90625q0.84375 0 1.578125 -0.25q0.734375 -0.25 1.40625 -0.828125l0.515625 1.0625q-0.609375 0.59375 -1.5625 0.921875q-0.9375 0.328125 -1.96875 0.328125zm9.102127 0q-1.125 0 -2.09375 -0.3125q-0.96875 -0.3125 -1.609375 -0.859375l0.53125 -1.078125q0.6875 0.546875 1.5 0.8125q0.8125 0.265625 1.6875 0.265625q1.125 0 1.6875 -0.40625q0.5625 -0.40625 0.5625 -1.109375q0 -0.546875 -0.359375 -0.875q-0.359375 -0.328125 -1.1875 -0.515625l-1.734375 -0.34375q-1.1875 -0.265625 -1.796875 -0.890625q-0.59375 -0.625 -0.59375 -1.59375q0 -0.828125 0.421875 -1.453125q0.4375 -0.625 1.25 -0.984375q0.828125 -0.359375 1.9375 -0.359375q1.03125 0 1.890625 0.3125q0.875 0.296875 1.453125 0.875l-0.546875 1.046875q-0.5625 -0.53125 -1.28125 -0.796875q-0.71875 -0.28125 -1.484375 -0.28125q-1.09375 0 -1.65625 0.4375q-0.546875 0.4375 -0.546875 1.140625q0 0.546875 0.34375 0.890625q0.359375 0.34375 1.078125 0.515625l1.734375 0.359375q1.265625 0.28125 1.890625 0.875q0.625 0.578125 0.625 1.5625q0 0.84375 -0.46875 1.46875q-0.453125 0.625 -1.296875 0.96875q-0.828125 0.328125 -1.9375 0.328125zm10.997787 -0.171875l0 -9.359375l1.515625 0l0 9.359375l-1.515625 0zm-0.1875 -11.5l0 -1.6875l1.875 0l0 1.6875l-1.875 0zm8.565186 11.671875q-1.375 0 -2.390625 -0.59375q-1.015625 -0.609375 -1.578125 -1.703125q-0.546875 -1.109375 -0.546875 -2.609375q0 -1.53125 0.5625 -2.59375q0.5625 -1.078125 1.578125 -1.640625q1.015625 -0.5625 2.375 -0.5625q0.90625 0 1.75 0.3125q0.84375 0.3125 1.40625 0.890625l-0.546875 1.09375q-0.546875 -0.546875 -1.21875 -0.796875q-0.65625 -0.265625 -1.296875 -0.265625q-1.453125 0 -2.265625 0.921875q-0.796875 0.90625 -0.796875 2.65625q0 1.734375 0.796875 2.6875q0.8125 0.953125 2.265625 0.953125q0.625 0 1.28125 -0.234375q0.65625 -0.25 1.234375 -0.8125l0.546875 1.0625q-0.578125 0.59375 -1.4375 0.921875q-0.859375 0.3125 -1.71875 0.3125zm8.954437 0q-1.34375 0 -2.34375 -0.578125q-0.984375 -0.59375 -1.53125 -1.6875q-0.546875 -1.09375 -0.546875 -2.59375q0 -1.5 0.546875 -2.578125q0.546875 -1.09375 1.53125 -1.671875q1.0 -0.59375 2.34375 -0.59375q1.359375 0 2.359375 0.59375q1.0 0.578125 1.546875 1.671875q0.5625 1.078125 0.5625 2.578125q0 1.5 -0.5625 2.59375q-0.546875 1.09375 -1.546875 1.6875q-1.0 0.578125 -2.359375 0.578125zm0 -1.234375q1.34375 0 2.125 -0.921875q0.796875 -0.921875 0.796875 -2.703125q0 -1.78125 -0.796875 -2.703125q-0.796875 -0.9375 -2.125 -0.9375q-1.3125 0 -2.109375 0.9375q-0.78125 0.921875 -0.78125 2.703125q0 1.78125 0.78125 2.703125q0.796875 0.921875 2.109375 0.921875zm6.808975 1.0625l0 -7.203125q0 -0.515625 -0.046875 -1.0625q-0.046875 -0.5625 -0.09375 -1.09375l1.453125 0l0.1875 2.046875l-0.21875 0q0.40625 -1.078125 1.3125 -1.640625q0.90625 -0.578125 2.09375 -0.578125q1.65625 0 2.5 0.890625q0.859375 0.875 0.859375 2.78125l0 5.859375l-1.515625 0l0 -5.765625q0 -1.328125 -0.53125 -1.921875q-0.53125 -0.609375 -1.640625 -0.609375q-1.3125 0 -2.078125 0.796875q-0.765625 0.796875 -0.765625 2.140625l0 5.359375l-1.515625 0zm14.057571 0.171875q-1.125 0 -2.09375 -0.3125q-0.96875 -0.3125 -1.609375 -0.859375l0.53125 -1.078125q0.6875 0.546875 1.5 0.8125q0.8125 0.265625 1.6875 0.265625q1.125 0 1.6875 -0.40625q0.5625 -0.40625 0.5625 -1.109375q0 -0.546875 -0.359375 -0.875q-0.359375 -0.328125 -1.1875 -0.515625l-1.734375 -0.34375q-1.1875 -0.265625 -1.796875 -0.890625q-0.59375 -0.625 -0.59375 -1.59375q0 -0.828125 0.421875 -1.453125q0.4375 -0.625 1.25 -0.984375q0.828125 -0.359375 1.9375 -0.359375q1.03125 0 1.890625 0.3125q0.875 0.296875 1.453125 0.875l-0.546875 1.046875q-0.5625 -0.53125 -1.28125 -0.796875q-0.71875 -0.28125 -1.484375 -0.28125q-1.09375 0 -1.65625 0.4375q-0.546875 0.4375 -0.546875 1.140625q0 0.546875 0.34375 0.890625q0.359375 0.34375 1.078125 0.515625l1.734375 0.359375q1.265625 0.28125 1.890625 0.875q0.625 0.578125 0.625 1.5625q0 0.84375 -0.46875 1.46875q-0.453125 0.625 -1.296875 0.96875q-0.828125 0.328125 -1.9375 0.328125zm15.700928 0q-1.265625 0 -2.1875 -0.640625q-0.90625 -0.65625 -1.21875 -1.765625l0.203125 0l0 2.234375l-1.5 0l0 -13.734375l1.515625 0l0 6.546875l-0.21875 0q0.3125 -1.078125 1.21875 -1.703125q0.921875 -0.640625 2.1875 -0.640625q1.265625 0 2.1875 0.59375q0.9375 0.578125 1.4375 1.671875q0.515625 1.078125 0.515625 2.578125q0 1.515625 -0.53125 2.609375q-0.515625 1.078125 -1.4375 1.671875q-0.921875 0.578125 -2.171875 0.578125zm-0.3125 -1.234375q1.328125 0 2.125 -0.90625q0.796875 -0.921875 0.796875 -2.71875q0 -1.78125 -0.796875 -2.703125q-0.796875 -0.9375 -2.125 -0.9375q-1.328125 0 -2.125 0.9375q-0.78125 0.921875 -0.78125 2.703125q0 1.78125 0.78125 2.703125q0.796875 0.921875 2.125 0.921875zm6.297455 5.296875l-0.34375 -1.25q0.875 -0.203125 1.453125 -0.484375q0.59375 -0.265625 0.984375 -0.71875q0.390625 -0.4375 0.671875 -1.109375l0.484375 -1.09375l-0.03125 0.625l-4.09375 -9.5625l1.640625 0l3.390625 8.21875l-0.5 0l3.34375 -8.21875l1.59375 0l-4.328125 10.140625q-0.375 0.890625 -0.828125 1.5q-0.453125 0.609375 -0.96875 0.984375q-0.5 0.390625 -1.125 0.609375q-0.609375 0.234375 -1.34375 0.359375z" fill-rule="nonzero"/><path fill="#000000" fill-opacity="0.0" d="m294.75943 579.4876l70.55786 0l0 23.413574l-70.55786 0l0 -23.413574z" fill-rule="nonzero"/><path fill="#173505" d="m296.21255 598.2371l0 -13.15625l8.671875 0l0 1.890625l-6.265625 0l0 3.734375l5.84375 0l0 1.875l-5.84375 0l0 5.65625l-2.40625 0zm10.483856 0l0 -13.734375l2.328125 0l0 13.734375l-2.328125 0zm8.509918 0.1875q-1.234375 0 -2.171875 -0.578125q-0.921875 -0.59375 -1.453125 -1.6875q-0.515625 -1.109375 -0.515625 -2.640625q0 -1.53125 0.515625 -2.625q0.53125 -1.09375 1.453125 -1.671875q0.9375 -0.59375 2.171875 -0.59375q1.1875 0 2.09375 0.59375q0.90625 0.578125 1.203125 1.578125l-0.203125 0l0.203125 -1.984375l2.25 0q-0.0625 0.578125 -0.109375 1.171875q-0.046875 0.59375 -0.046875 1.171875l0 7.078125l-2.3125 0l-0.015625 -1.9375l0.21875 0q-0.296875 0.96875 -1.21875 1.546875q-0.90625 0.578125 -2.0625 0.578125zm0.65625 -1.796875q1.09375 0 1.765625 -0.765625q0.671875 -0.78125 0.671875 -2.34375q0 -1.5625 -0.671875 -2.328125q-0.671875 -0.765625 -1.765625 -0.765625q-1.109375 0 -1.78125 0.765625q-0.671875 0.765625 -0.671875 2.328125q0 1.5625 0.65625 2.34375q0.671875 0.765625 1.796875 0.765625zm11.301239 1.796875q-1.671875 0 -2.53125 -0.875q-0.859375 -0.875 -0.859375 -2.640625l0 -4.34375l-1.8125 0l0 -1.75l1.8125 0l0 -2.40625l2.328125 -0.59375l0 3.0l2.515625 0l0 1.75l-2.515625 0l0 4.203125q0 0.96875 0.375 1.359375q0.375 0.390625 1.03125 0.390625q0.34375 0 0.59375 -0.046875q0.265625 -0.0625 0.5 -0.15625l0 1.84375q-0.3125 0.140625 -0.703125 0.203125q-0.375 0.0625 -0.734375 0.0625zm3.0394897 -0.1875l0 -9.421875l2.328125 0l0 9.421875l-2.328125 0zm-0.125 -11.1875l0 -2.28125l2.59375 0l0 2.28125l-2.59375 0zm9.322388 11.375q-1.453125 0 -2.546875 -0.59375q-1.09375 -0.59375 -1.6875 -1.703125q-0.59375 -1.125 -0.59375 -2.640625q0 -1.53125 0.609375 -2.609375q0.609375 -1.09375 1.6875 -1.671875q1.078125 -0.578125 2.53125 -0.578125q0.9375 0 1.8125 0.296875q0.890625 0.28125 1.453125 0.828125l-0.703125 1.625q-0.5 -0.46875 -1.125 -0.703125q-0.625 -0.234375 -1.234375 -0.234375q-1.25 0 -1.953125 0.78125q-0.6875 0.78125 -0.6875 2.28125q0 1.484375 0.6875 2.296875q0.703125 0.796875 1.953125 0.796875q0.578125 0 1.203125 -0.21875q0.625 -0.234375 1.15625 -0.703125l0.703125 1.609375q-0.578125 0.546875 -1.46875 0.84375q-0.875 0.296875 -1.796875 0.296875zm9.13797 0q-1.453125 0 -2.515625 -0.59375q-1.0625 -0.59375 -1.65625 -1.6875q-0.578125 -1.109375 -0.578125 -2.625q0 -1.515625 0.578125 -2.59375q0.59375 -1.09375 1.65625 -1.6875q1.0625 -0.609375 2.515625 -0.609375q1.46875 0 2.53125 0.609375q1.078125 0.59375 1.65625 1.6875q0.59375 1.078125 0.59375 2.59375q0 1.515625 -0.59375 2.625q-0.578125 1.09375 -1.65625 1.6875q-1.0625 0.59375 -2.53125 0.59375zm0 -1.796875q1.109375 0 1.75 -0.765625q0.65625 -0.78125 0.65625 -2.34375q0 -1.5625 -0.65625 -2.328125q-0.640625 -0.765625 -1.75 -0.765625q-1.09375 0 -1.75 0.765625q-0.65625 0.765625 -0.65625 2.328125q0 1.5625 0.65625 2.34375q0.65625 0.765625 1.75 0.765625zm6.794525 1.609375l0 -7.078125q0 -0.578125 -0.046875 -1.171875q-0.03125 -0.59375 -0.09375 -1.171875l2.25 0l0.1875 1.859375l-0.21875 0q0.4375 -0.984375 1.3125 -1.515625q0.890625 -0.53125 2.046875 -0.53125q1.65625 0 2.484375 0.9375q0.84375 0.921875 0.84375 2.90625l0 5.765625l-2.328125 0l0 -5.65625q0 -1.140625 -0.4375 -1.625q-0.4375 -0.5 -1.3125 -0.5q-1.078125 0 -1.71875 0.671875q-0.640625 0.671875 -0.640625 1.796875l0 5.3125l-2.328125 0z" fill-rule="nonzero"/><path fill="#173505" d="m367.27042 600.3621l-0.703125 -0.546875q0.5 -0.515625 0.65625 -0.96875q0.171875 -0.453125 0.171875 -0.921875l0.328125 0.3125l-1.234375 0l0 -1.90625l1.90625 0l0 1.34375q0 0.75 -0.25 1.40625q-0.234375 0.671875 -0.875 1.28125zm12.201019 -1.953125q-1.25 0 -2.1875 -0.578125q-0.921875 -0.59375 -1.4375 -1.671875q-0.515625 -1.09375 -0.515625 -2.609375q0 -1.53125 0.515625 -2.609375q0.515625 -1.078125 1.4375 -1.65625q0.9375 -0.578125 2.1875 -0.578125q1.28125 0 2.203125 0.640625q0.921875 0.640625 1.21875 1.75l-0.21875 0l0.203125 -2.21875l1.453125 0q-0.0625 0.53125 -0.109375 1.09375q-0.046875 0.546875 -0.046875 1.0625l0 7.203125l-1.5 0l0 -2.203125l0.203125 0q-0.296875 1.109375 -1.234375 1.75q-0.9375 0.625 -2.171875 0.625zm0.296875 -1.234375q1.34375 0 2.125 -0.921875q0.796875 -0.921875 0.796875 -2.703125q0 -1.78125 -0.796875 -2.703125q-0.78125 -0.9375 -2.125 -0.9375q-1.3125 0 -2.109375 0.9375q-0.796875 0.921875 -0.796875 2.703125q0 1.78125 0.796875 2.703125q0.796875 0.921875 2.109375 0.921875zm7.334381 1.0625l0 -7.203125q0 -0.515625 -0.046875 -1.0625q-0.046875 -0.5625 -0.09375 -1.09375l1.453125 0l0.1875 2.046875l-0.21875 0q0.40625 -1.078125 1.3125 -1.640625q0.90625 -0.578125 2.09375 -0.578125q1.65625 0 2.5 0.890625q0.859375 0.875 0.859375 2.78125l0 5.859375l-1.515625 0l0 -5.765625q0 -1.328125 -0.53125 -1.921875q-0.53125 -0.609375 -1.640625 -0.609375q-1.3125 0 -2.078125 0.796875q-0.765625 0.796875 -0.765625 2.140625l0 5.359375l-1.515625 0zm14.479462 0.171875q-1.234375 0 -2.171875 -0.578125q-0.921875 -0.59375 -1.4375 -1.671875q-0.515625 -1.09375 -0.515625 -2.609375q0 -1.53125 0.515625 -2.609375q0.515625 -1.078125 1.4375 -1.65625q0.9375 -0.578125 2.171875 -0.578125q1.265625 0 2.1875 0.640625q0.9375 0.625 1.25 1.703125l-0.21875 0l0 -6.546875l1.5 0l0 13.734375l-1.484375 0l0 -2.234375l0.203125 0q-0.296875 1.109375 -1.234375 1.765625q-0.9375 0.640625 -2.203125 0.640625zm0.3125 -1.234375q1.328125 0 2.125 -0.921875q0.8125 -0.921875 0.8125 -2.703125q0 -1.78125 -0.8125 -2.703125q-0.796875 -0.9375 -2.125 -0.9375q-1.3125 0 -2.109375 0.9375q-0.796875 0.921875 -0.796875 2.703125q0 1.78125 0.796875 2.703125q0.796875 0.921875 2.109375 0.921875zm12.203644 1.0625l0 -9.359375l1.515625 0l0 9.359375l-1.515625 0zm-0.1875 -11.5l0 -1.6875l1.875 0l0 1.6875l-1.875 0zm4.6276855 11.5l0 -7.203125q0 -0.515625 -0.046875 -1.0625q-0.046875 -0.5625 -0.09375 -1.09375l1.453125 0l0.1875 2.046875l-0.21875 0q0.40625 -1.078125 1.3125 -1.640625q0.90625 -0.578125 2.09375 -0.578125q1.65625 0 2.5 0.890625q0.859375 0.875 0.859375 2.78125l0 5.859375l-1.515625 0l0 -5.765625q0 -1.328125 -0.53125 -1.921875q-0.53125 -0.609375 -1.640625 -0.609375q-1.3125 0 -2.078125 0.796875q-0.765625 0.796875 -0.765625 2.140625l0 5.359375l-1.515625 0zm11.416962 0l0 -8.1875l-1.828125 0l0 -1.171875l2.25 0l-0.421875 0.390625l0 -1.578125q0 -1.578125 0.796875 -2.421875q0.8125 -0.84375 2.3125 -0.84375q0.359375 0 0.765625 0.078125q0.40625 0.0625 0.671875 0.171875l0 1.25q-0.234375 -0.09375 -0.5625 -0.15625q-0.328125 -0.0625 -0.65625 -0.0625q-0.578125 0 -1.0 0.234375q-0.40625 0.21875 -0.609375 0.6875q-0.203125 0.46875 -0.203125 1.203125l0 1.359375l-0.234375 -0.3125l2.84375 0l0 1.171875l-2.609375 0l0 8.1875l-1.515625 0zm9.403839 0.171875q-1.34375 0 -2.34375 -0.578125q-0.984375 -0.59375 -1.53125 -1.6875q-0.546875 -1.09375 -0.546875 -2.59375q0 -1.5 0.546875 -2.578125q0.546875 -1.09375 1.53125 -1.671875q1.0 -0.59375 2.34375 -0.59375q1.359375 0 2.359375 0.59375q1.0 0.578125 1.546875 1.671875q0.5625 1.078125 0.5625 2.578125q0 1.5 -0.5625 2.59375q-0.546875 1.09375 -1.546875 1.6875q-1.0 0.578125 -2.359375 0.578125zm0 -1.234375q1.34375 0 2.125 -0.921875q0.796875 -0.921875 0.796875 -2.703125q0 -1.78125 -0.796875 -2.703125q-0.796875 -0.9375 -2.125 -0.9375q-1.3125 0 -2.109375 0.9375q-0.78125 0.921875 -0.78125 2.703125q0 1.78125 0.78125 2.703125q0.796875 0.921875 2.109375 0.921875zm10.9339905 5.21875q-1.203125 0 -2.234375 -0.296875q-1.03125 -0.296875 -1.84375 -0.90625l0.4375 -1.140625q0.578125 0.40625 1.140625 0.640625q0.5625 0.25 1.15625 0.375q0.59375 0.125 1.265625 0.125q1.390625 0 2.09375 -0.734375q0.71875 -0.71875 0.71875 -2.0625l0 -2.75l0.171875 0q-0.296875 1.09375 -1.234375 1.75q-0.921875 0.640625 -2.171875 0.640625q-1.28125 0 -2.234375 -0.5625q-0.9375 -0.578125 -1.453125 -1.625q-0.515625 -1.0625 -0.515625 -2.5q0 -1.421875 0.515625 -2.453125q0.515625 -1.046875 1.453125 -1.609375q0.953125 -0.578125 2.234375 -0.578125q1.265625 0 2.1875 0.640625q0.921875 0.625 1.21875 1.75l-0.171875 -0.1875l0.15625 -2.03125l1.484375 0q-0.078125 0.53125 -0.125 1.09375q-0.03125 0.546875 -0.03125 1.0625l0 7.140625q0 2.09375 -1.078125 3.15625q-1.0625 1.0625 -3.140625 1.0625zm-0.21875 -5.59375q1.359375 0 2.140625 -0.90625q0.78125 -0.90625 0.78125 -2.546875q0 -1.640625 -0.78125 -2.53125q-0.78125 -0.90625 -2.140625 -0.90625q-1.34375 0 -2.15625 0.90625q-0.796875 0.890625 -0.796875 2.53125q0 1.640625 0.796875 2.546875q0.8125 0.90625 2.15625 0.90625zm7.3122253 1.4375l0 -7.109375q0 -0.5625 -0.03125 -1.140625q-0.03125 -0.578125 -0.078125 -1.109375l1.453125 0l0.1875 2.265625l-0.265625 0.015625q0.1875 -0.828125 0.65625 -1.375q0.46875 -0.546875 1.09375 -0.8125q0.640625 -0.265625 1.328125 -0.265625q0.28125 0 0.5 0.015625q0.21875 0.015625 0.390625 0.09375l-0.015625 1.34375q-0.28125 -0.09375 -0.515625 -0.125q-0.234375 -0.03125 -0.53125 -0.03125q-0.8125 0 -1.421875 0.40625q-0.609375 0.390625 -0.921875 1.0q-0.296875 0.609375 -0.296875 1.3125l0 5.515625l-1.53125 0zm10.272644 0.171875q-1.25 0 -2.1875 -0.578125q-0.921875 -0.59375 -1.4375 -1.671875q-0.515625 -1.09375 -0.515625 -2.609375q0 -1.53125 0.515625 -2.609375q0.515625 -1.078125 1.4375 -1.65625q0.9375 -0.578125 2.1875 -0.578125q1.28125 0 2.203125 0.640625q0.921875 0.640625 1.21875 1.75l-0.21875 0l0.203125 -2.21875l1.453125 0q-0.0625 0.53125 -0.109375 1.09375q-0.046875 0.546875 -0.046875 1.0625l0 7.203125l-1.5 0l0 -2.203125l0.203125 0q-0.296875 1.109375 -1.234375 1.75q-0.9375 0.625 -2.171875 0.625zm0.296875 -1.234375q1.34375 0 2.125 -0.921875q0.796875 -0.921875 0.796875 -2.703125q0 -1.78125 -0.796875 -2.703125q-0.78125 -0.9375 -2.125 -0.9375q-1.3125 0 -2.109375 0.9375q-0.796875 0.921875 -0.796875 2.703125q0 1.78125 0.796875 2.703125q0.796875 0.921875 2.109375 0.921875zm7.3343506 5.09375l0 -11.234375q0 -0.515625 -0.046875 -1.0625q-0.046875 -0.5625 -0.09375 -1.09375l1.453125 0l0.203125 2.21875l-0.21875 0q0.296875 -1.109375 1.203125 -1.75q0.921875 -0.640625 2.1875 -0.640625q1.265625 0 2.1875 0.578125q0.921875 0.578125 1.4375 1.65625q0.53125 1.078125 0.53125 2.609375q0 1.515625 -0.515625 2.609375q-0.5 1.078125 -1.4375 1.671875q-0.9375 0.578125 -2.203125 0.578125q-1.25 0 -2.171875 -0.625q-0.90625 -0.640625 -1.203125 -1.75l0.203125 0l0 6.234375l-1.515625 0zm4.390625 -5.09375q1.34375 0 2.125 -0.921875q0.796875 -0.921875 0.796875 -2.703125q0 -1.78125 -0.796875 -2.703125q-0.78125 -0.9375 -2.125 -0.9375q-1.328125 0 -2.125 0.9375q-0.78125 0.921875 -0.78125 2.703125q0 1.78125 0.78125 2.703125q0.796875 0.921875 2.125 0.921875zm6.8031616 1.0625l0 -13.734375l1.515625 0l0 6.4375l-0.234375 0q0.390625 -1.09375 1.3125 -1.65625q0.921875 -0.578125 2.125 -0.578125q1.6875 0 2.5 0.90625q0.828125 0.90625 0.828125 2.734375l0 5.890625l-1.515625 0l0 -5.796875q0 -1.3125 -0.515625 -1.90625q-0.5 -0.59375 -1.640625 -0.59375q-1.3125 0 -2.09375 0.796875q-0.765625 0.796875 -0.765625 2.109375l0 5.390625l-1.515625 0zm10.932556 0l0 -9.359375l1.515625 0l0 9.359375l-1.515625 0zm-0.1875 -11.5l0 -1.6875l1.875 0l0 1.6875l-1.875 0zm8.565186 11.671875q-1.375 0 -2.390625 -0.59375q-1.015625 -0.609375 -1.578125 -1.703125q-0.546875 -1.109375 -0.546875 -2.609375q0 -1.53125 0.5625 -2.59375q0.5625 -1.078125 1.578125 -1.640625q1.015625 -0.5625 2.375 -0.5625q0.90625 0 1.75 0.3125q0.84375 0.3125 1.40625 0.890625l-0.546875 1.09375q-0.546875 -0.546875 -1.21875 -0.796875q-0.65625 -0.265625 -1.296875 -0.265625q-1.453125 0 -2.265625 0.921875q-0.796875 0.90625 -0.796875 2.65625q0 1.734375 0.796875 2.6875q0.8125 0.953125 2.265625 0.953125q0.625 0 1.28125 -0.234375q0.65625 -0.25 1.234375 -0.8125l0.546875 1.0625q-0.578125 0.59375 -1.4375 0.921875q-0.859375 0.3125 -1.71875 0.3125zm8.422333 0q-1.125 0 -2.09375 -0.3125q-0.9687195 -0.3125 -1.6093445 -0.859375l0.53125 -1.078125q0.6875 0.546875 1.4999695 0.8125q0.8125 0.265625 1.6875 0.265625q1.125 0 1.6875 -0.40625q0.5625 -0.40625 0.5625 -1.109375q0 -0.546875 -0.359375 -0.875q-0.359375 -0.328125 -1.1875 -0.515625l-1.734375 -0.34375q-1.1875 -0.265625 -1.7968445 -0.890625q-0.59375 -0.625 -0.59375 -1.59375q0 -0.828125 0.421875 -1.453125q0.4375 -0.625 1.2499695 -0.984375q0.828125 -0.359375 1.9375 -0.359375q1.03125 0 1.890625 0.3125q0.875 0.296875 1.453125 0.875l-0.546875 1.046875q-0.5625 -0.53125 -1.28125 -0.796875q-0.71875 -0.28125 -1.484375 -0.28125q-1.09375 0 -1.65625 0.4375q-0.546875 0.4375 -0.546875 1.140625q0 0.546875 0.34375 0.890625q0.359375 0.34375 1.078125 0.515625l1.734375 0.359375q1.265625 0.28125 1.890625 0.875q0.625 0.578125 0.625 1.5625q0 0.84375 -0.46875 1.46875q-0.453125 0.625 -1.296875 0.96875q-0.828125 0.328125 -1.9375 0.328125zm21.685303 0q-0.84375 -0.390625 -1.59375 -0.953125q-0.75 -0.578125 -1.265625 -1.125l0.359375 0.015625q-0.796875 0.96875 -1.9375 1.515625q-1.140625 0.546875 -2.46875 0.546875q-1.34375 0 -2.3125 -0.421875q-0.953125 -0.421875 -1.46875 -1.171875q-0.515625 -0.75 -0.515625 -1.734375q0 -1.28125 0.734375 -2.171875q0.75 -0.90625 2.140625 -1.796875l0.609375 -0.390625l-0.21875 0.28125q-0.875 -0.9375 -1.28125 -1.671875q-0.40625 -0.734375 -0.40625 -1.515625q0 -0.859375 0.40625 -1.515625q0.421875 -0.65625 1.15625 -1.015625q0.734375 -0.375 1.75 -0.375q1.265625 0 2.109375 0.71875q0.859375 0.71875 0.859375 1.953125q0 0.671875 -0.28125 1.265625q-0.265625 0.578125 -0.90625 1.15625q-0.625 0.5625 -1.71875 1.234375l0.046875 -0.34375l3.625 3.90625l-0.34375 0q0.484375 -0.765625 0.75 -1.890625q0.28125 -1.125 0.3125 -2.375l1.328125 0q-0.046875 1.546875 -0.4375 2.890625q-0.390625 1.328125 -1.03125 2.34375l-0.046875 -0.4375q0.484375 0.515625 1.171875 1.046875q0.703125 0.53125 1.5 0.90625l-0.625 1.125zm-6.859375 -1.234375q1.125 0 1.984375 -0.4375q0.875 -0.453125 1.53125 -1.3125l-0.046875 0.421875l-4.046875 -4.328125l0.578125 0.015625l-0.578125 0.359375q-0.78125 0.515625 -1.296875 0.984375q-0.5 0.46875 -0.75 0.984375q-0.234375 0.5 -0.234375 1.125q0 1.03125 0.734375 1.609375q0.75 0.578125 2.125 0.578125zm0.546875 -11.125q-0.84375 0 -1.375 0.484375q-0.515625 0.46875 -0.515625 1.25q0 0.421875 0.140625 0.78125q0.140625 0.34375 0.46875 0.765625q0.34375 0.421875 0.90625 1.046875l-0.40625 0.0625q1.28125 -0.78125 1.859375 -1.40625q0.59375 -0.625 0.59375 -1.375q0 -0.734375 -0.453125 -1.171875q-0.453125 -0.4375 -1.21875 -0.4375zm13.012573 12.1875l0 -9.359375l1.515625 0l0 9.359375l-1.515625 0zm-0.1875 -11.5l0 -1.6875l1.875 0l0 1.6875l-1.875 0zm4.6276855 11.5l0 -7.203125q0 -0.515625 -0.046875 -1.0625q-0.046875 -0.5625 -0.09375 -1.09375l1.453125 0l0.1875 2.046875l-0.21875 0q0.359375 -1.0625 1.171875 -1.640625q0.8125 -0.578125 1.96875 -0.578125q1.1875 0 1.921875 0.5625q0.734375 0.5625 1.0 1.734375l-0.28125 0q0.34375 -1.0625 1.234375 -1.671875q0.90625 -0.625 2.09375 -0.625q1.546875 0 2.328125 0.890625q0.796875 0.875 0.796875 2.78125l0 5.859375l-1.515625 0l0 -5.765625q0 -1.328125 -0.46875 -1.921875q-0.46875 -0.609375 -1.484375 -0.609375q-1.1875 0 -1.875 0.8125q-0.671875 0.8125 -0.671875 2.171875l0 5.3125l-1.5 0l0 -5.765625q0 -1.328125 -0.46875 -1.921875q-0.46875 -0.609375 -1.5 -0.609375q-1.171875 0 -1.84375 0.8125q-0.671875 0.8125 -0.671875 2.171875l0 5.3125l-1.515625 0zm19.942688 0.171875q-1.25 0 -2.1875 -0.578125q-0.921875 -0.59375 -1.4375 -1.671875q-0.515625 -1.09375 -0.515625 -2.609375q0 -1.53125 0.515625 -2.609375q0.515625 -1.078125 1.4375 -1.65625q0.9375 -0.578125 2.1875 -0.578125q1.28125 0 2.203125 0.640625q0.921875 0.640625 1.21875 1.75l-0.21875 0l0.203125 -2.21875l1.453125 0q-0.0625 0.53125 -0.109375 1.09375q-0.046875 0.546875 -0.046875 1.0625l0 7.203125l-1.5 0l0 -2.203125l0.203125 0q-0.296875 1.109375 -1.234375 1.75q-0.9375 0.625 -2.171875 0.625zm0.296875 -1.234375q1.34375 0 2.125 -0.921875q0.796875 -0.921875 0.796875 -2.703125q0 -1.78125 -0.796875 -2.703125q-0.78125 -0.9375 -2.125 -0.9375q-1.3125 0 -2.109375 0.9375q-0.796875 0.921875 -0.796875 2.703125q0 1.78125 0.796875 2.703125q0.796875 0.921875 2.109375 0.921875zm11.459412 5.21875q-1.203125 0 -2.234375 -0.296875q-1.03125 -0.296875 -1.84375 -0.90625l0.4375 -1.140625q0.578125 0.40625 1.140625 0.640625q0.5625 0.25 1.15625 0.375q0.59375 0.125 1.265625 0.125q1.390625 0 2.09375 -0.734375q0.71875 -0.71875 0.71875 -2.0625l0 -2.75l0.171875 0q-0.296875 1.09375 -1.234375 1.75q-0.921875 0.640625 -2.171875 0.640625q-1.28125 0 -2.234375 -0.5625q-0.9375 -0.578125 -1.453125 -1.625q-0.515625 -1.0625 -0.515625 -2.5q0 -1.421875 0.515625 -2.453125q0.515625 -1.046875 1.453125 -1.609375q0.953125 -0.578125 2.234375 -0.578125q1.265625 0 2.1875 0.640625q0.921875 0.625 1.21875 1.75l-0.171875 -0.1875l0.15625 -2.03125l1.484375 0q-0.078125 0.53125 -0.125 1.09375q-0.03125 0.546875 -0.03125 1.0625l0 7.140625q0 2.09375 -1.078125 3.15625q-1.0625 1.0625 -3.140625 1.0625zm-0.21875 -5.59375q1.359375 0 2.140625 -0.90625q0.78125 -0.90625 0.78125 -2.546875q0 -1.640625 -0.78125 -2.53125q-0.78125 -0.90625 -2.140625 -0.90625q-1.34375 0 -2.15625 0.90625q-0.796875 0.890625 -0.796875 2.53125q0 1.640625 0.796875 2.546875q0.8125 0.90625 2.15625 0.90625zm11.51532 1.609375q-2.203125 0 -3.484375 -1.28125q-1.265625 -1.28125 -1.265625 -3.5625q0 -1.46875 0.5625 -2.5625q0.5625 -1.09375 1.5625 -1.6875q1.015625 -0.609375 2.3125 -0.609375q1.296875 0 2.171875 0.546875q0.875 0.53125 1.34375 1.53125q0.46875 1.0 0.46875 2.359375l0 0.5625l-7.265625 0l0 -0.953125l6.28125 0l-0.328125 0.234375q0 -1.484375 -0.671875 -2.3125q-0.671875 -0.84375 -2.0 -0.84375q-1.390625 0 -2.171875 0.984375q-0.78125 0.96875 -0.78125 2.625l0 0.171875q0 1.75 0.859375 2.65625q0.875 0.90625 2.4375 0.90625q0.84375 0 1.578125 -0.25q0.734375 -0.25 1.40625 -0.828125l0.515625 1.0625q-0.609375 0.59375 -1.5625 0.921875q-0.9375 0.328125 -1.96875 0.328125zm9.102173 0q-1.125 0 -2.09375 -0.3125q-0.96875 -0.3125 -1.609375 -0.859375l0.53125 -1.078125q0.6875 0.546875 1.5 0.8125q0.8125 0.265625 1.6875 0.265625q1.125 0 1.6875 -0.40625q0.5625 -0.40625 0.5625 -1.109375q0 -0.546875 -0.359375 -0.875q-0.359375 -0.328125 -1.1875 -0.515625l-1.734375 -0.34375q-1.1875 -0.265625 -1.796875 -0.890625q-0.59375 -0.625 -0.59375 -1.59375q0 -0.828125 0.421875 -1.453125q0.4375 -0.625 1.25 -0.984375q0.828125 -0.359375 1.9375 -0.359375q1.03125 0 1.890625 0.3125q0.875 0.296875 1.453125 0.875l-0.546875 1.046875q-0.5625 -0.53125 -1.28125 -0.796875q-0.71875 -0.28125 -1.484375 -0.28125q-1.09375 0 -1.65625 0.4375q-0.546875 0.4375 -0.546875 1.140625q0 0.546875 0.34375 0.890625q0.359375 0.34375 1.078125 0.515625l1.734375 0.359375q1.265625 0.28125 1.890625 0.875q0.625 0.578125 0.625 1.5625q0 0.84375 -0.46875 1.46875q-0.453125 0.625 -1.296875 0.96875q-0.828125 0.328125 -1.9375 0.328125zm15.700867 0q-1.265625 0 -2.1875 -0.640625q-0.90625 -0.65625 -1.21875 -1.765625l0.203125 0l0 2.234375l-1.5 0l0 -13.734375l1.515625 0l0 6.546875l-0.21875 0q0.3125 -1.078125 1.21875 -1.703125q0.921875 -0.640625 2.1875 -0.640625q1.265625 0 2.1875 0.59375q0.9375 0.578125 1.4375 1.671875q0.515625 1.078125 0.515625 2.578125q0 1.515625 -0.53125 2.609375q-0.515625 1.078125 -1.4375 1.671875q-0.921875 0.578125 -2.171875 0.578125zm-0.3125 -1.234375q1.328125 0 2.125 -0.90625q0.796875 -0.921875 0.796875 -2.71875q0 -1.78125 -0.796875 -2.703125q-0.796875 -0.9375 -2.125 -0.9375q-1.328125 0 -2.125 0.9375q-0.78125 0.921875 -0.78125 2.703125q0 1.78125 0.78125 2.703125q0.796875 0.921875 2.125 0.921875zm6.2974854 5.296875l-0.34375 -1.25q0.875 -0.203125 1.453125 -0.484375q0.59375 -0.265625 0.984375 -0.71875q0.390625 -0.4375 0.671875 -1.109375l0.484375 -1.09375l-0.03125 0.625l-4.09375 -9.5625l1.640625 0l3.390625 8.21875l-0.5 0l3.34375 -8.21875l1.59375 0l-4.328125 10.140625q-0.375 0.890625 -0.828125 1.5q-0.453125 0.609375 -0.96875 0.984375q-0.5 0.390625 -1.125 0.609375q-0.609375 0.234375 -1.34375 0.359375z" fill-rule="nonzero"/><path fill="#000000" fill-opacity="0.0" d="m634.5081 579.4876l64.84894 0l0 23.413574l-64.84894 0l0 -23.413574z" fill-rule="nonzero"/><path fill="#173505" d="m635.96124 598.2371l0 -13.15625l8.671875 0l0 1.890625l-6.265625 0l0 3.734375l5.84375 0l0 1.875l-5.84375 0l0 5.65625l-2.40625 0zm10.281616 0l0 -7.015625q0 -0.59375 -0.03125 -1.203125q-0.03125 -0.625 -0.09375 -1.203125l2.25 0l0.265625 2.578125l-0.375 0q0.1875 -0.9375 0.625 -1.546875q0.4375 -0.625 1.0625 -0.921875q0.640625 -0.296875 1.390625 -0.296875q0.328125 0 0.53125 0.03125q0.21875 0.03125 0.421875 0.09375l-0.015625 2.0625q-0.359375 -0.15625 -0.609375 -0.1875q-0.25 -0.046875 -0.625 -0.046875q-0.796875 0 -1.359375 0.34375q-0.546875 0.328125 -0.828125 0.9375q-0.265625 0.59375 -0.265625 1.359375l0 5.015625l-2.34375 0zm11.760681 0.1875q-2.375 0 -3.71875 -1.296875q-1.34375 -1.3125 -1.34375 -3.59375q0 -1.46875 0.578125 -2.5625q0.578125 -1.109375 1.609375 -1.71875q1.046875 -0.625 2.421875 -0.625q1.359375 0 2.265625 0.578125q0.921875 0.578125 1.390625 1.625q0.484375 1.046875 0.484375 2.4375l0 0.625l-6.859375 0l0 -1.234375l5.203125 0l-0.328125 0.265625q0 -1.3125 -0.546875 -2.0q-0.546875 -0.6875 -1.59375 -0.6875q-1.15625 0 -1.78125 0.828125q-0.625 0.8125 -0.625 2.28125l0 0.25q0 1.53125 0.75 2.28125q0.765625 0.75 2.140625 0.75q0.796875 0 1.5 -0.203125q0.703125 -0.21875 1.34375 -0.703125l0.6875 1.5625q-0.671875 0.546875 -1.609375 0.84375q-0.9375 0.296875 -1.96875 0.296875zm10.223633 0q-2.375 0 -3.71875 -1.296875q-1.34375 -1.3125 -1.34375 -3.59375q0 -1.46875 0.578125 -2.5625q0.578125 -1.109375 1.609375 -1.71875q1.046875 -0.625 2.421875 -0.625q1.359375 0 2.265625 0.578125q0.921875 0.578125 1.390625 1.625q0.484375 1.046875 0.484375 2.4375l0 0.625l-6.859375 0l0 -1.234375l5.203125 0l-0.328125 0.265625q0 -1.3125 -0.546875 -2.0q-0.546875 -0.6875 -1.59375 -0.6875q-1.15625 0 -1.78125 0.828125q-0.625 0.8125 -0.625 2.28125l0 0.25q0 1.53125 0.75 2.28125q0.765625 0.75 2.140625 0.75q0.796875 0 1.5 -0.203125q0.703125 -0.21875 1.34375 -0.703125l0.6875 1.5625q-0.671875 0.546875 -1.609375 0.84375q-0.9375 0.296875 -1.96875 0.296875zm5.661133 3.84375l0 -11.109375q0 -0.578125 -0.046875 -1.171875q-0.03125 -0.59375 -0.09375 -1.171875l2.25 0l0.203125 1.984375l-0.203125 0q0.28125 -1.0 1.1875 -1.578125q0.90625 -0.59375 2.09375 -0.59375q1.25 0 2.1875 0.59375q0.9375 0.578125 1.453125 1.671875q0.53125 1.09375 0.53125 2.625q0 1.53125 -0.53125 2.640625q-0.515625 1.09375 -1.453125 1.6875q-0.9375 0.578125 -2.1875 0.578125q-1.171875 0 -2.078125 -0.578125q-0.890625 -0.578125 -1.1875 -1.546875l0.203125 0l0 5.96875l-2.328125 0zm4.734375 -5.640625q1.125 0 1.796875 -0.765625q0.671875 -0.78125 0.671875 -2.34375q0 -1.5625 -0.671875 -2.328125q-0.671875 -0.765625 -1.796875 -0.765625q-1.09375 0 -1.765625 0.765625q-0.671875 0.765625 -0.671875 2.328125q0 1.5625 0.671875 2.34375q0.671875 0.765625 1.765625 0.765625zm6.8324585 1.609375l0 -9.421875l2.328125 0l0 9.421875l-2.328125 0zm-0.125 -11.1875l0 -2.28125l2.59375 0l0 2.28125l-2.59375 0zm4.9943237 11.1875l0 -13.734375l2.328125 0l0 8.328125l0.046875 0l3.828125 -4.015625l2.8125 0l-4.765625 4.984375l0.03125 -0.9375l5.0625 5.375l-2.890625 0l-4.078125 -4.21875l-0.046875 0l0 4.21875l-2.328125 0z" fill-rule="nonzero"/><path fill="#010000" fill-opacity="0.0" d="m699.35706 579.4876l4.8692627 0l0 23.413574l-4.8692627 0l0 -23.413574z" fill-rule="nonzero"/><path fill="#000000" fill-opacity="0.0" d="m704.2263 579.4876l0 0l0 23.413574l0 0l0 -23.413574z" fill-rule="nonzero"/><path fill="#173505" d="m294.75943 599.45044l70.55786 0l0 1.6799927l-70.55786 0l0 -1.6799927z" fill-rule="nonzero"/><path fill="#173505" d="m634.5081 599.45044l64.84894 0l0 1.6799927l-64.84894 0l0 -1.6799927z" fill-rule="nonzero"/><a xlink:href="https://www.google.com/url?q=https://bit.ly/3A1uf1Q&amp;sa=D&amp;source=editors&amp;ust=1737517752857901&amp;usg=AOvVaw06W6AVB3mJjXCRblT8ITzr" target="_blank" rel="noreferrer"><path fill="transparent" fill-opacity="0" d="m606.15045 557.65045l75.5578 0l0 22.400024l-75.5578 0l0 -22.400024z" fill-rule="nonzero"/></a><a xlink:href="https://www.google.com/url?q=http://bit.ly/2TyoMsr&amp;sa=D&amp;source=editors&amp;ust=1737517752858026&amp;usg=AOvVaw3ixfsCqGSkbyqjCR96E_vW" target="_blank" rel="noreferrer"><path fill="transparent" fill-opacity="0" d="m294.75943 580.31714l70.55786 0l0 22.399963l-70.55786 0l0 -22.399963z" fill-rule="nonzero"/></a><a xlink:href="https://www.google.com/url?q=http://bit.ly/2TtBDfr&amp;sa=D&amp;source=editors&amp;ust=1737517752858080&amp;usg=AOvVaw3m0hdfvZgxcLDfq6vHywZP" target="_blank" rel="noreferrer"><path fill="transparent" fill-opacity="0" d="m634.5081 580.31714l64.84894 0l0 22.399963l-64.84894 0l0 -22.399963z" fill-rule="nonzero"/></a><path fill="#173505" d="m69.04976 64.86983c-3.02874 3.32267 -5.208351 7.4086075 -6.3903465 11.714012c-2.4368896 9.137932 -0.13888168 19.082298 2.7810783 28.189774c0.26176453 -0.48590088 0.57826996 -0.92697144 0.94151306 -1.3254776c1.3252335 -1.4538345 3.2430878 -2.3377762 5.179222 -2.7725143c2.3932266 -0.6270523 5.0217667 -0.8939438 7.3339157 -1.735672c1.3437424 -0.5466995 2.6106873 -1.3293381 3.5350952 -2.3434525c0.75655365 -0.82997894 1.2845917 -1.8177795 1.4294662 -2.948326c0.56004333 -3.6948547 -2.992302 -7.4934006 -1.2371674 -10.799004c0.16020966 -0.291687 0.3483963 -0.5478287 0.55883026 -0.7786865c2.0392075 -2.2370987 6.199501 -2.0093079 8.341415 -4.359085c0.06012726 -0.065963745 0.114990234 -0.13167572 0.17237091 -0.2001419c1.1874466 -1.302681 1.4674683 -3.150116 1.3181915 -4.830208c-0.22901917 -1.7527161 -0.8196945 -3.4123077 -1.5506592 -4.9179916c-1.1498871 -2.5863419 -2.233963 -5.3994484 -3.3838425 -7.985794c-0.8095474 -1.7231102 -1.6243439 -3.4459763 -3.7559357 -3.4206238c-4.2526855 0.05022049 -9.389557 3.2234497 -12.565002 5.9397087c-0.96369934 0.7922325 -1.8689194 1.6528053 -2.7081451 2.5734825z" fill-rule="evenodd"/><path fill="#96ae6d" d="m68.84232 65.78746c-0.15531921 0.1703949 -0.2959137 0.37432098 -0.41854858 0.62477875l1.02211 -1.1212997c-0.20957947 0.13607025 -0.41818237 0.29315186 -0.6035614 0.496521zm0.6035614 -0.496521c0.2992096 -0.19023895 0.6083832 -0.3361969 0.8848114 -0.5069504c4.537956 -1.897892 9.21151 -2.4098206 12.935417 -1.2616501c-0.6967926 2.4537048 -1.4516373 5.13118 -2.5820694 7.6024017c-5.82563 -0.5373001 -11.87207 0.4042511 -17.273888 2.6370544c-0.20358658 0.37792206 -0.26438522 0.5991974 -0.39373398 1.0447311c5.3207283 -2.4474792 11.367176 -3.3890305 17.40482 -2.9352798c-1.1937332 2.6952362 -2.543953 5.2529984 -4.036049 7.8173447c-5.011383 -0.35404968 -10.164085 0.8381119 -14.758503 3.1070862c0.023036957 0.43845367 -0.04026413 0.6624756 -0.022480011 1.1011734c4.3702927 -2.3322601 9.304131 -3.587944 14.380409 -3.3106003c-0.9633255 1.3659668 -1.9198074 2.8789978 -2.9560318 4.319412l-1.5082855 2.2729568c-3.3505096 0.5952072 -6.6711426 1.77594 -9.599991 3.4543076c0.010940552 0.29162598 0.027130127 0.58301544 0.11096573 0.8001938c2.721157 -1.4450073 5.7500267 -2.6148071 8.953411 -3.2031784c-1.106369 1.5173645 -1.9157104 3.0235596 -2.7278137 4.5272446c-1.9559784 3.6860352 -3.0412521 7.1842194 -3.2530823 10.49707c0.17176056 0.5789261 0.2758789 1.2320557 0.5205307 1.7365341c0.07014465 -0.07695007 0.1402893 -0.15390015 0.12409973 -0.4452896c0.06060028 -3.4505692 1.1253433 -7.3899612 3.3525543 -11.528114c0.6743088 -1.3525391 1.5674896 -2.6415482 2.456581 -4.0751266l0 0c0.846817 3.9953232 1.028122 7.947876 0.6962967 11.850578c0.21727753 -0.08379364 0.50218964 -0.24178314 0.80329895 -0.10839081c0.39513397 -4.1267166 0.11789703 -8.443275 -0.8776474 -12.579071c0.6194458 -0.83413696 1.2414017 -1.6710205 1.7093735 -2.64814c0.6219559 -0.83688354 1.3142929 -1.7454681 1.7822723 -2.72258l0 0c3.6564636 4.4516754 5.2547836 10.393875 4.124542 16.094406c0.28742218 -0.16074371 0.6424866 -0.3956833 1.006897 -0.48631287c0.8992691 -5.9108734 -0.7760391 -11.923187 -4.5796356 -16.368027c0.34137726 -0.52908325 0.60575867 -1.128273 0.95648193 -1.513031c1.5016861 -2.4147797 2.8519058 -4.972542 3.9780045 -7.5935745l0 0c1.8709412 2.408081 3.3989258 5.197937 4.5572357 8.078659l0.86660767 -0.3324051c-1.2421494 -3.097908 -2.8471146 -5.9578705 -4.87204 -8.506187c0.9156647 -2.3901825 1.8313293 -4.780365 2.4554749 -7.1543655l0 0c3.8756943 2.8255157 7.0661316 6.711937 8.881172 11.030731c0.12409973 -0.4452896 0.24660492 -1.0378876 0.23291779 -1.3320236c-1.9646759 -4.3092117 -5.0687866 -7.9811935 -8.863396 -10.592041c0.63349915 -2.229683 1.1847458 -4.529236 1.521225 -6.747753c-0.2983551 -0.1308899 -0.45233154 -0.27111816 -0.8235855 -0.32756042c-0.41096497 2.145649 -0.83127594 4.146984 -1.3217316 6.2252693l-0.8169937 -0.18574905c-3.8614502 -0.99176025 -8.236641 -0.3489418 -12.627464 1.5421104c-0.1402893 0.15390778 -0.28491974 0.15799713 -0.3550644 0.2349472z" fill-rule="evenodd"/><path fill="#173505" d="m54.393784 654.55054c5.3065376 -4.6052246 9.434261 -10.549805 12.0535965 -17.016846c5.4478836 -13.738892 3.6937256 -29.592163 0.8216934 -44.259888c-0.49484253 0.70648193 -1.0664825 1.333435 -1.702919 1.8857422c-2.3218842 2.0150146 -5.459709 3.0374756 -8.544018 3.359497c-3.828827 0.5371094 -7.957222 0.4724121 -11.699329 1.357544c-2.1852798 0.60369873 -4.2943535 1.5875854 -5.913967 2.993164c-1.3255386 1.1503296 -2.3251534 2.5872803 -2.7560692 4.3155518c-1.542717 5.6327515 3.2785072 12.17572 -0.04815674 16.986511c-0.30182648 0.42352295 -0.6406059 0.7868042 -1.0093002 1.1067505c-3.5728035 3.100647 -9.9884815 1.9890137 -13.741245 5.2457886c-0.10533905 0.091430664 -0.20248032 0.18341064 -0.3040104 0.27923584c-2.0804787 1.805542 -2.8518372 4.621887 -2.9263783 7.256714c0.035982132 2.762146 0.6502743 5.4456177 1.5103626 7.9157715c1.3133144 4.223755 2.483158 8.787476 3.7964725 13.01123c0.94241524 2.8219604 1.8930321 5.64447 5.2061024 5.9935303c6.6097393 0.69696045 15.161074 -3.2922363 20.584784 -6.9295044c1.640152 -1.0540161 3.2020035 -2.2247314 4.6723824 -3.5007935z" fill-rule="evenodd"/><path fill="#96ae6d" d="m54.883007 653.16406c0.27212906 -0.23614502 0.5275154 -0.5270386 0.763504 -0.8934326l-1.7907944 1.5540771c0.35009003 -0.17297363 0.70248795 -0.37878418 1.0272903 -0.66064453zm-1.0272903 0.66064453c-0.49908447 0.24078369 -1.005558 0.41101074 -1.4657211 0.6256714c-7.3892975 2.1187744 -14.7364235 2.0617676 -20.307026 -0.3988037c1.5287399 -3.6814575 3.1883583 -7.699585 5.393341 -11.329163c8.944019 1.8954468 18.50032 1.5357666 27.29145 -0.9454346c0.38488007 -0.5494995 0.5195694 -0.88183594 0.8015442 -1.5497437c-8.704414 2.8291626 -18.260715 3.1888428 -27.549042 1.3843994c2.3440666 -3.9657593 4.905945 -7.689575 7.6892357 -11.397827c7.7136345 1.4627075 15.928448 0.5512085 23.473011 -2.1333008c0.044158936 -0.6846924 0.1832428 -1.020874 0.23560333 -1.7050171c-7.2082367 2.8235474 -15.094925 3.8734741 -22.923256 2.5180664c1.7441559 -1.9445801 3.5044937 -4.1186523 5.3753586 -6.1654663l2.75531 -3.2530518c5.3088226 -0.31329346 10.677986 -1.5408325 15.52977 -3.6121216c0.03617859 -0.45465088 0.06415558 -0.9098511 -0.026374817 -1.262207c-4.4869003 1.7469482 -9.401234 3.0106812 -14.480438 3.34021c1.9937592 -2.1535034 3.5244865 -4.343811 5.059025 -6.529663c3.7077293 -5.364685 6.029812 -10.596436 6.962429 -15.699646c-0.16106415 -0.9298706 -0.20362091 -1.9625854 -0.49139404 -2.7901611c-0.12289429 0.10668945 -0.2457962 0.21331787 -0.2737732 0.66851807c-0.7229996 5.3446045 -3.0936356 11.264893 -7.3047523 17.28186c-1.293129 1.9763794 -2.9143867 3.81427 -4.555641 5.8773193l0 0c-0.5861168 -6.3554077 -0.14707565 -12.523132 1.0793114 -18.52002c-0.35250854 0.0904541 -0.8235245 0.28375244 -1.2665634 0.021850586c-1.3654709 6.333008 -1.721962 13.083252 -0.9306183 19.683777c-1.1134834 1.1817627 -2.2313538 2.3673706 -3.1357994 3.798706c-1.1178741 1.1855469 -2.3580666 2.4696045 -3.2625084 3.90094l0 0c-4.863785 -7.5756836 -6.2614403 -17.089783 -3.4681435 -25.731567c-0.47540665 0.19714355 -1.0693207 0.4970703 -1.6514435 0.5713501c-2.4731522 9.010376 -0.96878433 18.647278 4.124611 26.239136c-0.62628174 0.75897217 -1.1458511 1.6408081 -1.7603378 2.1740723c-2.7709198 3.4743652 -5.332798 7.198181 -7.5583572 11.061096l0 0c-2.464962 -4.078491 -4.3280296 -8.687012 -5.6007767 -13.369202l-1.4056454 0.35803223c1.3632774 5.034546 3.3330555 9.76593 6.01145 14.090088c-1.8568649 3.5429688 -3.713726 7.0858765 -5.115179 10.65686l0 0c-5.50045 -5.091675 -9.743946 -11.705078 -11.773878 -18.739014c-0.2737732 0.66851807 -0.57192993 1.565979 -0.60429764 2.0250244c2.2639313 7.0462646 6.412508 13.311157 11.826239 18.05481c-1.3896561 3.3452759 -2.6644 6.813904 -3.5910244 10.195984c0.43922806 0.25750732 0.65265656 0.5031738 1.2185917 0.65844727c1.0289478 -3.255371 2.0461025 -6.285034 3.1861534 -9.421326l1.2341976 0.4371338c5.812584 2.24292 12.720482 2.0424194 19.880169 -0.09259033c0.2457962 -0.21331787 0.47101593 -0.19329834 0.59391403 -0.2999878z" fill-rule="evenodd"/><path fill="#000000" fill-opacity="0.0" d="m27.221024 515.09735c1.8743763 -3.4320679 3.9795475 -6.878845 6.8234024 -9.431427c2.7959785 -2.6451416 6.6936607 -4.600403 10.501198 -4.601715c3.89505 -0.050567627 8.036221 2.0177002 9.64925 5.509186c1.753479 3.5361938 0.46063614 8.424652 -2.9814491 10.127716c-1.5363312 0.86486816 -3.3397026 1.0437012 -4.9048157 0.38006592c-1.5139999 -0.57299805 -2.8412666 -2.0874634 -2.8304062 -3.7578125c-0.2217598 -1.6588745 0.7145157 -3.3765259 2.239376 -4.473938c1.2922401 -1.0859375 3.084137 -1.4972839 4.846039 -1.5375671c4.3981056 -0.2185669 8.671497 1.6600647 11.520428 4.8142395c2.8489304 3.1542358 4.1430054 7.7769165 3.3306808 12.040649" fill-rule="evenodd"/><path stroke="#173505" stroke-width="1.0" stroke-linejoin="round" stroke-linecap="round" d="m27.221024 515.09735c1.8743763 -3.4320679 3.9795475 -6.878845 6.8234024 -9.431427c2.7959785 -2.6451416 6.6936607 -4.600403 10.501198 -4.601715c3.89505 -0.050567627 8.036221 2.0177002 9.64925 5.509186c1.753479 3.5361938 0.46063614 8.424652 -2.9814491 10.127716c-1.5363312 0.86486816 -3.3397026 1.0437012 -4.9048157 0.38006592c-1.5139999 -0.57299805 -2.8412666 -2.0874634 -2.8304062 -3.7578125c-0.2217598 -1.6588745 0.7145157 -3.3765259 2.239376 -4.473938c1.2922401 -1.0859375 3.084137 -1.4972839 4.846039 -1.5375671c4.3981056 -0.2185669 8.671497 1.6600647 11.520428 4.8142395c2.8489304 3.1542358 4.1430054 7.7769165 3.3306808 12.040649" fill-rule="evenodd"/><path fill="#173505" d="m1258.638 150.66365c-0.46740723 1.8683167 -0.3466797 3.8836365 0.7763672 5.4328156c2.0621338 2.8684387 7.192749 3.2960968 8.246338 6.763214c0.25524902 0.8340912 0.21728516 1.6447144 0.016967773 2.4454193c-0.5090332 2.0342255 -2.0689697 4.0088806 -2.604126 6.147705c-0.13171387 0.5265808 -0.20031738 1.0612946 -0.17687988 1.6113281c0.099121094 1.7339935 1.2041016 3.293991 2.536499 4.374298c1.310791 1.1822052 2.869751 1.786438 4.404297 2.488037c2.7893066 1.2336731 5.4317627 2.2121582 8.322144 3.4710846c1.8341064 0.77645874 3.418335 1.2796936 4.9538574 -0.1530304c2.060669 -2.0756226 3.3465576 -5.2684937 4.127075 -8.388351c0.40966797 -1.6374817 0.6804199 -3.2560272 0.8529053 -4.68071c0.5786133 -5.730316 -0.6027832 -11.689743 -3.3170166 -16.641144c-4.7529297 -8.342819 -13.354736 -13.700287 -21.82666 -18.27417l0 0c0.37609863 1.2705231 0.3272705 2.5383148 0.018676758 3.7718353c-0.30773926 1.2299042 -0.8753662 2.425537 -1.5303955 3.5418243c-1.3587646 2.0134277 -3.041504 4.0493927 -4.125122 6.235077c-0.28063965 0.5851898 -0.5142822 1.2127686 -0.67492676 1.8547668z" fill-rule="evenodd"/><path fill="#96ae6d" d="m1258.5604 150.54463c3.4179688 4.698059 8.901123 7.992264 14.659546 8.469559c0.076660156 0.55184937 0.22460938 1.2326355 0.30126953 1.7844849c0.6809082 2.8413086 1.3835449 5.5807343 2.5407715 8.219177c-3.0925293 -0.45100403 -6.0876465 -1.3068848 -8.878052 -2.5369568c-0.049560547 0.19837952 -0.22644043 0.47608948 -0.27697754 0.67807007c2.9418945 1.4825592 6.2365723 2.4132843 9.455444 2.788559c0.8063965 2.3399658 2.0358887 4.6745453 3.1922607 6.88739c-4.675049 0.75538635 -9.654053 0.15098572 -14.10791 -1.7094574l0 0c0.22729492 0.3787384 0.45544434 0.7538605 0.9066162 1.081192c4.302246 1.6079712 9.079224 2.16185 13.631592 1.4831085c1.105957 1.985611 2.5148926 4.046982 3.7471924 5.956848c0.3248291 -0.026123047 0.4501953 -0.0982666 0.72802734 -0.35072327c-1.1563721 -1.7836304 -2.3372803 -3.4698792 -3.472046 -5.3554077l0.8833008 -0.5265503c3.2921143 -2.0629272 6.185547 -5.505493 7.9450684 -9.97876l0.12548828 -0.5013428c0.05053711 -0.63119507 -0.047729492 -1.5103607 -0.099121094 -2.1631927l0 0c-0.087524414 0.5644531 -0.18225098 1.0504761 -0.28881836 1.4760742c-0.107299805 0.42919922 -0.22644043 0.7979889 -0.36535645 1.1388397c-1.9111328 4.649994 -4.930908 8.168289 -8.399902 10.079727c-1.333252 -2.364334 -2.4400635 -4.7755585 -3.4196777 -7.2661133c4.6536865 -3.6426544 8.224731 -8.521606 10.539185 -13.9254c-0.22814941 -0.37512207 -0.25341797 -0.7033386 -0.38061523 -1.0532074c-2.213379 5.4290466 -5.808838 10.40538 -10.36145 14.073288c-1.0310059 -2.7141876 -1.935669 -5.50412 -2.613037 -8.344513c3.921997 -3.2928314 6.9661865 -7.7669373 8.502075 -12.618042c-0.17687988 -0.15148926 -0.43041992 -0.4256134 -0.6035156 -0.57621765c-1.4853516 4.649124 -4.302246 9.072739 -8.000366 12.314178c-0.42749023 -1.7087555 -0.6529541 -3.3669891 -1.0804443 -5.0757446c-0.12719727 -0.77908325 -0.30126953 -1.7845001 -0.52941895 -2.5888214c2.013794 -2.9151154 3.522461 -5.956497 4.5548096 -9.224213l-0.6279297 -0.47883606c-0.85546875 2.9900055 -2.3388672 5.9303894 -4.176758 8.571396c-0.32641602 -1.6835022 -0.7286377 -3.4932556 -1.2319336 -5.328247c-1.154541 -3.9215698 -2.7664795 -7.3174744 -5.0028076 -9.903687c-0.4798584 -0.22724915 -1.057251 -0.47885132 -1.5335693 -0.70521545l0 0c0.075805664 0.12625122 0.05053711 0.22723389 0.025268555 0.3282318c2.4383545 2.6367035 4.3497314 6.1074677 5.7072754 10.505157c0.35168457 1.5825043 0.80358887 3.1938782 1.0795898 4.6501465c-3.3181152 -2.109253 -6.260742 -4.875839 -8.673828 -8.042755c-0.17687988 0.27772522 -0.22644043 0.47608948 -0.4033203 0.7538147c2.4888916 3.2931519 5.6345215 6.1066284 9.254761 8.295258c0.17407227 1.0054016 0.42749023 2.1379547 0.5013428 3.1145172c0.15246582 1.1072998 0.40222168 2.2389526 0.70617676 3.1695251c-5.762085 -0.4781952 -10.916748 -3.797638 -14.208496 -8.571442z" fill-rule="evenodd"/><path fill="#173505" d="m1235.2689 116.44101c6.71167 -2.0834274 12.882935 -5.8669815 17.883057 -10.73513c10.515747 -10.38913 15.287476 -25.609024 18.558594 -40.192757c-0.7373047 0.44792175 -1.5129395 0.7921295 -2.317871 1.0419998c-2.9367676 0.91160583 -6.2213135 0.58651733 -9.174927 -0.35843658c-3.722046 -1.0471954 -7.4761963 -2.7658691 -11.258789 -3.45961c-2.2438965 -0.32566452 -4.570923 -0.2726097 -6.619385 0.36327744c-1.6765137 0.5204239 -3.1699219 1.4342537 -4.2598877 2.8434334c-3.678711 4.5370483 -1.8963623 12.4655075 -6.8779297 15.532967c-0.44677734 0.26644897 -0.9030762 0.46286774 -1.3693848 0.60762787c-4.518921 1.4027328 -9.946289 -2.1938171 -14.692749 -0.72042847c-0.13330078 0.041358948 -0.25915527 0.08654022 -0.39074707 0.13344574c-2.6313477 0.81682587 -4.470703 3.08535 -5.598999 5.4677963c-1.0782471 2.5433655 -1.595459 5.2471848 -1.8016357 7.854492c-0.4967041 4.3950424 -1.2615967 9.043694 -1.7583008 13.438736c-0.27233887 2.9624863 -0.5374756 5.9288025 2.355713 7.580078c5.7719727 3.2949066 15.206909 3.0797958 21.636475 1.9296799c1.9259033 -0.30576324 3.8270264 -0.7498779 5.6867676 -1.3271713z" fill-rule="evenodd"/><path fill="#96ae6d" d="m1236.2747 115.368256c0.34423828 -0.10684204 0.69506836 -0.27052307 1.0585938 -0.5111313l-2.2650146 0.7030945c0.39013672 -0.017677307 0.7956543 -0.064445496 1.2064209 -0.1919632zm-1.2064209 0.1919632c-0.553833 0.019813538 -1.0860596 -0.027931213 -1.59375 -0.016349792c-7.6185303 -1.0302124 -14.32312 -4.035614 -18.43396 -8.527588c2.8808594 -2.7561111 6.01709 -5.7679214 9.496338 -8.204765c7.427124 5.330475 16.322144 8.842377 25.369995 10.104248c0.5734863 -0.34838104 0.8305664 -0.59853363 1.3574219 -1.0967407c-9.108398 -0.90841675 -18.003418 -4.4203186 -25.78247 -9.80584c3.7418213 -2.6887207 7.5858154 -5.068413 11.626221 -7.3448105c6.4746094 4.439682 14.363281 6.9071426 22.351562 7.4818497c0.3157959 -0.6091614 0.5784912 -0.8610382 0.9016113 -1.4663696c-7.736206 -0.31220245 -15.380127 -2.5209885 -22.00293 -6.908592c2.3793945 -1.0793228 4.865967 -2.3622742 7.402466 -3.4843063l3.831665 -1.8708649c4.9870605 1.8470383 10.397217 2.8812866 15.673218 2.9350433c0.21594238 -0.40170288 0.42468262 -0.8072357 0.48364258 -1.1662369c-4.8114014 -0.20405579 -9.81958 -1.0223389 -14.603027 -2.7622528c2.6920166 -1.1702728 4.9748535 -2.5603485 7.2592773 -3.9448776c5.5533447 -3.4213867 9.784302 -7.278061 12.691406 -11.575577c0.2265625 -0.9160843 0.6031494 -1.8786926 0.6726074 -2.7520676c-0.15551758 0.04825592 -0.3109131 0.09650421 -0.5196533 0.50203705c-2.8122559 4.6027145 -7.364746 9.070267 -13.641357 12.886566c-1.979248 1.2897415 -4.203125 2.320816 -6.5360107 3.5499725l0 0c2.0202637 -6.0544205 4.9035645 -11.524963 8.439209 -16.522583c-0.35925293 -0.058876038 -0.86828613 -0.0712204 -1.1685791 -0.48908997c-3.7982178 5.2494965 -6.840332 11.286499 -8.771118 17.647835c-1.4949951 0.6344452 -2.9956055 1.270607 -4.399658 2.2175217c-1.5004883 0.63616943 -3.15271 1.3133087 -4.5566406 2.2602234l0 0c-1.4058838 -8.8910675 1.1419678 -18.163666 7.1763916 -24.953072c-0.51464844 -0.010620117 -1.1790771 0.025287628 -1.7419434 -0.14070892c-5.8895264 7.2555313 -8.38916 16.68351 -6.779663 25.681694c-0.8787842 0.443161 -1.7092285 1.0416946 -2.4864502 1.2829514c-3.9350586 2.0672226 -7.7789307 4.4469147 -11.370972 7.0891037l0 0c-0.61621094 -4.72493 -0.46801758 -9.693222 0.25024414 -14.491699l-1.4311523 -0.23721313c-0.7770996 5.1574783 -0.8769531 10.281143 -0.16418457 15.316826c-3.1256104 2.4974365 -6.2512207 4.9948807 -8.971069 7.7010117l0 0c-2.9881592 -6.872696 -4.2130127 -14.633438 -3.2419434 -21.889389c-0.5196533 0.5020294 -1.1536865 1.203865 -1.368042 1.6111145c-0.7618408 7.3613586 0.5164795 14.764816 3.5651855 21.284065c-2.6182861 2.5042267 -5.1810303 5.1676636 -7.3901367 7.891693c0.29858398 0.412323 0.3951416 0.72306824 0.8508301 1.0926971c2.251831 -2.5669327 4.4020996 -4.931961 6.7077637 -7.3452377l0.95422363 0.8963394c4.420044 4.389923 10.825928 6.9830017 18.240723 7.90609c0.3109131 -0.09650421 0.5091553 0.01234436 0.6645508 -0.03591156z" fill-rule="evenodd"/><path fill="#000000" fill-opacity="0.0" d="m1119.7542 84.12931c-2.0718994 -3.3163223 -4.043335 -6.840843 -4.8728027 -10.5698395c-0.93359375 -3.7327194 -0.7253418 -8.086319 1.1419678 -11.402641c1.8673096 -3.4167023 5.7022705 -6.0080414 9.537231 -5.699463c3.942871 0.20820236 7.56958 3.7327194 7.36499 7.565819c0 1.7622604 -0.7290039 3.4204254 -2.0755615 4.4577026c-1.2423096 1.0372772 -3.213745 1.4499588 -4.6644287 0.6208801c-1.5549316 -0.6208801 -2.5926514 -2.2790375 -2.8010254 -4.145401c-0.31237793 -1.6581612 0.20837402 -3.4204178 1.0378418 -4.9744797c1.9677734 -3.9372025 5.7022705 -6.73674 9.849731 -7.669918c4.147461 -0.93318176 8.81189 0.20819855 12.129883 3.0077362" fill-rule="evenodd"/><path stroke="#173505" stroke-width="1.0" stroke-linejoin="round" stroke-linecap="round" d="m1119.7542 84.12931c-2.0718994 -3.3163223 -4.043335 -6.840843 -4.8728027 -10.5698395c-0.93359375 -3.7327194 -0.7253418 -8.086319 1.1419678 -11.402641c1.8673096 -3.4167023 5.7022705 -6.0080414 9.537231 -5.699463c3.942871 0.20820236 7.56958 3.7327194 7.36499 7.565819c0 1.7622604 -0.7290039 3.4204254 -2.0755615 4.4577026c-1.2423096 1.0372772 -3.213745 1.4499588 -4.6644287 0.6208801c-1.5549316 -0.6208801 -2.5926514 -2.2790375 -2.8010254 -4.145401c-0.31237793 -1.6581612 0.20837402 -3.4204178 1.0378418 -4.9744797c1.9677734 -3.9372025 5.7022705 -6.73674 9.849731 -7.669918c4.147461 -0.93318176 8.81189 0.20819855 12.129883 3.0077362" fill-rule="evenodd"/><path fill="#000000" fill-opacity="0.0" d="m1307.6357 645.3061c2.0717773 -3.3163452 4.043213 -6.8408203 4.8728027 -10.569824c0.93359375 -3.732727 0.7253418 -8.086304 -1.1419678 -11.402649c-1.8673096 -3.416687 -5.7022705 -6.0080566 -9.5373535 -5.699463c-3.942871 0.20819092 -7.569458 3.732727 -7.364868 7.565796c0 1.7622681 0.7290039 3.4204712 2.0755615 4.4577026c1.2423096 1.0372925 3.213745 1.4499512 4.6644287 0.62091064c1.5548096 -0.62091064 2.5926514 -2.2790527 2.8009033 -4.1453857c0.3125 -1.6582031 -0.20825195 -3.4204712 -1.0377197 -4.9744873c-1.9677734 -3.9371948 -5.7022705 -6.7367554 -9.849731 -7.669922c-4.147461 -0.9331665 -8.812012 0.20819092 -12.129883 3.0077515" fill-rule="evenodd"/><path stroke="#173505" stroke-width="1.0" stroke-linejoin="round" stroke-linecap="round" d="m1307.6357 645.3061c2.0717773 -3.3163452 4.043213 -6.8408203 4.8728027 -10.569824c0.93359375 -3.732727 0.7253418 -8.086304 -1.1419678 -11.402649c-1.8673096 -3.416687 -5.7022705 -6.0080566 -9.5373535 -5.699463c-3.942871 0.20819092 -7.569458 3.732727 -7.364868 7.565796c0 1.7622681 0.7290039 3.4204712 2.0755615 4.4577026c1.2423096 1.0372925 3.213745 1.4499512 4.6644287 0.62091064c1.5548096 -0.62091064 2.5926514 -2.2790527 2.8009033 -4.1453857c0.3125 -1.6582031 -0.20825195 -3.4204712 -1.0377197 -4.9744873c-1.9677734 -3.9371948 -5.7022705 -6.7367554 -9.849731 -7.669922c-4.147461 -0.9331665 -8.812012 0.20819092 -12.129883 3.0077515" fill-rule="evenodd"/><path fill="#afbea4" d="m133.70561 558.8624l617.2913 0l0 52.06299l-617.2913 0z" fill-rule="evenodd"/></g></svg>