<svg version="1.1" viewBox="0.0 0.0 1919.0 828.0" fill="none" stroke="none" stroke-linecap="square" stroke-miterlimit="10" xmlns:xlink="http://www.w3.org/1999/xlink" xmlns="http://www.w3.org/2000/svg"><clipPath id="g327ca35d53c_0_0.0"><path d="m0 0l1919.0 0l0 828.0l-1919.0 0l0 -828.0z" clip-rule="nonzero"/></clipPath><g clip-path="url(#g327ca35d53c_0_0.0)"><path fill="#afbea4" d="m0 0l1919.0 0l0 828.0l-1919.0 0z" fill-rule="evenodd"/><path fill="#000000" fill-opacity="0.0" d="m184.65968 581.4513l924.5669 0l0 89.543274l-924.5669 0z" fill-rule="evenodd"/><path fill="#173505" d="m211.40968 628.39233q-2.640625 0 -4.53125 -1.0625q-1.875 -1.0625 -2.890625 -3.015625q-1.015625 -1.96875 -1.015625 -4.625q0 -2.671875 1.015625 -4.609375q1.015625 -1.953125 2.890625 -3.015625q1.890625 -1.0625 4.53125 -1.0625q1.765625 0 3.1875 0.5q1.4375 0.5 2.46875 1.484375l-1.0 2.453125q-1.140625 -0.90625 -2.1875 -1.296875q-1.03125 -0.40625 -2.375 -0.40625q-2.578125 0 -3.9375 1.546875q-1.34375 1.546875 -1.34375 4.40625q0 2.859375 1.34375 4.421875q1.359375 1.546875 3.9375 1.546875q1.34375 0 2.375 -0.390625q1.046875 -0.390625 2.1875 -1.328125l1.0 2.4375q-1.03125 0.96875 -2.46875 1.5q-1.421875 0.515625 -3.1875 0.515625zm8.564957 -0.234375l0 -16.921875l7.390625 0q2.78125 0 4.296875 1.328125q1.53125 1.3125 1.53125 3.671875q0 1.546875 -0.6875 2.65625q-0.671875 1.109375 -1.953125 1.703125q-1.265625 0.578125 -3.0 0.578125l0.34375 -0.453125l0.8125 0q1.0 0 1.796875 0.53125q0.796875 0.515625 1.296875 1.609375l2.46875 5.296875l-3.40625 0l-2.5 -5.5q-0.328125 -0.84375 -1.015625 -1.09375q-0.6875 -0.265625 -1.640625 -0.265625l-2.640625 0l0 6.859375l-3.09375 0zm3.09375 -9.140625l3.796875 0q1.625 0 2.46875 -0.6875q0.859375 -0.6875 0.859375 -2.0q0 -1.328125 -0.859375 -2.0q-0.84375 -0.671875 -2.46875 -0.671875l-3.796875 0l0 5.359375zm13.754196 9.140625l0 -16.921875l11.390625 0l0 2.421875l-8.421875 0l0 4.6875l7.875 0l0 2.4375l-7.875 0l0 4.921875l8.421875 0l0 2.453125l-11.390625 0zm14.279953 0l0 -16.921875l6.140625 0q2.90625 0 4.90625 1.0q2.0 1.0 3.03125 2.890625q1.03125 1.875 1.03125 4.5625q0 2.65625 -1.03125 4.5625q-1.03125 1.890625 -3.03125 2.90625q-2.0 1.0 -4.90625 1.0l-6.140625 0zm3.09375 -2.5625l2.859375 0q3.0625 0 4.546875 -1.46875q1.5 -1.46875 1.5 -4.4375q0 -3.0 -1.5 -4.453125q-1.484375 -1.453125 -4.546875 -1.453125l-2.859375 0l0 11.8125zm15.194183 2.5625l0 -16.921875l3.09375 0l0 16.921875l-3.09375 0zm10.800354 0l0 -14.375l-5.59375 0l0 -2.546875l14.28125 0l0 2.546875l-5.59375 0l0 14.375l-3.09375 0zm16.22583 0.234375q-2.046875 0 -3.765625 -0.515625q-1.71875 -0.515625 -2.9375 -1.421875l0.96875 -2.421875q0.8125 0.578125 1.6875 0.96875q0.890625 0.390625 1.890625 0.59375q1.015625 0.203125 2.15625 0.203125q1.890625 0 2.734375 -0.609375q0.84375 -0.625 0.84375 -1.640625q0 -0.890625 -0.578125 -1.359375q-0.578125 -0.46875 -2.0625 -0.78125l-2.71875 -0.546875q-2.328125 -0.484375 -3.484375 -1.609375q-1.140625 -1.125 -1.140625 -3.015625q0 -1.59375 0.828125 -2.765625q0.84375 -1.171875 2.359375 -1.8125q1.515625 -0.65625 3.53125 -0.65625q1.796875 0 3.328125 0.515625q1.53125 0.515625 2.5625 1.46875l-0.953125 2.3125q-1.03125 -0.875 -2.265625 -1.28125q-1.21875 -0.421875 -2.71875 -0.421875q-1.703125 0 -2.65625 0.65625q-0.953125 0.65625 -0.953125 1.8125q0 0.890625 0.578125 1.421875q0.59375 0.515625 2.015625 0.8125l2.6875 0.515625q2.40625 0.484375 3.546875 1.578125q1.15625 1.09375 1.15625 2.9375q0 1.515625 -0.8125 2.65625q-0.8125 1.140625 -2.3125 1.78125q-1.484375 0.625 -3.515625 0.625zm8.995575 -9.046875l0 -3.3125l3.359375 0l0 3.3125l-3.359375 0zm0 8.8125l0 -3.34375l3.359375 0l0 3.34375l-3.359375 0z" fill-rule="nonzero"/><path fill="#173505" d="m322.55008 628.15796l0 -15.234375l-5.984375 0l0 -1.6875l13.921875 0l0 1.6875l-5.953125 0l0 15.234375l-1.984375 0zm10.167816 0l0 -17.65625l1.953125 0l0 8.265625l-0.3125 0q0.5 -1.40625 1.6875 -2.140625q1.1875 -0.734375 2.75 -0.734375q2.15625 0 3.203125 1.171875q1.0625 1.15625 1.0625 3.515625l0 7.578125l-1.9375 0l0 -7.46875q0 -1.671875 -0.671875 -2.4375q-0.65625 -0.78125 -2.109375 -0.78125q-1.6875 0 -2.6875 1.046875q-0.984375 1.03125 -0.984375 2.703125l0 6.9375l-1.953125 0zm14.063965 0l0 -12.046875l1.953125 0l0 12.046875l-1.953125 0zm-0.234375 -14.78125l0 -2.1875l2.40625 0l0 2.1875l-2.40625 0zm9.962006 15.0q-1.4375 0 -2.6875 -0.390625q-1.25 -0.40625 -2.0625 -1.125l0.671875 -1.359375q0.890625 0.6875 1.921875 1.03125q1.046875 0.328125 2.171875 0.328125q1.453125 0 2.171875 -0.515625q0.734375 -0.515625 0.734375 -1.421875q0 -0.703125 -0.46875 -1.125q-0.46875 -0.421875 -1.515625 -0.65625l-2.234375 -0.453125q-1.53125 -0.34375 -2.3125 -1.140625q-0.765625 -0.8125 -0.765625 -2.046875q0 -1.0625 0.546875 -1.859375q0.5625 -0.8125 1.609375 -1.28125q1.0625 -0.46875 2.484375 -0.46875q1.3125 0 2.421875 0.40625q1.125 0.390625 1.875 1.125l-0.703125 1.34375q-0.71875 -0.6875 -1.640625 -1.03125q-0.921875 -0.359375 -1.90625 -0.359375q-1.421875 0 -2.125 0.578125q-0.703125 0.5625 -0.703125 1.46875q0 0.6875 0.4375 1.140625q0.4375 0.4375 1.375 0.65625l2.234375 0.453125q1.640625 0.359375 2.4375 1.125q0.8125 0.75 0.8125 2.015625q0 1.09375 -0.609375 1.90625q-0.59375 0.796875 -1.671875 1.234375q-1.0625 0.421875 -2.5 0.421875zm14.152313 4.96875l0 -14.453125q0 -0.671875 -0.0625 -1.375q-0.046875 -0.71875 -0.125 -1.40625l1.875 0l0.265625 2.859375l-0.296875 0q0.390625 -1.421875 1.5625 -2.25q1.171875 -0.828125 2.8125 -0.828125q1.625 0 2.8125 0.75q1.1875 0.734375 1.859375 2.140625q0.671875 1.390625 0.671875 3.34375q0 1.953125 -0.65625 3.34375q-0.65625 1.390625 -1.859375 2.15625q-1.203125 0.75 -2.828125 0.75q-1.609375 0 -2.796875 -0.8125q-1.171875 -0.828125 -1.546875 -2.234375l0.265625 0l0 8.015625l-1.953125 0zm5.640625 -6.5625q1.734375 0 2.75 -1.1875q1.015625 -1.1875 1.015625 -3.46875q0 -2.296875 -1.015625 -3.484375q-1.015625 -1.1875 -2.75 -1.1875q-1.703125 0 -2.71875 1.1875q-1.015625 1.1875 -1.015625 3.484375q0 2.28125 1.015625 3.46875q1.015625 1.1875 2.71875 1.1875zm8.712463 1.375l0 -9.140625q0 -0.71875 -0.03125 -1.46875q-0.03125 -0.75 -0.109375 -1.4375l1.875 0l0.234375 2.921875l-0.328125 0.03125q0.234375 -1.078125 0.828125 -1.765625q0.609375 -0.703125 1.421875 -1.046875q0.8125 -0.359375 1.703125 -0.359375q0.359375 0 0.640625 0.03125q0.28125 0.015625 0.515625 0.109375l-0.03125 1.734375q-0.359375 -0.125 -0.65625 -0.15625q-0.296875 -0.03125 -0.6875 -0.03125q-1.046875 0 -1.828125 0.5q-0.78125 0.5 -1.1875 1.296875q-0.390625 0.796875 -0.390625 1.671875l0 7.109375l-1.96875 0zm13.974213 0.21875q-2.828125 0 -4.46875 -1.640625q-1.625 -1.65625 -1.625 -4.578125q0 -1.890625 0.71875 -3.296875q0.71875 -1.40625 2.015625 -2.1875q1.296875 -0.78125 2.96875 -0.78125q1.65625 0 2.78125 0.703125q1.140625 0.6875 1.734375 1.984375q0.59375 1.28125 0.59375 3.03125l0 0.71875l-9.328125 0l0 -1.234375l8.0625 0l-0.40625 0.3125q0 -1.90625 -0.875 -2.984375q-0.859375 -1.09375 -2.5625 -1.09375q-1.796875 0 -2.8125 1.265625q-1.0 1.265625 -1.0 3.390625l0 0.21875q0 2.25 1.109375 3.421875q1.125 1.15625 3.140625 1.15625q1.078125 0 2.015625 -0.3125q0.953125 -0.328125 1.828125 -1.078125l0.671875 1.375q-0.796875 0.765625 -2.015625 1.1875q-1.203125 0.421875 -2.546875 0.421875zm11.712219 0q-1.4375 0 -2.6875 -0.390625q-1.25 -0.40625 -2.0625 -1.125l0.671875 -1.359375q0.890625 0.6875 1.921875 1.03125q1.046875 0.328125 2.171875 0.328125q1.453125 0 2.171875 -0.515625q0.734375 -0.515625 0.734375 -1.421875q0 -0.703125 -0.46875 -1.125q-0.46875 -0.421875 -1.515625 -0.65625l-2.234375 -0.453125q-1.53125 -0.34375 -2.3125 -1.140625q-0.765625 -0.8125 -0.765625 -2.046875q0 -1.0625 0.546875 -1.859375q0.5625 -0.8125 1.609375 -1.28125q1.0625 -0.46875 2.484375 -0.46875q1.3125 0 2.421875 0.40625q1.125 0.390625 1.875 1.125l-0.703125 1.34375q-0.71875 -0.6875 -1.640625 -1.03125q-0.921875 -0.359375 -1.90625 -0.359375q-1.421875 0 -2.125 0.578125q-0.703125 0.5625 -0.703125 1.46875q0 0.6875 0.4375 1.140625q0.4375 0.4375 1.375 0.65625l2.234375 0.453125q1.640625 0.359375 2.4375 1.125q0.8125 0.75 0.8125 2.015625q0 1.09375 -0.609375 1.90625q-0.59375 0.796875 -1.671875 1.234375q-1.0625 0.421875 -2.5 0.421875zm13.247711 0q-2.828125 0 -4.46875 -1.640625q-1.625 -1.65625 -1.625 -4.578125q0 -1.890625 0.71875 -3.296875q0.71875 -1.40625 2.015625 -2.1875q1.296875 -0.78125 2.96875 -0.78125q1.65625 0 2.78125 0.703125q1.140625 0.6875 1.734375 1.984375q0.59375 1.28125 0.59375 3.03125l0 0.71875l-9.328125 0l0 -1.234375l8.0625 0l-0.40625 0.3125q0 -1.90625 -0.875 -2.984375q-0.859375 -1.09375 -2.5625 -1.09375q-1.796875 0 -2.8125 1.265625q-1.0 1.265625 -1.0 3.390625l0 0.21875q0 2.25 1.109375 3.421875q1.125 1.15625 3.140625 1.15625q1.078125 0 2.015625 -0.3125q0.953125 -0.328125 1.828125 -1.078125l0.671875 1.375q-0.796875 0.765625 -2.015625 1.1875q-1.203125 0.421875 -2.546875 0.421875zm7.696594 -0.21875l0 -9.265625q0 -0.671875 -0.0625 -1.375q-0.046875 -0.71875 -0.125 -1.40625l1.875 0l0.234375 2.640625l-0.28125 0q0.53125 -1.390625 1.6875 -2.125q1.171875 -0.734375 2.703125 -0.734375q2.140625 0 3.21875 1.140625q1.09375 1.140625 1.09375 3.59375l0 7.53125l-1.9375 0l0 -7.421875q0 -1.703125 -0.6875 -2.484375q-0.6875 -0.78125 -2.125 -0.78125q-1.671875 0 -2.65625 1.046875q-0.984375 1.03125 -0.984375 2.75l0 6.890625l-1.953125 0zm18.345215 0.21875q-1.78125 0 -2.71875 -1.015625q-0.9375 -1.03125 -0.9375 -3.09375l0 -6.640625l-2.34375 0l0 -1.515625l2.34375 0l0 -3.296875l1.953125 -0.546875l0 3.84375l3.453125 0l0 1.515625l-3.453125 0l0 6.421875q0 1.453125 0.484375 2.0625q0.5 0.609375 1.484375 0.609375q0.453125 0 0.8125 -0.078125q0.359375 -0.09375 0.640625 -0.21875l0 1.640625q-0.328125 0.140625 -0.796875 0.21875q-0.46875 0.09375 -0.921875 0.09375zm8.712463 0q-1.609375 0 -2.8125 -0.75q-1.203125 -0.765625 -1.859375 -2.15625q-0.65625 -1.390625 -0.65625 -3.34375q0 -1.953125 0.65625 -3.34375q0.65625 -1.40625 1.859375 -2.140625q1.203125 -0.75 2.8125 -0.75q1.625 0 2.8125 0.828125q1.1875 0.828125 1.578125 2.25l-0.296875 0l0.265625 -2.859375l1.875 0q-0.078125 0.6875 -0.140625 1.40625q-0.046875 0.703125 -0.046875 1.375l0 9.265625l-1.953125 0l0 -2.828125l0.265625 0q-0.375 1.40625 -1.578125 2.234375q-1.203125 0.8125 -2.78125 0.8125zm0.375 -1.59375q1.734375 0 2.734375 -1.1875q1.015625 -1.1875 1.015625 -3.46875q0 -2.296875 -1.015625 -3.484375q-1.0 -1.1875 -2.734375 -1.1875q-1.703125 0 -2.71875 1.1875q-1.015625 1.1875 -1.015625 3.484375q0 2.28125 1.015625 3.46875q1.015625 1.1875 2.71875 1.1875zm13.712463 1.59375q-1.78125 0 -2.71875 -1.015625q-0.9375 -1.03125 -0.9375 -3.09375l0 -6.640625l-2.34375 0l0 -1.515625l2.34375 0l0 -3.296875l1.953125 -0.546875l0 3.84375l3.453125 0l0 1.515625l-3.453125 0l0 6.421875q0 1.453125 0.484375 2.0625q0.5 0.609375 1.484375 0.609375q0.453125 0 0.8125 -0.078125q0.359375 -0.09375 0.640625 -0.21875l0 1.640625q-0.328125 0.140625 -0.796875 0.21875q-0.46875 0.09375 -0.921875 0.09375zm4.118744 -0.21875l0 -12.046875l1.953125 0l0 12.046875l-1.953125 0zm-0.234375 -14.78125l0 -2.1875l2.40625 0l0 2.1875l-2.40625 0zm10.899506 15.0q-1.734375 0 -3.015625 -0.75q-1.28125 -0.765625 -1.984375 -2.171875q-0.6875 -1.40625 -0.6875 -3.328125q0 -1.9375 0.6875 -3.328125q0.703125 -1.390625 1.984375 -2.140625q1.28125 -0.765625 3.015625 -0.765625q1.75 0 3.03125 0.765625q1.28125 0.75 1.984375 2.140625q0.71875 1.390625 0.71875 3.328125q0 1.921875 -0.71875 3.328125q-0.703125 1.40625 -1.984375 2.171875q-1.28125 0.75 -3.03125 0.75zm0 -1.59375q1.71875 0 2.71875 -1.1875q1.015625 -1.1875 1.015625 -3.46875q0 -2.296875 -1.015625 -3.484375q-1.015625 -1.1875 -2.71875 -1.1875q-1.703125 0 -2.71875 1.1875q-1.0 1.1875 -1.0 3.484375q0 2.28125 1.0 3.46875q1.015625 1.1875 2.71875 1.1875zm8.750824 1.375l0 -9.265625q0 -0.671875 -0.0625 -1.375q-0.046875 -0.71875 -0.125 -1.40625l1.875 0l0.234375 2.640625l-0.28125 0q0.53125 -1.390625 1.6875 -2.125q1.171875 -0.734375 2.703125 -0.734375q2.140625 0 3.21875 1.140625q1.09375 1.140625 1.09375 3.59375l0 7.53125l-1.9375 0l0 -7.421875q0 -1.703125 -0.6875 -2.484375q-0.6875 -0.78125 -2.125 -0.78125q-1.671875 0 -2.65625 1.046875q-0.984375 1.03125 -0.984375 2.75l0 6.890625l-1.953125 0zm24.609222 0.21875q-1.78125 0 -2.71875 -1.015625q-0.9375 -1.03125 -0.9375 -3.09375l0 -6.640625l-2.34375 0l0 -1.515625l2.34375 0l0 -3.296875l1.953125 -0.546875l0 3.84375l3.453125 0l0 1.515625l-3.453125 0l0 6.421875q0 1.453125 0.484375 2.0625q0.5 0.609375 1.484375 0.609375q0.453125 0 0.8125 -0.078125q0.359375 -0.09375 0.640625 -0.21875l0 1.640625q-0.328125 0.140625 -0.796875 0.21875q-0.46875 0.09375 -0.921875 0.09375zm9.358093 0q-2.828125 0 -4.46875 -1.640625q-1.625 -1.65625 -1.625 -4.578125q0 -1.890625 0.71875 -3.296875q0.71875 -1.40625 2.015625 -2.1875q1.296875 -0.78125 2.96875 -0.78125q1.65625 0 2.78125 0.703125q1.140625 0.6875 1.734375 1.984375q0.59375 1.28125 0.59375 3.03125l0 0.71875l-9.328125 0l0 -1.234375l8.0625 0l-0.40625 0.3125q0 -1.90625 -0.875 -2.984375q-0.859375 -1.09375 -2.5625 -1.09375q-1.796875 0 -2.8125 1.265625q-1.0 1.265625 -1.0 3.390625l0 0.21875q0 2.25 1.109375 3.421875q1.125 1.15625 3.140625 1.15625q1.078125 0 2.015625 -0.3125q0.953125 -0.328125 1.828125 -1.078125l0.671875 1.375q-0.796875 0.765625 -2.015625 1.1875q-1.203125 0.421875 -2.546875 0.421875zm7.696594 -0.21875l0 -9.265625q0 -0.671875 -0.0625 -1.375q-0.046875 -0.71875 -0.125 -1.40625l1.875 0l0.234375 2.640625l-0.28125 0q0.484375 -1.375 1.515625 -2.109375q1.046875 -0.75 2.53125 -0.75q1.515625 0 2.453125 0.71875q0.953125 0.71875 1.296875 2.234375l-0.359375 0q0.453125 -1.375 1.609375 -2.15625q1.15625 -0.796875 2.6875 -0.796875q1.984375 0 2.984375 1.140625q1.015625 1.140625 1.015625 3.59375l0 7.53125l-1.9375 0l0 -7.421875q0 -1.703125 -0.609375 -2.484375q-0.59375 -0.78125 -1.90625 -0.78125q-1.515625 0 -2.390625 1.046875q-0.875 1.046875 -0.875 2.796875l0 6.84375l-1.953125 0l0 -7.421875q0 -1.703125 -0.59375 -2.484375q-0.59375 -0.78125 -1.921875 -0.78125q-1.515625 0 -2.375 1.046875q-0.859375 1.046875 -0.859375 2.796875l0 6.84375l-1.953125 0zm21.07196 5.1875l0 -14.453125q0 -0.671875 -0.0625 -1.375q-0.046875 -0.71875 -0.125 -1.40625l1.875 0l0.265625 2.859375l-0.296875 0q0.390625 -1.421875 1.5625 -2.25q1.171875 -0.828125 2.8125 -0.828125q1.625 0 2.8125 0.75q1.1875 0.734375 1.859375 2.140625q0.671875 1.390625 0.671875 3.34375q0 1.953125 -0.65625 3.34375q-0.65625 1.390625 -1.859375 2.15625q-1.203125 0.75 -2.828125 0.75q-1.609375 0 -2.796875 -0.8125q-1.171875 -0.828125 -1.546875 -2.234375l0.265625 0l0 8.015625l-1.953125 0zm5.640625 -6.5625q1.734375 0 2.75 -1.1875q1.015625 -1.1875 1.015625 -3.46875q0 -2.296875 -1.015625 -3.484375q-1.015625 -1.1875 -2.75 -1.1875q-1.703125 0 -2.71875 1.1875q-1.015625 1.1875 -1.015625 3.484375q0 2.28125 1.015625 3.46875q1.015625 1.1875 2.71875 1.1875zm8.759277 1.375l0 -17.65625l1.953125 0l0 17.65625l-1.953125 0zm10.305725 0.21875q-1.609375 0 -2.8125 -0.75q-1.203125 -0.765625 -1.859375 -2.15625q-0.65625 -1.390625 -0.65625 -3.34375q0 -1.953125 0.65625 -3.34375q0.65625 -1.40625 1.859375 -2.140625q1.203125 -0.75 2.8125 -0.75q1.625 0 2.8125 0.828125q1.1875 0.828125 1.578125 2.25l-0.296875 0l0.265625 -2.859375l1.875 0q-0.078125 0.6875 -0.140625 1.40625q-0.046875 0.703125 -0.046875 1.375l0 9.265625l-1.953125 0l0 -2.828125l0.265625 0q-0.375 1.40625 -1.578125 2.234375q-1.203125 0.8125 -2.78125 0.8125zm0.375 -1.59375q1.734375 0 2.734375 -1.1875q1.015625 -1.1875 1.015625 -3.46875q0 -2.296875 -1.015625 -3.484375q-1.0 -1.1875 -2.734375 -1.1875q-1.703125 0 -2.71875 1.1875q-1.015625 1.1875 -1.015625 3.484375q0 2.28125 1.015625 3.46875q1.015625 1.1875 2.71875 1.1875zm13.712463 1.59375q-1.78125 0 -2.71875 -1.015625q-0.9375 -1.03125 -0.9375 -3.09375l0 -6.640625l-2.34375 0l0 -1.515625l2.34375 0l0 -3.296875l1.953125 -0.546875l0 3.84375l3.453125 0l0 1.515625l-3.453125 0l0 6.421875q0 1.453125 0.484375 2.0625q0.5 0.609375 1.484375 0.609375q0.453125 0 0.8125 -0.078125q0.359375 -0.09375 0.640625 -0.21875l0 1.640625q-0.328125 0.140625 -0.796875 0.21875q-0.46875 0.09375 -0.921875 0.09375zm9.358093 0q-2.828125 0 -4.46875 -1.640625q-1.625 -1.65625 -1.625 -4.578125q0 -1.890625 0.71875 -3.296875q0.71875 -1.40625 2.015625 -2.1875q1.296875 -0.78125 2.96875 -0.78125q1.65625 0 2.78125 0.703125q1.140625 0.6875 1.734375 1.984375q0.59375 1.28125 0.59375 3.03125l0 0.71875l-9.328125 0l0 -1.234375l8.0625 0l-0.40625 0.3125q0 -1.90625 -0.875 -2.984375q-0.859375 -1.09375 -2.5625 -1.09375q-1.796875 0 -2.8125 1.265625q-1.0 1.265625 -1.0 3.390625l0 0.21875q0 2.25 1.109375 3.421875q1.125 1.15625 3.140625 1.15625q1.078125 0 2.015625 -0.3125q0.953125 -0.328125 1.828125 -1.078125l0.671875 1.375q-0.796875 0.765625 -2.015625 1.1875q-1.203125 0.421875 -2.546875 0.421875zm17.179321 -0.21875l-4.46875 -12.046875l2.078125 0l3.71875 10.609375l-0.625 0l3.828125 -10.609375l1.6875 0l3.765625 10.609375l-0.59375 0l3.734375 -10.609375l1.96875 0l-4.484375 12.046875l-1.875 0l-3.890625 -10.78125l0.96875 0l-3.90625 10.78125l-1.90625 0zm21.990967 0.21875q-1.609375 0 -2.8125 -0.75q-1.203125 -0.765625 -1.859375 -2.15625q-0.65625 -1.390625 -0.65625 -3.34375q0 -1.953125 0.65625 -3.34375q0.65625 -1.40625 1.859375 -2.140625q1.203125 -0.75 2.8125 -0.75q1.625 0 2.8125 0.828125q1.1875 0.828125 1.578125 2.25l-0.296875 0l0.265625 -2.859375l1.875 0q-0.078125 0.6875 -0.140625 1.40625q-0.046875 0.703125 -0.046875 1.375l0 9.265625l-1.953125 0l0 -2.828125l0.265625 0q-0.375 1.40625 -1.578125 2.234375q-1.203125 0.8125 -2.78125 0.8125zm0.375 -1.59375q1.734375 0 2.734375 -1.1875q1.015625 -1.1875 1.015625 -3.46875q0 -2.296875 -1.015625 -3.484375q-1.0 -1.1875 -2.734375 -1.1875q-1.703125 0 -2.71875 1.1875q-1.015625 1.1875 -1.015625 3.484375q0 2.28125 1.015625 3.46875q1.015625 1.1875 2.71875 1.1875zm13.446838 1.59375q-1.4375 0 -2.6875 -0.390625q-1.25 -0.40625 -2.0625 -1.125l0.671875 -1.359375q0.890625 0.6875 1.921875 1.03125q1.046875 0.328125 2.171875 0.328125q1.453125 0 2.171875 -0.515625q0.734375 -0.515625 0.734375 -1.421875q0 -0.703125 -0.46875 -1.125q-0.46875 -0.421875 -1.515625 -0.65625l-2.234375 -0.453125q-1.53125 -0.34375 -2.3125 -1.140625q-0.765625 -0.8125 -0.765625 -2.046875q0 -1.0625 0.546875 -1.859375q0.5625 -0.8125 1.609375 -1.28125q1.0625 -0.46875 2.484375 -0.46875q1.3125 0 2.421875 0.40625q1.125 0.390625 1.875 1.125l-0.703125 1.34375q-0.71875 -0.6875 -1.640625 -1.03125q-0.921875 -0.359375 -1.90625 -0.359375q-1.421875 0 -2.125 0.578125q-0.703125 0.5625 -0.703125 1.46875q0 0.6875 0.4375 1.140625q0.4375 0.4375 1.375 0.65625l2.234375 0.453125q1.640625 0.359375 2.4375 1.125q0.8125 0.75 0.8125 2.015625q0 1.09375 -0.609375 1.90625q-0.59375 0.796875 -1.671875 1.234375q-1.0625 0.421875 -2.5 0.421875zm19.214783 0q-1.765625 0 -3.078125 -0.765625q-1.3125 -0.765625 -2.015625 -2.1875q-0.703125 -1.421875 -0.703125 -3.359375q0 -1.96875 0.71875 -3.34375q0.71875 -1.390625 2.015625 -2.109375q1.3125 -0.71875 3.0625 -0.71875q1.15625 0 2.25 0.40625q1.09375 0.40625 1.8125 1.15625l-0.703125 1.390625q-0.71875 -0.703125 -1.578125 -1.03125q-0.84375 -0.34375 -1.65625 -0.34375q-1.875 0 -2.90625 1.1875q-1.03125 1.171875 -1.03125 3.421875q0 2.234375 1.03125 3.46875q1.03125 1.21875 2.90625 1.21875q0.796875 0 1.640625 -0.3125q0.859375 -0.3125 1.59375 -1.03125l0.703125 1.359375q-0.75 0.78125 -1.859375 1.1875q-1.09375 0.40625 -2.203125 0.40625zm6.770569 -0.21875l0 -9.140625q0 -0.71875 -0.03125 -1.46875q-0.03125 -0.75 -0.109375 -1.4375l1.875 0l0.234375 2.921875l-0.328125 0.03125q0.234375 -1.078125 0.828125 -1.765625q0.609375 -0.703125 1.421875 -1.046875q0.8125 -0.359375 1.703125 -0.359375q0.359375 0 0.640625 0.03125q0.28125 0.015625 0.515625 0.109375l-0.03125 1.734375q-0.359375 -0.125 -0.65625 -0.15625q-0.296875 -0.03125 -0.6875 -0.03125q-1.046875 0 -1.828125 0.5q-0.78125 0.5 -1.1875 1.296875q-0.390625 0.796875 -0.390625 1.671875l0 7.109375l-1.96875 0zm13.974243 0.21875q-2.828125 0 -4.46875 -1.640625q-1.625 -1.65625 -1.625 -4.578125q0 -1.890625 0.71875 -3.296875q0.71875 -1.40625 2.015625 -2.1875q1.296875 -0.78125 2.96875 -0.78125q1.65625 0 2.78125 0.703125q1.140625 0.6875 1.734375 1.984375q0.59375 1.28125 0.59375 3.03125l0 0.71875l-9.328125 0l0 -1.234375l8.0625 0l-0.40625 0.3125q0 -1.90625 -0.875 -2.984375q-0.859375 -1.09375 -2.5625 -1.09375q-1.796875 0 -2.8125 1.265625q-1.0 1.265625 -1.0 3.390625l0 0.21875q0 2.25 1.109375 3.421875q1.125 1.15625 3.140625 1.15625q1.078125 0 2.015625 -0.3125q0.953125 -0.328125 1.828125 -1.078125l0.671875 1.375q-0.796875 0.765625 -2.015625 1.1875q-1.203125 0.421875 -2.546875 0.421875zm12.290344 0q-1.609375 0 -2.8125 -0.75q-1.203125 -0.765625 -1.859375 -2.15625q-0.65625 -1.390625 -0.65625 -3.34375q0 -1.953125 0.65625 -3.34375q0.65625 -1.40625 1.859375 -2.140625q1.203125 -0.75 2.8125 -0.75q1.625 0 2.8125 0.828125q1.1875 0.828125 1.578125 2.25l-0.296875 0l0.265625 -2.859375l1.875 0q-0.078125 0.6875 -0.140625 1.40625q-0.046875 0.703125 -0.046875 1.375l0 9.265625l-1.953125 0l0 -2.828125l0.265625 0q-0.375 1.40625 -1.578125 2.234375q-1.203125 0.8125 -2.78125 0.8125zm0.375 -1.59375q1.734375 0 2.734375 -1.1875q1.015625 -1.1875 1.015625 -3.46875q0 -2.296875 -1.015625 -3.484375q-1.0 -1.1875 -2.734375 -1.1875q-1.703125 0 -2.71875 1.1875q-1.015625 1.1875 -1.015625 3.484375q0 2.28125 1.015625 3.46875q1.015625 1.1875 2.71875 1.1875zm13.712463 1.59375q-1.78125 0 -2.71875 -1.015625q-0.9375 -1.03125 -0.9375 -3.09375l0 -6.640625l-2.34375 0l0 -1.515625l2.34375 0l0 -3.296875l1.953125 -0.546875l0 3.84375l3.453125 0l0 1.515625l-3.453125 0l0 6.421875q0 1.453125 0.484375 2.0625q0.5 0.609375 1.484375 0.609375q0.453125 0 0.8125 -0.078125q0.359375 -0.09375 0.640625 -0.21875l0 1.640625q-0.328125 0.140625 -0.796875 0.21875q-0.46875 0.09375 -0.921875 0.09375zm9.358093 0q-2.828125 0 -4.46875 -1.640625q-1.625 -1.65625 -1.625 -4.578125q0 -1.890625 0.71875 -3.296875q0.71875 -1.40625 2.015625 -2.1875q1.296875 -0.78125 2.96875 -0.78125q1.65625 0 2.78125 0.703125q1.140625 0.6875 1.734375 1.984375q0.59375 1.28125 0.59375 3.03125l0 0.71875l-9.328125 0l0 -1.234375l8.0625 0l-0.40625 0.3125q0 -1.90625 -0.875 -2.984375q-0.859375 -1.09375 -2.5625 -1.09375q-1.796875 0 -2.8125 1.265625q-1.0 1.265625 -1.0 3.390625l0 0.21875q0 2.25 1.109375 3.421875q1.125 1.15625 3.140625 1.15625q1.078125 0 2.015625 -0.3125q0.953125 -0.328125 1.828125 -1.078125l0.671875 1.375q-0.796875 0.765625 -2.015625 1.1875q-1.203125 0.421875 -2.546875 0.421875zm12.259094 0q-1.578125 0 -2.78125 -0.75q-1.203125 -0.765625 -1.859375 -2.15625q-0.65625 -1.390625 -0.65625 -3.34375q0 -1.953125 0.65625 -3.34375q0.65625 -1.40625 1.859375 -2.140625q1.203125 -0.75 2.78125 -0.75q1.640625 0 2.828125 0.828125q1.1875 0.8125 1.59375 2.203125l-0.296875 0l0 -8.421875l1.953125 0l0 17.65625l-1.921875 0l0 -2.875l0.265625 0q-0.390625 1.4375 -1.59375 2.265625q-1.1875 0.828125 -2.828125 0.828125zm0.40625 -1.59375q1.703125 0 2.734375 -1.1875q1.03125 -1.1875 1.03125 -3.46875q0 -2.296875 -1.03125 -3.484375q-1.03125 -1.1875 -2.734375 -1.1875q-1.703125 0 -2.71875 1.1875q-1.015625 1.1875 -1.015625 3.484375q0 2.28125 1.015625 3.46875q1.015625 1.1875 2.71875 1.1875zm21.742065 1.59375q-1.625 0 -2.8125 -0.828125q-1.171875 -0.828125 -1.578125 -2.265625l0.265625 0l0 2.875l-1.921875 0l0 -17.65625l1.953125 0l0 8.421875l-0.296875 0q0.40625 -1.390625 1.578125 -2.203125q1.1875 -0.828125 2.8125 -0.828125q1.640625 0 2.828125 0.765625q1.1875 0.75 1.84375 2.140625q0.65625 1.390625 0.65625 3.328125q0 1.953125 -0.671875 3.34375q-0.671875 1.390625 -1.859375 2.15625q-1.1875 0.75 -2.796875 0.75zm-0.40625 -1.59375q1.703125 0 2.734375 -1.171875q1.03125 -1.171875 1.03125 -3.484375q0 -2.296875 -1.03125 -3.484375q-1.03125 -1.1875 -2.734375 -1.1875q-1.703125 0 -2.71875 1.1875q-1.015625 1.1875 -1.015625 3.484375q0 2.28125 1.015625 3.46875q1.015625 1.1875 2.71875 1.1875zm8.12262 6.828125l-0.46875 -1.609375q1.140625 -0.265625 1.890625 -0.625q0.75 -0.34375 1.25 -0.921875q0.515625 -0.5625 0.875 -1.4375l0.625 -1.40625l-0.046875 0.8125l-5.265625 -12.3125l2.125 0l4.34375 10.578125l-0.625 0l4.296875 -10.578125l2.03125 0l-5.5625 13.0625q-0.484375 1.140625 -1.0625 1.921875q-0.578125 0.78125 -1.234375 1.265625q-0.65625 0.5 -1.453125 0.78125q-0.78125 0.296875 -1.71875 0.46875z" fill-rule="nonzero"/><path fill="#000000" fill-opacity="0.0" d="m795.61 604.038l97.19971 0l0 30.119873l-97.19971 0l0 -30.119873z" fill-rule="nonzero"/><path fill="#173505" d="m803.39124 628.39233q-2.046875 0 -3.765625 -0.515625q-1.71875 -0.515625 -2.9375 -1.421875l0.96875 -2.421875q0.8125 0.578125 1.6875 0.96875q0.890625 0.390625 1.890625 0.59375q1.015625 0.203125 2.15625 0.203125q1.890625 0 2.734375 -0.609375q0.84375 -0.625 0.84375 -1.640625q0 -0.890625 -0.578125 -1.359375q-0.578125 -0.46875 -2.0625 -0.78125l-2.71875 -0.546875q-2.328125 -0.484375 -3.484375 -1.609375q-1.140625 -1.125 -1.140625 -3.015625q0 -1.59375 0.828125 -2.765625q0.84375 -1.171875 2.359375 -1.8125q1.515625 -0.65625 3.53125 -0.65625q1.796875 0 3.328125 0.515625q1.53125 0.515625 2.5625 1.46875l-0.953125 2.3125q-1.03125 -0.875 -2.265625 -1.28125q-1.21875 -0.421875 -2.71875 -0.421875q-1.703125 0 -2.65625 0.65625q-0.953125 0.65625 -0.953125 1.8125q0 0.890625 0.578125 1.421875q0.59375 0.515625 2.015625 0.8125l2.6875 0.515625q2.40625 0.484375 3.546875 1.578125q1.15625 1.09375 1.15625 2.9375q0 1.515625 -0.8125 2.65625q-0.8125 1.140625 -2.3125 1.78125q-1.484375 0.625 -3.515625 0.625zm9.32373 -0.234375l0 -17.65625l3.0 0l0 17.65625l-3.0 0zm6.263916 0l0 -12.125l3.0 0l0 12.125l-3.0 0zm-0.15625 -14.40625l0 -2.921875l3.328125 0l0 2.921875l-3.328125 0zm11.139038 14.640625q-1.59375 0 -2.8125 -0.75q-1.203125 -0.75 -1.875 -2.171875q-0.671875 -1.421875 -0.671875 -3.390625q0 -1.96875 0.671875 -3.359375q0.671875 -1.40625 1.875 -2.15625q1.21875 -0.765625 2.8125 -0.765625q1.5 0 2.65625 0.734375q1.171875 0.734375 1.5625 1.984375l-0.3125 0l0 -8.015625l3.0 0l0 17.65625l-2.953125 0l0 -2.5625l0.28125 0q-0.375 1.296875 -1.546875 2.046875q-1.15625 0.75 -2.6875 0.75zm0.828125 -2.296875q1.421875 0 2.28125 -1.0q0.859375 -1.0 0.859375 -3.015625q0 -2.015625 -0.859375 -3.0q-0.859375 -0.984375 -2.28125 -0.984375q-1.40625 0 -2.28125 0.984375q-0.875 0.984375 -0.875 3.0q0 2.015625 0.875 3.015625q0.875 1.0 2.28125 1.0zm15.192444 2.296875q-3.046875 0 -4.78125 -1.671875q-1.71875 -1.6875 -1.71875 -4.609375q0 -1.890625 0.734375 -3.3125q0.75 -1.421875 2.078125 -2.203125q1.34375 -0.796875 3.109375 -0.796875q1.75 0 2.921875 0.75q1.1875 0.734375 1.796875 2.078125q0.609375 1.34375 0.609375 3.140625l0 0.796875l-8.828125 0l0 -1.578125l6.703125 0l-0.40625 0.328125q0 -1.671875 -0.71875 -2.5625q-0.703125 -0.890625 -2.046875 -0.890625q-1.484375 0 -2.296875 1.0625q-0.796875 1.046875 -0.796875 2.953125l0 0.3125q0 1.953125 0.96875 2.9375q0.96875 0.96875 2.75 0.96875q1.03125 0 1.921875 -0.265625q0.90625 -0.28125 1.71875 -0.90625l0.890625 2.015625q-0.859375 0.6875 -2.0625 1.078125q-1.203125 0.375 -2.546875 0.375zm11.6206665 0q-1.5625 0 -2.875 -0.359375q-1.296875 -0.375 -2.1875 -1.046875l0.84375 -2.015625q0.90625 0.625 2.0 0.96875q1.109375 0.328125 2.234375 0.328125q1.203125 0 1.796875 -0.40625q0.59375 -0.421875 0.59375 -1.109375q0 -0.546875 -0.375 -0.875q-0.375 -0.328125 -1.1875 -0.5l-2.40625 -0.453125q-1.53125 -0.328125 -2.34375 -1.140625q-0.796875 -0.828125 -0.796875 -2.140625q0 -1.125 0.609375 -1.984375q0.609375 -0.875 1.75 -1.359375q1.140625 -0.5 2.671875 -0.5q1.34375 0 2.53125 0.359375q1.203125 0.359375 2.015625 1.078125l-0.875 1.953125q-0.734375 -0.609375 -1.703125 -0.9375q-0.953125 -0.34375 -1.859375 -0.34375q-1.25 0 -1.828125 0.453125q-0.578125 0.4375 -0.578125 1.140625q0 0.515625 0.34375 0.875q0.359375 0.34375 1.09375 0.515625l2.40625 0.453125q1.609375 0.3125 2.4375 1.09375q0.828125 0.78125 0.828125 2.125q0 1.1875 -0.65625 2.0625q-0.640625 0.859375 -1.796875 1.3125q-1.15625 0.453125 -2.6875 0.453125zm13.320862 5.140625q-1.6875 0 -3.046875 -0.359375q-1.34375 -0.359375 -2.40625 -1.109375l0.65625 -2.15625q0.6875 0.453125 1.421875 0.734375q0.75 0.296875 1.546875 0.4375q0.796875 0.15625 1.609375 0.15625q1.6875 0 2.515625 -0.828125q0.828125 -0.828125 0.828125 -2.375l0 -2.90625l0.234375 0q-0.390625 1.25 -1.5625 2.0q-1.15625 0.75 -2.65625 0.75q-1.640625 0 -2.859375 -0.734375q-1.203125 -0.734375 -1.875 -2.09375q-0.671875 -1.375 -0.671875 -3.234375q0 -1.84375 0.671875 -3.1875q0.671875 -1.359375 1.875 -2.09375q1.21875 -0.734375 2.859375 -0.734375q1.53125 0 2.671875 0.734375q1.140625 0.734375 1.515625 1.984375l-0.203125 -0.15625l0.234375 -2.328125l2.90625 0q-0.09375 0.75 -0.15625 1.515625q-0.046875 0.765625 -0.046875 1.515625l0 8.609375q0 2.859375 -1.546875 4.359375q-1.546875 1.5 -4.515625 1.5zm-0.046875 -7.96875q1.4375 0 2.28125 -0.96875q0.859375 -0.96875 0.859375 -2.78125q0 -1.796875 -0.859375 -2.75q-0.84375 -0.96875 -2.28125 -0.96875q-1.46875 0 -2.328125 0.96875q-0.859375 0.953125 -0.859375 2.75q0 1.8125 0.859375 2.78125q0.859375 0.96875 2.328125 0.96875zm14.8342285 2.828125q-1.875 0 -3.25 -0.765625q-1.359375 -0.765625 -2.125 -2.171875q-0.75 -1.421875 -0.75 -3.375q0 -1.9375 0.75 -3.34375q0.765625 -1.40625 2.125 -2.171875q1.375 -0.765625 3.25 -0.765625q1.859375 0 3.234375 0.765625q1.390625 0.765625 2.140625 2.171875q0.765625 1.40625 0.765625 3.34375q0 1.953125 -0.765625 3.375q-0.75 1.40625 -2.140625 2.171875q-1.375 0.765625 -3.234375 0.765625zm0 -2.296875q1.40625 0 2.25 -1.0q0.84375 -1.0 0.84375 -3.015625q0 -2.015625 -0.84375 -3.0q-0.84375 -0.984375 -2.25 -0.984375q-1.421875 0 -2.265625 0.984375q-0.828125 0.984375 -0.828125 3.0q0 2.015625 0.828125 3.015625q0.84375 1.0 2.265625 1.0z" fill-rule="nonzero"/><path fill="#173505" d="m895.3253 630.89233l-0.90625 -0.6875q0.640625 -0.671875 0.84375 -1.265625q0.203125 -0.59375 0.203125 -1.1875l0.4375 0.40625l-1.578125 0l0 -2.453125l2.4375 0l0 1.734375q0 0.953125 -0.3125 1.796875q-0.296875 0.859375 -1.125 1.65625zm15.704712 -2.515625q-1.609375 0 -2.8125 -0.75q-1.203125 -0.765625 -1.859375 -2.15625q-0.65625 -1.390625 -0.65625 -3.34375q0 -1.953125 0.65625 -3.34375q0.65625 -1.40625 1.859375 -2.140625q1.203125 -0.75 2.8125 -0.75q1.625 0 2.8125 0.828125q1.1875 0.828125 1.578125 2.25l-0.296875 0l0.265625 -2.859375l1.875 0q-0.078125 0.6875 -0.140625 1.40625q-0.046875 0.703125 -0.046875 1.375l0 9.265625l-1.953125 0l0 -2.828125l0.265625 0q-0.375 1.40625 -1.578125 2.234375q-1.203125 0.8125 -2.78125 0.8125zm0.375 -1.59375q1.734375 0 2.734375 -1.1875q1.015625 -1.1875 1.015625 -3.46875q0 -2.296875 -1.015625 -3.484375q-1.0 -1.1875 -2.734375 -1.1875q-1.703125 0 -2.71875 1.1875q-1.015625 1.1875 -1.015625 3.484375q0 2.28125 1.015625 3.46875q1.015625 1.1875 2.71875 1.1875zm9.431213 1.375l0 -9.265625q0 -0.671875 -0.0625 -1.375q-0.046875 -0.71875 -0.125 -1.40625l1.875 0l0.234375 2.640625l-0.28125 0q0.53125 -1.390625 1.6875 -2.125q1.171875 -0.734375 2.703125 -0.734375q2.140625 0 3.21875 1.140625q1.09375 1.140625 1.09375 3.59375l0 7.53125l-1.9375 0l0 -7.421875q0 -1.703125 -0.6875 -2.484375q-0.6875 -0.78125 -2.125 -0.78125q-1.671875 0 -2.65625 1.046875q-0.984375 1.03125 -0.984375 2.75l0 6.890625l-1.953125 0zm18.626465 0.21875q-1.578125 0 -2.78125 -0.75q-1.203125 -0.765625 -1.859375 -2.15625q-0.65625 -1.390625 -0.65625 -3.34375q0 -1.953125 0.65625 -3.34375q0.65625 -1.40625 1.859375 -2.140625q1.203125 -0.75 2.78125 -0.75q1.640625 0 2.828125 0.828125q1.1875 0.8125 1.59375 2.203125l-0.296875 0l0 -8.421875l1.953125 0l0 17.65625l-1.921875 0l0 -2.875l0.265625 0q-0.390625 1.4375 -1.59375 2.265625q-1.1875 0.828125 -2.828125 0.828125zm0.40625 -1.59375q1.703125 0 2.734375 -1.1875q1.03125 -1.1875 1.03125 -3.46875q0 -2.296875 -1.03125 -3.484375q-1.03125 -1.1875 -2.734375 -1.1875q-1.703125 0 -2.71875 1.1875q-1.015625 1.1875 -1.015625 3.484375q0 2.28125 1.015625 3.46875q1.015625 1.1875 2.71875 1.1875zm15.69519 1.375l0 -12.046875l1.953125 0l0 12.046875l-1.953125 0zm-0.234375 -14.78125l0 -2.1875l2.40625 0l0 2.1875l-2.40625 0zm5.94635 14.78125l0 -9.265625q0 -0.671875 -0.0625 -1.375q-0.046875 -0.71875 -0.125 -1.40625l1.875 0l0.234375 2.640625l-0.28125 0q0.53125 -1.390625 1.6875 -2.125q1.171875 -0.734375 2.703125 -0.734375q2.140625 0 3.21875 1.140625q1.09375 1.140625 1.09375 3.59375l0 7.53125l-1.9375 0l0 -7.421875q0 -1.703125 -0.6875 -2.484375q-0.6875 -0.78125 -2.125 -0.78125q-1.671875 0 -2.65625 1.046875q-0.984375 1.03125 -0.984375 2.75l0 6.890625l-1.953125 0zm19.126465 0.21875q-1.765625 0 -3.078125 -0.765625q-1.3125 -0.765625 -2.015625 -2.1875q-0.703125 -1.421875 -0.703125 -3.359375q0 -1.96875 0.71875 -3.34375q0.71875 -1.390625 2.015625 -2.109375q1.3125 -0.71875 3.0625 -0.71875q1.15625 0 2.25 0.40625q1.09375 0.40625 1.8125 1.15625l-0.703125 1.390625q-0.71875 -0.703125 -1.578125 -1.03125q-0.84375 -0.34375 -1.65625 -0.34375q-1.875 0 -2.90625 1.1875q-1.03125 1.171875 -1.03125 3.421875q0 2.234375 1.03125 3.46875q1.03125 1.21875 2.90625 1.21875q0.796875 0 1.640625 -0.3125q0.859375 -0.3125 1.59375 -1.03125l0.703125 1.359375q-0.75 0.78125 -1.859375 1.1875q-1.09375 0.40625 -2.203125 0.40625zm6.817505 -0.21875l0 -17.65625l1.953125 0l0 17.65625l-1.953125 0zm9.961975 0.21875q-2.125 0 -3.21875 -1.171875q-1.09375 -1.1875 -1.09375 -3.609375l0 -7.484375l1.9375 0l0 7.4375q0 1.65625 0.671875 2.4375q0.671875 0.78125 2.09375 0.78125q1.578125 0 2.53125 -1.03125q0.96875 -1.03125 0.96875 -2.765625l0 -6.859375l1.9375 0l0 12.046875l-1.890625 0l0 -2.71875l0.3125 0q-0.5 1.40625 -1.625 2.171875q-1.109375 0.765625 -2.625 0.765625zm14.160461 0q-1.578125 0 -2.78125 -0.75q-1.203125 -0.765625 -1.859375 -2.15625q-0.65625 -1.390625 -0.65625 -3.34375q0 -1.953125 0.65625 -3.34375q0.65625 -1.40625 1.859375 -2.140625q1.203125 -0.75 2.78125 -0.75q1.640625 0 2.828125 0.828125q1.1875 0.8125 1.59375 2.203125l-0.296875 0l0 -8.421875l1.953125 0l0 17.65625l-1.921875 0l0 -2.875l0.265625 0q-0.390625 1.4375 -1.59375 2.265625q-1.1875 0.828125 -2.828125 0.828125zm0.40625 -1.59375q1.703125 0 2.734375 -1.1875q1.03125 -1.1875 1.03125 -3.46875q0 -2.296875 -1.03125 -3.484375q-1.03125 -1.1875 -2.734375 -1.1875q-1.703125 0 -2.71875 1.1875q-1.015625 1.1875 -1.015625 3.484375q0 2.28125 1.015625 3.46875q1.015625 1.1875 2.71875 1.1875zm14.790649 1.59375q-2.828186 0 -4.468811 -1.640625q-1.625 -1.65625 -1.625 -4.578125q0 -1.890625 0.71875 -3.296875q0.71875 -1.40625 2.015625 -2.1875q1.296936 -0.78125 2.968811 -0.78125q1.65625 0 2.78125 0.703125q1.140625 0.6875 1.734375 1.984375q0.59375 1.28125 0.59375 3.03125l0 0.71875l-9.328186 0l0 -1.234375l8.062561 0l-0.40625 0.3125q0 -1.90625 -0.875 -2.984375q-0.859375 -1.09375 -2.5625 -1.09375q-1.796875 0 -2.812561 1.265625q-1.0 1.265625 -1.0 3.390625l0 0.21875q0 2.25 1.109375 3.421875q1.125061 1.15625 3.140686 1.15625q1.078125 0 2.015625 -0.3125q0.953125 -0.328125 1.828125 -1.078125l0.671875 1.375q-0.796875 0.765625 -2.015625 1.1875q-1.203125 0.421875 -2.546875 0.421875zm11.712158 0q-1.4375 0 -2.6875 -0.390625q-1.25 -0.40625 -2.0625 -1.125l0.671875 -1.359375q0.890625 0.6875 1.921875 1.03125q1.046875 0.328125 2.171875 0.328125q1.453125 0 2.171875 -0.515625q0.734375 -0.515625 0.734375 -1.421875q0 -0.703125 -0.46875 -1.125q-0.46875 -0.421875 -1.515625 -0.65625l-2.234375 -0.453125q-1.53125 -0.34375 -2.3125 -1.140625q-0.765625 -0.8125 -0.765625 -2.046875q0 -1.0625 0.546875 -1.859375q0.5625 -0.8125 1.609375 -1.28125q1.0625 -0.46875 2.484375 -0.46875q1.3125 0 2.421875 0.40625q1.125 0.390625 1.875 1.125l-0.703125 1.34375q-0.71875 -0.6875 -1.640625 -1.03125q-0.921875 -0.359375 -1.90625 -0.359375q-1.421875 0 -2.125 0.578125q-0.703125 0.5625 -0.703125 1.46875q0 0.6875 0.4375 1.140625q0.4375 0.4375 1.375 0.65625l2.234375 0.453125q1.640625 0.359375 2.4375 1.125q0.8125 0.75 0.8125 2.015625q0 1.09375 -0.609375 1.90625q-0.59375 0.796875 -1.671875 1.234375q-1.0625 0.421875 -2.5 0.421875z" fill-rule="nonzero"/><path fill="#173505" d="m795.61 629.71796l97.19971 0l0 2.1599731l-97.19971 0l0 -2.1599731z" fill-rule="nonzero"/><path fill="#173505" d="m203.55031 656.4913l0 -12.046875l1.953125 0l0 12.046875l-1.953125 0zm-0.234375 -14.78125l0 -2.1875l2.40625 0l0 2.1875l-2.40625 0zm11.008865 15.0q-1.765625 0 -3.078125 -0.765625q-1.3125 -0.765625 -2.015625 -2.1875q-0.703125 -1.421875 -0.703125 -3.359375q0 -1.96875 0.71875 -3.34375q0.71875 -1.390625 2.015625 -2.109375q1.3125 -0.71875 3.0625 -0.71875q1.15625 0 2.25 0.40625q1.09375 0.40625 1.8125 1.15625l-0.703125 1.390625q-0.71875 -0.703125 -1.578125 -1.03125q-0.84375 -0.34375 -1.65625 -0.34375q-1.875 0 -2.90625 1.1875q-1.03125 1.171875 -1.03125 3.421875q0 2.234375 1.03125 3.46875q1.03125 1.21875 2.90625 1.21875q0.796875 0 1.640625 -0.3125q0.859375 -0.3125 1.59375 -1.03125l0.703125 1.359375q-0.75 0.78125 -1.859375 1.1875q-1.09375 0.40625 -2.203125 0.40625zm11.530579 0q-1.734375 0 -3.015625 -0.75q-1.28125 -0.765625 -1.984375 -2.171875q-0.6875 -1.40625 -0.6875 -3.328125q0 -1.9375 0.6875 -3.328125q0.703125 -1.390625 1.984375 -2.140625q1.28125 -0.765625 3.015625 -0.765625q1.75 0 3.03125 0.765625q1.28125 0.75 1.984375 2.140625q0.71875 1.390625 0.71875 3.328125q0 1.921875 -0.71875 3.328125q-0.703125 1.40625 -1.984375 2.171875q-1.28125 0.75 -3.03125 0.75zm0 -1.59375q1.71875 0 2.71875 -1.1875q1.015625 -1.1875 1.015625 -3.46875q0 -2.296875 -1.015625 -3.484375q-1.015625 -1.1875 -2.71875 -1.1875q-1.703125 0 -2.71875 1.1875q-1.0 1.1875 -1.0 3.484375q0 2.28125 1.0 3.46875q1.015625 1.1875 2.71875 1.1875zm8.750839 1.375l0 -9.265625q0 -0.671875 -0.0625 -1.375q-0.046875 -0.71875 -0.125 -1.40625l1.875 0l0.234375 2.640625l-0.28125 0q0.53125 -1.390625 1.6875 -2.125q1.171875 -0.734375 2.703125 -0.734375q2.140625 0 3.21875 1.140625q1.09375 1.140625 1.09375 3.59375l0 7.53125l-1.9375 0l0 -7.421875q0 -1.703125 -0.6875 -2.484375q-0.6875 -0.78125 -2.125 -0.78125q-1.671875 0 -2.65625 1.046875q-0.984375 1.03125 -0.984375 2.75l0 6.890625l-1.953125 0zm18.07959 0.21875q-1.4375 0 -2.6875 -0.390625q-1.25 -0.40625 -2.0625 -1.125l0.671875 -1.359375q0.890625 0.6875 1.921875 1.03125q1.046875 0.328125 2.171875 0.328125q1.453125 0 2.171875 -0.515625q0.734375 -0.515625 0.734375 -1.421875q0 -0.703125 -0.46875 -1.125q-0.46875 -0.421875 -1.515625 -0.65625l-2.234375 -0.453125q-1.53125 -0.34375 -2.3125 -1.140625q-0.765625 -0.8125 -0.765625 -2.046875q0 -1.0625 0.546875 -1.859375q0.5625 -0.8125 1.609375 -1.28125q1.0625 -0.46875 2.484375 -0.46875q1.3125 0 2.421875 0.40625q1.1249847 0.390625 1.8749847 1.125l-0.703125 1.34375q-0.71873474 -0.6875 -1.6406097 -1.03125q-0.921875 -0.359375 -1.90625 -0.359375q-1.421875 0 -2.125 0.578125q-0.703125 0.5625 -0.703125 1.46875q0 0.6875 0.4375 1.140625q0.4375 0.4375 1.375 0.65625l2.234375 0.453125q1.640625 0.359375 2.4374847 1.125q0.8125 0.75 0.8125 2.015625q0 1.09375 -0.609375 1.90625q-0.59375 0.796875 -1.6718597 1.234375q-1.0625 0.421875 -2.5 0.421875zm20.199173 0q-1.625 0 -2.8125 -0.828125q-1.171875 -0.828125 -1.578125 -2.265625l0.265625 0l0 2.875l-1.921875 0l0 -17.65625l1.953125 0l0 8.421875l-0.296875 0q0.40625 -1.390625 1.578125 -2.203125q1.1875 -0.828125 2.8125 -0.828125q1.640625 0 2.828125 0.765625q1.1875 0.75 1.84375 2.140625q0.65625 1.390625 0.65625 3.328125q0 1.953125 -0.671875 3.34375q-0.671875 1.390625 -1.859375 2.15625q-1.1875 0.75 -2.796875 0.75zm-0.40625 -1.59375q1.703125 0 2.734375 -1.171875q1.03125 -1.171875 1.03125 -3.484375q0 -2.296875 -1.03125 -3.484375q-1.03125 -1.1875 -2.734375 -1.1875q-1.703125 0 -2.71875 1.1875q-1.015625 1.1875 -1.015625 3.484375q0 2.28125 1.015625 3.46875q1.015625 1.1875 2.71875 1.1875zm8.122589 6.828125l-0.46875 -1.609375q1.140625 -0.265625 1.890625 -0.625q0.75 -0.34375 1.25 -0.921875q0.515625 -0.5625 0.875 -1.4375l0.625 -1.40625l-0.046875 0.8125l-5.265625 -12.3125l2.125 0l4.34375 10.578125l-0.625 0l4.296875 -10.578125l2.03125 0l-5.5625 13.0625q-0.484375 1.140625 -1.0625 1.921875q-0.578125 0.78125 -1.234375 1.265625q-0.65625 0.5 -1.453125 0.78125q-0.78125 0.296875 -1.71875 0.46875z" fill-rule="nonzero"/><path fill="#000000" fill-opacity="0.0" d="m298.18738 632.37134l90.76773 0l0 30.119934l-90.76773 0l0 -30.119934z" fill-rule="nonzero"/><path fill="#173505" d="m300.06238 656.4913l0 -16.921875l11.15625 0l0 2.421875l-8.0625 0l0 4.796875l7.515625 0l0 2.4375l-7.515625 0l0 7.265625l-3.09375 0zm13.477966 0l0 -17.65625l3.0 0l0 17.65625l-3.0 0zm10.951477 0.234375q-1.578125 0 -2.78125 -0.75q-1.203125 -0.75 -1.875 -2.171875q-0.671875 -1.421875 -0.671875 -3.390625q0 -1.96875 0.671875 -3.359375q0.671875 -1.40625 1.875 -2.15625q1.203125 -0.765625 2.78125 -0.765625q1.53125 0 2.6875 0.765625q1.171875 0.75 1.5625 2.015625l-0.265625 0l0.265625 -2.546875l2.875 0q-0.0625 0.75 -0.125 1.515625q-0.0625 0.765625 -0.0625 1.515625l0 9.09375l-2.984375 0l-0.015625 -2.5l0.28125 0q-0.375 1.25 -1.5625 2.0q-1.171875 0.734375 -2.65625 0.734375zm0.84375 -2.296875q1.40625 0 2.265625 -1.0q0.875 -1.0 0.875 -3.015625q0 -2.015625 -0.875 -3.0q-0.859375 -0.984375 -2.265625 -0.984375q-1.421875 0 -2.28125 0.984375q-0.859375 0.984375 -0.859375 3.0q0 2.015625 0.84375 3.015625q0.859375 1.0 2.296875 1.0zm14.536224 2.296875q-2.15625 0 -3.265625 -1.125q-1.09375 -1.125 -1.09375 -3.375l0 -5.59375l-2.328125 0l0 -2.265625l2.328125 0l0 -3.09375l3.0 -0.765625l0 3.859375l3.234375 0l0 2.265625l-3.234375 0l0 5.390625q0 1.25 0.46875 1.765625q0.484375 0.5 1.328125 0.5q0.453125 0 0.78125 -0.078125q0.328125 -0.078125 0.625 -0.1875l0 2.375q-0.40625 0.171875 -0.90625 0.25q-0.484375 0.078125 -0.9375 0.078125zm3.9084778 -0.234375l0 -12.125l3.0 0l0 12.125l-3.0 0zm-0.15625 -14.40625l0 -2.921875l3.328125 0l0 2.921875l-3.328125 0zm11.998352 14.640625q-1.875 0 -3.28125 -0.765625q-1.40625 -0.765625 -2.171875 -2.1875q-0.765625 -1.4375 -0.765625 -3.40625q0 -1.96875 0.78125 -3.359375q0.78125 -1.390625 2.171875 -2.125q1.390625 -0.75 3.265625 -0.75q1.203125 0 2.34375 0.375q1.140625 0.375 1.859375 1.0625l-0.921875 2.09375q-0.640625 -0.609375 -1.453125 -0.90625q-0.796875 -0.296875 -1.5625 -0.296875q-1.609375 0 -2.515625 1.015625q-0.890625 1.0 -0.890625 2.921875q0 1.921875 0.890625 2.953125q0.90625 1.03125 2.515625 1.03125q0.734375 0 1.53125 -0.28125q0.8125 -0.296875 1.484375 -0.890625l0.921875 2.0625q-0.75 0.6875 -1.890625 1.078125q-1.140625 0.375 -2.3125 0.375zm11.762207 0q-1.875 0 -3.25 -0.765625q-1.359375 -0.765625 -2.125 -2.171875q-0.75 -1.421875 -0.75 -3.375q0 -1.9375 0.75 -3.34375q0.765625 -1.40625 2.125 -2.171875q1.375 -0.765625 3.25 -0.765625q1.859375 0 3.234375 0.765625q1.390625 0.765625 2.140625 2.171875q0.765625 1.40625 0.765625 3.34375q0 1.953125 -0.765625 3.375q-0.75 1.40625 -2.140625 2.171875q-1.375 0.765625 -3.234375 0.765625zm0 -2.296875q1.40625 0 2.25 -1.0q0.84375 -1.0 0.84375 -3.015625q0 -2.015625 -0.84375 -3.0q-0.84375 -0.984375 -2.25 -0.984375q-1.421875 0 -2.265625 0.984375q-0.828125 0.984375 -0.828125 3.0q0 2.015625 0.828125 3.015625q0.84375 1.0 2.265625 1.0zm8.723572 2.0625l0 -9.09375q0 -0.75 -0.046875 -1.515625q-0.046875 -0.765625 -0.140625 -1.515625l2.90625 0l0.234375 2.40625l-0.28125 0q0.578125 -1.265625 1.703125 -1.953125q1.125 -0.6875 2.609375 -0.6875q2.140625 0 3.21875 1.203125q1.078125 1.203125 1.078125 3.734375l0 7.421875l-3.0 0l0 -7.265625q0 -1.46875 -0.5625 -2.109375q-0.5625 -0.640625 -1.6875 -0.640625q-1.390625 0 -2.21875 0.875q-0.8125 0.859375 -0.8125 2.296875l0 6.84375l-3.0 0z" fill-rule="nonzero"/><path fill="#173505" d="m391.47073 659.22565l-0.90625 -0.6875q0.640625 -0.671875 0.84375 -1.265625q0.203125 -0.59375 0.203125 -1.1875l0.4375 0.40625l-1.578125 0l0 -2.453125l2.4375 0l0 1.734375q0 0.953125 -0.3125 1.796875q-0.296875 0.859375 -1.125 1.65625zm15.704712 -2.515625q-1.609375 0 -2.8125 -0.75q-1.203125 -0.765625 -1.859375 -2.15625q-0.65625 -1.390625 -0.65625 -3.34375q0 -1.953125 0.65625 -3.34375q0.65625 -1.40625 1.859375 -2.140625q1.203125 -0.75 2.8125 -0.75q1.625 0 2.8125 0.828125q1.1875 0.828125 1.578125 2.25l-0.296875 0l0.265625 -2.859375l1.875 0q-0.078125 0.6875 -0.140625 1.40625q-0.046875 0.703125 -0.046875 1.375l0 9.265625l-1.953125 0l0 -2.828125l0.265625 0q-0.375 1.40625 -1.578125 2.234375q-1.203125 0.8125 -2.78125 0.8125zm0.375 -1.59375q1.734375 0 2.734375 -1.1875q1.015625 -1.1875 1.015625 -3.46875q0 -2.296875 -1.015625 -3.484375q-1.0 -1.1875 -2.734375 -1.1875q-1.703125 0 -2.71875 1.1875q-1.015625 1.1875 -1.015625 3.484375q0 2.28125 1.015625 3.46875q1.015625 1.1875 2.71875 1.1875zm9.431213 1.375l0 -9.265625q0 -0.671875 -0.0625 -1.375q-0.046875 -0.71875 -0.125 -1.40625l1.875 0l0.234375 2.640625l-0.28125 0q0.53125 -1.390625 1.6875 -2.125q1.171875 -0.734375 2.703125 -0.734375q2.140625 0 3.21875 1.140625q1.09375 1.140625 1.09375 3.59375l0 7.53125l-1.9375 0l0 -7.421875q0 -1.703125 -0.6875 -2.484375q-0.6875 -0.78125 -2.125 -0.78125q-1.671875 0 -2.65625 1.046875q-0.984375 1.03125 -0.984375 2.75l0 6.890625l-1.953125 0zm18.626465 0.21875q-1.578125 0 -2.78125 -0.75q-1.203125 -0.765625 -1.859375 -2.15625q-0.65625 -1.390625 -0.65625 -3.34375q0 -1.953125 0.65625 -3.34375q0.65625 -1.40625 1.859375 -2.140625q1.203125 -0.75 2.78125 -0.75q1.640625 0 2.828125 0.828125q1.1875 0.8125 1.59375 2.203125l-0.296875 0l0 -8.421875l1.953125 0l0 17.65625l-1.921875 0l0 -2.875l0.265625 0q-0.390625 1.4375 -1.59375 2.265625q-1.1875 0.828125 -2.828125 0.828125zm0.40625 -1.59375q1.703125 0 2.734375 -1.1875q1.03125 -1.1875 1.03125 -3.46875q0 -2.296875 -1.03125 -3.484375q-1.03125 -1.1875 -2.734375 -1.1875q-1.703125 0 -2.71875 1.1875q-1.015625 1.1875 -1.015625 3.484375q0 2.28125 1.015625 3.46875q1.015625 1.1875 2.71875 1.1875zm15.69519 1.375l0 -12.046875l1.953125 0l0 12.046875l-1.953125 0zm-0.234375 -14.78125l0 -2.1875l2.40625 0l0 2.1875l-2.40625 0zm5.9463806 14.78125l0 -9.265625q0 -0.671875 -0.0625 -1.375q-0.046875 -0.71875 -0.125 -1.40625l1.875 0l0.234375 2.640625l-0.28125 0q0.53125 -1.390625 1.6875 -2.125q1.171875 -0.734375 2.703125 -0.734375q2.140625 0 3.21875 1.140625q1.09375 1.140625 1.09375 3.59375l0 7.53125l-1.9375 0l0 -7.421875q0 -1.703125 -0.6875 -2.484375q-0.6875 -0.78125 -2.125 -0.78125q-1.671875 0 -2.65625 1.046875q-0.984375 1.03125 -0.984375 2.75l0 6.890625l-1.953125 0zm14.688965 0l0 -10.53125l-2.34375 0l0 -1.515625l2.875 0l-0.53125 0.5l0 -2.015625q0 -2.03125 1.03125 -3.109375q1.03125 -1.09375 2.953125 -1.09375q0.484375 0 1.0 0.09375q0.515625 0.078125 0.859375 0.21875l0 1.609375q-0.296875 -0.109375 -0.71875 -0.1875q-0.421875 -0.09375 -0.84375 -0.09375q-0.75 0 -1.28125 0.296875q-0.53125 0.296875 -0.796875 0.90625q-0.25 0.59375 -0.25 1.53125l0 1.75l-0.3125 -0.40625l3.671875 0l0 1.515625l-3.359375 0l0 10.53125l-1.953125 0zm12.104065 0.21875q-1.734375 0 -3.015625 -0.75q-1.28125 -0.765625 -1.984375 -2.171875q-0.6875 -1.40625 -0.6875 -3.328125q0 -1.9375 0.6875 -3.328125q0.703125 -1.390625 1.984375 -2.140625q1.28125 -0.765625 3.015625 -0.765625q1.75 0 3.03125 0.765625q1.28125 0.75 1.984375 2.140625q0.71875 1.390625 0.71875 3.328125q0 1.921875 -0.71875 3.328125q-0.703125 1.40625 -1.984375 2.171875q-1.28125 0.75 -3.03125 0.75zm0 -1.59375q1.71875 0 2.71875 -1.1875q1.015625 -1.1875 1.015625 -3.46875q0 -2.296875 -1.015625 -3.484375q-1.015625 -1.1875 -2.71875 -1.1875q-1.703125 0 -2.71875 1.1875q-1.0 1.1875 -1.0 3.484375q0 2.28125 1.0 3.46875q1.015625 1.1875 2.71875 1.1875zm14.0633545 6.734375q-1.5625 0 -2.890625 -0.390625q-1.3125 -0.390625 -2.375 -1.171875l0.578125 -1.46875q0.75 0.53125 1.46875 0.84375q0.71875 0.3125 1.484375 0.46875q0.765625 0.15625 1.640625 0.15625q1.765625 0 2.671875 -0.9375q0.921875 -0.9375 0.921875 -2.671875l0 -3.53125l0.234375 0q-0.375 1.421875 -1.578125 2.25q-1.203125 0.828125 -2.8125 0.828125q-1.65625 0 -2.875 -0.734375q-1.203125 -0.734375 -1.859375 -2.078125q-0.65625 -1.359375 -0.65625 -3.203125q0 -1.828125 0.65625 -3.171875q0.65625 -1.34375 1.859375 -2.078125q1.21875 -0.734375 2.875 -0.734375q1.640625 0 2.828125 0.828125q1.1875 0.8125 1.5625 2.25l-0.234375 -0.25l0.21875 -2.609375l1.890625 0q-0.09375 0.6875 -0.140625 1.40625q-0.046875 0.703125 -0.046875 1.375l0 9.1875q0 2.6875 -1.390625 4.0625q-1.375 1.375 -4.03125 1.375zm-0.296875 -7.203125q1.75 0 2.765625 -1.15625q1.015625 -1.171875 1.015625 -3.28125q0 -2.125 -1.015625 -3.265625q-1.015625 -1.15625 -2.765625 -1.15625q-1.71875 0 -2.75 1.15625q-1.03125 1.140625 -1.03125 3.265625q0 2.109375 1.03125 3.28125q1.03125 1.15625 2.75 1.15625zm9.409454 1.84375l0 -9.140625q0 -0.71875 -0.03125 -1.46875q-0.03125 -0.75 -0.109375 -1.4375l1.875 0l0.234375 2.921875l-0.328125 0.03125q0.234375 -1.078125 0.828125 -1.765625q0.609375 -0.703125 1.421875 -1.046875q0.8125305 -0.359375 1.7031555 -0.359375q0.359375 0 0.640625 0.03125q0.28125 0.015625 0.515625 0.109375l-0.03125 1.734375q-0.359375 -0.125 -0.65625 -0.15625q-0.296875 -0.03125 -0.6875 -0.03125q-1.0469055 0 -1.8281555 0.5q-0.78125 0.5 -1.1875 1.296875q-0.390625 0.796875 -0.390625 1.671875l0 7.109375l-1.96875 0zm13.2326355 0.21875q-1.609375 0 -2.8125 -0.75q-1.203125 -0.765625 -1.859375 -2.15625q-0.65625 -1.390625 -0.65625 -3.34375q0 -1.953125 0.65625 -3.34375q0.65625 -1.40625 1.859375 -2.140625q1.203125 -0.75 2.8125 -0.75q1.625 0 2.8125 0.828125q1.1875 0.828125 1.578125 2.25l-0.296875 0l0.265625 -2.859375l1.875 0q-0.078125 0.6875 -0.140625 1.40625q-0.046875 0.703125 -0.046875 1.375l0 9.265625l-1.953125 0l0 -2.828125l0.265625 0q-0.375 1.40625 -1.578125 2.234375q-1.203125 0.8125 -2.78125 0.8125zm0.375 -1.59375q1.734375 0 2.734375 -1.1875q1.015625 -1.1875 1.015625 -3.46875q0 -2.296875 -1.015625 -3.484375q-1.0 -1.1875 -2.734375 -1.1875q-1.703125 0 -2.71875 1.1875q-1.015625 1.1875 -1.015625 3.484375q0 2.28125 1.015625 3.46875q1.015625 1.1875 2.71875 1.1875zm9.431213 6.5625l0 -14.453125q0 -0.671875 -0.0625 -1.375q-0.046875 -0.71875 -0.125 -1.40625l1.875 0l0.265625 2.859375l-0.296875 0q0.390625 -1.421875 1.5625 -2.25q1.171875 -0.828125 2.8125 -0.828125q1.625 0 2.8125 0.75q1.1875 0.734375 1.859375 2.140625q0.671875 1.390625 0.671875 3.34375q0 1.953125 -0.65625 3.34375q-0.65625 1.390625 -1.859375 2.15625q-1.203125 0.75 -2.828125 0.75q-1.609375 0 -2.796875 -0.8125q-1.171875 -0.828125 -1.546875 -2.234375l0.265625 0l0 8.015625l-1.953125 0zm5.640625 -6.5625q1.734375 0 2.75 -1.1875q1.015625 -1.1875 1.015625 -3.46875q0 -2.296875 -1.015625 -3.484375q-1.015625 -1.1875 -2.75 -1.1875q-1.703125 0 -2.71875 1.1875q-1.015625 1.1875 -1.015625 3.484375q0 2.28125 1.015625 3.46875q1.015625 1.1875 2.71875 1.1875zm8.759338 1.375l0 -17.65625l1.953125 0l0 8.265625l-0.3125 0q0.5 -1.40625 1.6875 -2.140625q1.1875 -0.734375 2.75 -0.734375q2.15625 0 3.203125 1.171875q1.0625 1.15625 1.0625 3.515625l0 7.578125l-1.9375 0l0 -7.46875q0 -1.671875 -0.671875 -2.4375q-0.65625 -0.78125 -2.109375 -0.78125q-1.6875 0 -2.6875 1.046875q-0.984375 1.03125 -0.984375 2.703125l0 6.9375l-1.953125 0zm14.063965 0l0 -12.046875l1.953125 0l0 12.046875l-1.953125 0zm-0.234375 -14.78125l0 -2.1875l2.40625 0l0 2.1875l-2.40625 0zm11.00885 15.0q-1.765625 0 -3.078125 -0.765625q-1.3125 -0.765625 -2.015625 -2.1875q-0.703125 -1.421875 -0.703125 -3.359375q0 -1.96875 0.71875 -3.34375q0.71875 -1.390625 2.015625 -2.109375q1.3125 -0.71875 3.0625 -0.71875q1.15625 0 2.25 0.40625q1.09375 0.40625 1.8125 1.15625l-0.703125 1.390625q-0.71875 -0.703125 -1.578125 -1.03125q-0.84375 -0.34375 -1.65625 -0.34375q-1.875 0 -2.90625 1.1875q-1.03125 1.171875 -1.03125 3.421875q0 2.234375 1.03125 3.46875q1.03125 1.21875 2.90625 1.21875q0.796875 0 1.640625 -0.3125q0.859375 -0.3125 1.59375 -1.03125l0.703125 1.359375q-0.75 0.78125 -1.859375 1.1875q-1.09375 0.40625 -2.203125 0.40625zm10.833069 0q-1.4375 0 -2.6875 -0.390625q-1.25 -0.40625 -2.0625 -1.125l0.671875 -1.359375q0.890625 0.6875 1.921875 1.03125q1.046875 0.328125 2.171875 0.328125q1.453125 0 2.171875 -0.515625q0.734375 -0.515625 0.734375 -1.421875q0 -0.703125 -0.46875 -1.125q-0.46875 -0.421875 -1.515625 -0.65625l-2.234375 -0.453125q-1.53125 -0.34375 -2.3125 -1.140625q-0.765625 -0.8125 -0.765625 -2.046875q0 -1.0625 0.546875 -1.859375q0.5625 -0.8125 1.609375 -1.28125q1.0625 -0.46875 2.484375 -0.46875q1.3125 0 2.421875 0.40625q1.125 0.390625 1.875 1.125l-0.703125 1.34375q-0.71875 -0.6875 -1.640625 -1.03125q-0.921875 -0.359375 -1.90625 -0.359375q-1.421875 0 -2.125 0.578125q-0.703125 0.5625 -0.703125 1.46875q0 0.6875 0.4375 1.140625q0.4375 0.4375 1.375 0.65625l2.234375 0.453125q1.640625 0.359375 2.4375 1.125q0.8125 0.75 0.8125 2.015625q0 1.09375 -0.609375 1.90625q-0.59375 0.796875 -1.671875 1.234375q-1.0625 0.421875 -2.5 0.421875zm27.902344 0q-1.09375 -0.5 -2.0625 -1.234375q-0.953125 -0.734375 -1.625 -1.4375l0.484375 0.03125q-1.03125 1.25 -2.5 1.953125q-1.46875 0.6875 -3.1875 0.6875q-1.734375 0 -2.96875 -0.53125q-1.234375 -0.546875 -1.90625 -1.5q-0.65625 -0.96875 -0.65625 -2.25q0 -1.65625 0.953125 -2.796875q0.96875 -1.15625 2.75 -2.3125l0.796875 -0.5l-0.296875 0.359375q-1.125 -1.203125 -1.640625 -2.140625q-0.515625 -0.953125 -0.515625 -1.96875q0 -1.09375 0.515625 -1.9375q0.53125 -0.84375 1.484375 -1.3125q0.953125 -0.46875 2.25 -0.46875q1.625 0 2.71875 0.9375q1.09375 0.921875 1.09375 2.5q0 0.859375 -0.359375 1.625q-0.34375 0.75 -1.15625 1.484375q-0.8125 0.734375 -2.203125 1.59375l0.046875 -0.453125l4.65625 5.03125l-0.4375 0q0.625 -0.984375 0.96875 -2.421875q0.359375 -1.453125 0.40625 -3.0625l1.703125 0q-0.046875 1.984375 -0.5625 3.703125q-0.5 1.71875 -1.328125 3.03125l-0.046875 -0.578125q0.609375 0.671875 1.5 1.359375q0.890625 0.6875 1.921875 1.171875l-0.796875 1.4375zm-8.828125 -1.59375q1.4375 0 2.546875 -0.5625q1.125 -0.578125 1.96875 -1.6875l-0.046875 0.546875l-5.203125 -5.5625l0.734375 0.03125l-0.734375 0.453125q-1.015625 0.671875 -1.671875 1.28125q-0.640625 0.59375 -0.953125 1.25q-0.3125 0.640625 -0.3125 1.453125q0 1.3125 0.953125 2.0625q0.953125 0.734375 2.71875 0.734375zm0.703125 -14.296875q-1.078125 0 -1.75 0.609375q-0.671875 0.609375 -0.671875 1.625q0 0.53125 0.171875 0.984375q0.1875 0.453125 0.609375 1.0q0.4375 0.53125 1.15625 1.34375l-0.53125 0.078125q1.65625 -1.015625 2.40625 -1.8125q0.765625 -0.796875 0.765625 -1.765625q0 -0.9375 -0.59375 -1.5q-0.578125 -0.5625 -1.5625 -0.5625zm16.74292 15.671875l0 -12.046875l1.953125 0l0 12.046875l-1.953125 0zm-0.234375 -14.78125l0 -2.1875l2.40625 0l0 2.1875l-2.40625 0zm5.94635 14.78125l0 -9.265625q0 -0.671875 -0.0625 -1.375q-0.046875 -0.71875 -0.125 -1.40625l1.875 0l0.234375 2.640625l-0.28125 0q0.484375 -1.375 1.515625 -2.109375q1.046875 -0.75 2.53125 -0.75q1.515625 0 2.453125 0.71875q0.953125 0.71875 1.296875 2.234375l-0.359375 0q0.453125 -1.375 1.609375 -2.15625q1.15625 -0.796875 2.6875 -0.796875q1.984375 0 2.984375 1.140625q1.015625 1.140625 1.015625 3.59375l0 7.53125l-1.9375 0l0 -7.421875q0 -1.703125 -0.609375 -2.484375q-0.59375 -0.78125 -1.90625 -0.78125q-1.515625 0 -2.390625 1.046875q-0.875 1.046875 -0.875 2.796875l0 6.84375l-1.953125 0l0 -7.421875q0 -1.703125 -0.59375 -2.484375q-0.59375 -0.78125 -1.921875 -0.78125q-1.515625 0 -2.375 1.046875q-0.859375 1.046875 -0.859375 2.796875l0 6.84375l-1.953125 0zm25.66571 0.21875q-1.609375 0 -2.8125 -0.75q-1.203125 -0.765625 -1.859375 -2.15625q-0.65625 -1.390625 -0.65625 -3.34375q0 -1.953125 0.65625 -3.34375q0.65625 -1.40625 1.859375 -2.140625q1.203125 -0.75 2.8125 -0.75q1.625 0 2.8125 0.828125q1.1875 0.828125 1.578125 2.25l-0.296875 0l0.265625 -2.859375l1.875 0q-0.078125 0.6875 -0.140625 1.40625q-0.046875 0.703125 -0.046875 1.375l0 9.265625l-1.953125 0l0 -2.828125l0.265625 0q-0.375 1.40625 -1.578125 2.234375q-1.203125 0.8125 -2.78125 0.8125zm0.375 -1.59375q1.734375 0 2.734375 -1.1875q1.015625 -1.1875 1.015625 -3.46875q0 -2.296875 -1.015625 -3.484375q-1.0 -1.1875 -2.734375 -1.1875q-1.703125 0 -2.71875 1.1875q-1.015625 1.1875 -1.015625 3.484375q0 2.28125 1.015625 3.46875q1.015625 1.1875 2.71875 1.1875zm14.743713 6.734375q-1.5625 0 -2.890625 -0.390625q-1.3125 -0.390625 -2.375 -1.171875l0.578125 -1.46875q0.75 0.53125 1.46875 0.84375q0.71875 0.3125 1.484375 0.46875q0.765625 0.15625 1.640625 0.15625q1.765625 0 2.671875 -0.9375q0.921875 -0.9375 0.921875 -2.671875l0 -3.53125l0.234375 0q-0.375 1.421875 -1.578125 2.25q-1.203125 0.828125 -2.8125 0.828125q-1.65625 0 -2.875 -0.734375q-1.203125 -0.734375 -1.859375 -2.078125q-0.65625 -1.359375 -0.65625 -3.203125q0 -1.828125 0.65625 -3.171875q0.65625 -1.34375 1.859375 -2.078125q1.21875 -0.734375 2.875 -0.734375q1.640625 0 2.828125 0.828125q1.1875 0.8125 1.5625 2.25l-0.234375 -0.25l0.21875 -2.609375l1.890625 0q-0.09375 0.6875 -0.140625 1.40625q-0.046875 0.703125 -0.046875 1.375l0 9.1875q0 2.6875 -1.390625 4.0625q-1.375 1.375 -4.03125 1.375zm-0.296875 -7.203125q1.75 0 2.765625 -1.15625q1.015625 -1.171875 1.015625 -3.28125q0 -2.125 -1.015625 -3.265625q-1.015625 -1.15625 -2.765625 -1.15625q-1.71875 0 -2.75 1.15625q-1.03125 1.140625 -1.03125 3.265625q0 2.109375 1.03125 3.28125q1.03125 1.15625 2.75 1.15625zm14.815674 2.0625q-2.828125 0 -4.46875 -1.640625q-1.625 -1.65625 -1.625 -4.578125q0 -1.890625 0.71875 -3.296875q0.71875 -1.40625 2.015625 -2.1875q1.296875 -0.78125 2.96875 -0.78125q1.65625 0 2.78125 0.703125q1.140625 0.6875 1.734375 1.984375q0.59375 1.28125 0.59375 3.03125l0 0.71875l-9.328125 0l0 -1.234375l8.0625 0l-0.40625 0.3125q0 -1.90625 -0.875 -2.984375q-0.859375 -1.09375 -2.5625 -1.09375q-1.796875 0 -2.8125 1.265625q-1.0 1.265625 -1.0 3.390625l0 0.21875q0 2.25 1.109375 3.421875q1.125 1.15625 3.140625 1.15625q1.078125 0 2.015625 -0.3125q0.953125 -0.328125 1.828125 -1.078125l0.671875 1.375q-0.796875 0.765625 -2.015625 1.1875q-1.203125 0.421875 -2.546875 0.421875zm11.712219 0q-1.4375 0 -2.6875 -0.390625q-1.25 -0.40625 -2.0625 -1.125l0.671875 -1.359375q0.890625 0.6875 1.921875 1.03125q1.046875 0.328125 2.171875 0.328125q1.453125 0 2.171875 -0.515625q0.734375 -0.515625 0.734375 -1.421875q0 -0.703125 -0.46875 -1.125q-0.46875 -0.421875 -1.515625 -0.65625l-2.234375 -0.453125q-1.53125 -0.34375 -2.3125 -1.140625q-0.765625 -0.8125 -0.765625 -2.046875q0 -1.0625 0.546875 -1.859375q0.5625 -0.8125 1.609375 -1.28125q1.0625 -0.46875 2.484375 -0.46875q1.3125 0 2.421875 0.40625q1.125 0.390625 1.875 1.125l-0.703125 1.34375q-0.71875 -0.6875 -1.640625 -1.03125q-0.921875 -0.359375 -1.90625 -0.359375q-1.421875 0 -2.125 0.578125q-0.703125 0.5625 -0.703125 1.46875q0 0.6875 0.4375 1.140625q0.4375 0.4375 1.375 0.65625l2.234375 0.453125q1.640625 0.359375 2.4375 1.125q0.8125 0.75 0.8125 2.015625q0 1.09375 -0.609375 1.90625q-0.59375 0.796875 -1.671875 1.234375q-1.0625 0.421875 -2.5 0.421875zm20.199219 0q-1.625 0 -2.8125 -0.828125q-1.171875 -0.828125 -1.578125 -2.265625l0.265625 0l0 2.875l-1.921875 0l0 -17.65625l1.953125 0l0 8.421875l-0.296875 0q0.40625 -1.390625 1.578125 -2.203125q1.1875 -0.828125 2.8125 -0.828125q1.640625 0 2.828125 0.765625q1.1875 0.75 1.84375 2.140625q0.65625 1.390625 0.65625 3.328125q0 1.953125 -0.671875 3.34375q-0.671875 1.390625 -1.859375 2.15625q-1.1875 0.75 -2.796875 0.75zm-0.40625 -1.59375q1.703125 0 2.734375 -1.171875q1.03125 -1.171875 1.03125 -3.484375q0 -2.296875 -1.03125 -3.484375q-1.03125 -1.1875 -2.734375 -1.1875q-1.703125 0 -2.71875 1.1875q-1.015625 1.1875 -1.015625 3.484375q0 2.28125 1.015625 3.46875q1.015625 1.1875 2.71875 1.1875zm8.122559 6.828125l-0.46875 -1.609375q1.140625 -0.265625 1.890625 -0.625q0.75 -0.34375 1.25 -0.921875q0.515625 -0.5625 0.875 -1.4375l0.625 -1.40625l-0.046875 0.8125l-5.265625 -12.3125l2.125 0l4.34375 10.578125l-0.625 0l4.296875 -10.578125l2.03125 0l-5.5625 13.0625q-0.484375 1.140625 -1.0625 1.921875q-0.578125 0.78125 -1.234375 1.265625q-0.65625 0.5 -1.453125 0.78125q-0.78125 0.296875 -1.71875 0.46875z" fill-rule="nonzero"/><path fill="#000000" fill-opacity="0.0" d="m735.2501 632.37134l83.42377 0l0 30.119934l-83.42377 0l0 -30.119934z" fill-rule="nonzero"/><path fill="#173505" d="m737.1251 656.4913l0 -16.921875l11.15625 0l0 2.421875l-8.0625 0l0 4.796875l7.515625 0l0 2.4375l-7.515625 0l0 7.265625l-3.09375 0zm13.222351 0l0 -9.03125q0 -0.765625 -0.046875 -1.546875q-0.03125 -0.796875 -0.125 -1.546875l2.90625 0l0.34375 3.3125l-0.484375 0q0.234375 -1.203125 0.796875 -1.984375q0.5625 -0.796875 1.375 -1.171875q0.828125 -0.390625 1.78125 -0.390625q0.4375 0 0.703125 0.046875q0.265625 0.03125 0.53125 0.125l-0.03125 2.640625q-0.453125 -0.203125 -0.78125 -0.25q-0.328125 -0.046875 -0.796875 -0.046875q-1.03125 0 -1.75 0.4375q-0.703125 0.4375 -1.0625 1.203125q-0.34375 0.765625 -0.34375 1.75l0 6.453125l-3.015625 0zm15.114929 0.234375q-3.046875 0 -4.78125 -1.671875q-1.71875 -1.6875 -1.71875 -4.609375q0 -1.890625 0.734375 -3.3125q0.75 -1.421875 2.078125 -2.203125q1.34375 -0.796875 3.109375 -0.796875q1.75 0 2.921875 0.75q1.1875 0.734375 1.796875 2.078125q0.609375 1.34375 0.609375 3.140625l0 0.796875l-8.828125 0l0 -1.578125l6.703125 0l-0.40625 0.328125q0 -1.671875 -0.71875 -2.5625q-0.703125 -0.890625 -2.046875 -0.890625q-1.484375 0 -2.296875 1.0625q-0.796875 1.046875 -0.796875 2.953125l0 0.3125q0 1.953125 0.96875 2.9375q0.96875 0.96875 2.75 0.96875q1.03125 0 1.921875 -0.265625q0.90625 -0.28125 1.71875 -0.90625l0.890625 2.015625q-0.859375 0.6875 -2.0625 1.078125q-1.203125 0.375 -2.546875 0.375zm13.151978 0q-3.046875 0 -4.78125 -1.671875q-1.71875 -1.6875 -1.71875 -4.609375q0 -1.890625 0.734375 -3.3125q0.75 -1.421875 2.078125 -2.203125q1.34375 -0.796875 3.109375 -0.796875q1.75 0 2.921875 0.75q1.1875 0.734375 1.796875 2.078125q0.609375 1.34375 0.609375 3.140625l0 0.796875l-8.828125 0l0 -1.578125l6.703125 0l-0.40625 0.328125q0 -1.671875 -0.71875 -2.5625q-0.703125 -0.890625 -2.046875 -0.890625q-1.484375 0 -2.296875 1.0625q-0.796875 1.046875 -0.796875 2.953125l0 0.3125q0 1.953125 0.96875 2.9375q0.96875 0.96875 2.75 0.96875q1.03125 0 1.921875 -0.265625q0.90625 -0.28125 1.71875 -0.90625l0.890625 2.015625q-0.859375 0.6875 -2.0625 1.078125q-1.203125 0.375 -2.546875 0.375zm7.2926025 4.953125l0 -14.28125q0 -0.75 -0.046875 -1.515625q-0.046875 -0.765625 -0.140625 -1.515625l2.90625 0l0.265625 2.546875l-0.265625 0q0.359375 -1.265625 1.515625 -2.015625q1.171875 -0.765625 2.703125 -0.765625q1.609375 0 2.8125 0.765625q1.203125 0.75 1.875 2.15625q0.671875 1.390625 0.671875 3.359375q0 1.96875 -0.671875 3.390625q-0.671875 1.421875 -1.875 2.171875q-1.203125 0.75 -2.8125 0.75q-1.5 0 -2.65625 -0.734375q-1.15625 -0.75 -1.53125 -2.0l0.25 0l0 7.6875l-3.0 0zm6.109375 -7.25q1.4375 0 2.296875 -1.0q0.859375 -1.0 0.859375 -3.015625q0 -2.015625 -0.859375 -3.0q-0.859375 -0.984375 -2.296875 -0.984375q-1.421875 0 -2.296875 0.984375q-0.859375 0.984375 -0.859375 3.0q0 2.015625 0.859375 3.015625q0.875 1.0 2.296875 1.0zm8.770569 2.0625l0 -12.125l3.0 0l0 12.125l-3.0 0zm-0.15625 -14.40625l0 -2.921875l3.328125 0l0 2.921875l-3.328125 0zm6.420227 14.40625l0 -17.65625l3.0 0l0 10.703125l0.0625 0l4.90625 -5.171875l3.625 0l-6.109375 6.40625l0.015625 -1.1875l6.53125 6.90625l-3.71875 0l-5.25 -5.421875l-0.0625 0l0 5.421875l-3.0 0z" fill-rule="nonzero"/><path fill="#010000" fill-opacity="0.0" d="m818.6739 632.37134l6.263977 0l0 30.119934l-6.263977 0l0 -30.119934z" fill-rule="nonzero"/><path fill="#000000" fill-opacity="0.0" d="m824.93787 632.37134l0 0l0 30.119934l0 0l0 -30.119934z" fill-rule="nonzero"/><path fill="#173505" d="m298.18738 658.0513l90.76773 0l0 2.1599731l-90.76773 0l0 -2.1599731z" fill-rule="nonzero"/><path fill="#173505" d="m735.2501 658.0513l83.42377 0l0 2.1599731l-83.42377 0l0 -2.1599731z" fill-rule="nonzero"/><a xlink:href="https://www.google.com/url?q=https://bit.ly/3A1uf1Q&amp;sa=D&amp;source=editors&amp;ust=1737518388649941&amp;usg=AOvVaw3bjKhYShIQwnKBZHNCDuAP" target="_blank" rel="noreferrer"><path fill="transparent" fill-opacity="0" d="m795.61 605.1179l97.19971 0l0 28.799988l-97.19971 0l0 -28.799988z" fill-rule="nonzero"/></a><a xlink:href="https://www.google.com/url?q=http://bit.ly/2TyoMsr&amp;sa=D&amp;source=editors&amp;ust=1737518388650052&amp;usg=AOvVaw3oBonLHELyDb3vwd4NdmIK" target="_blank" rel="noreferrer"><path fill="transparent" fill-opacity="0" d="m298.18738 633.4513l90.76773 0l0 28.799988l-90.76773 0l0 -28.799988z" fill-rule="nonzero"/></a><a xlink:href="https://www.google.com/url?q=http://bit.ly/2TtBDfr&amp;sa=D&amp;source=editors&amp;ust=1737518388650099&amp;usg=AOvVaw09ZxzytQ2uJuFmhe0-T9_Q" target="_blank" rel="noreferrer"><path fill="transparent" fill-opacity="0" d="m735.2501 633.4513l83.42377 0l0 28.799988l-83.42377 0l0 -28.799988z" fill-rule="nonzero"/></a><path fill="#173505" d="m97.03008 69.9424c-4.2550354 3.5821457 -7.317169 7.9871674 -8.977821 12.628792c-3.4237213 9.851532 -0.19561768 20.572449 3.9062576 30.391129c0.36774445 -0.5238495 0.8124008 -0.99935913 1.3227234 -1.4289856c1.8617935 -1.5673752 4.5561295 -2.5203476 7.276123 -2.9890442c3.3621597 -0.6760254 7.0548706 -0.9637604 10.303123 -1.8712311c1.8877869 -0.58940125 3.6676788 -1.4331512 4.966362 -2.5264664c1.0628738 -0.8947983 1.804718 -1.9597397 2.0082626 -3.178566c0.7868881 -3.9833984 -4.2035446 -8.0785675 -1.7377396 -11.642311c0.22507477 -0.31446075 0.4894638 -0.5906067 0.7850952 -0.8394928c2.8648453 -2.4118042 8.70945 -2.1662369 11.71859 -4.6995163c0.084472656 -0.07111359 0.1615448 -0.14196014 0.24215698 -0.2157669c1.6682281 -1.404419 2.0616608 -3.3961182 1.8519897 -5.2074127c-0.3216858 -1.8895874 -1.1514435 -3.678772 -2.1783142 -5.3020325c-1.6153412 -2.7883072 -3.138237 -5.8210983 -4.753586 -8.6094055c-1.1372452 -1.857666 -2.281868 -3.7150688 -5.276451 -3.687729c-5.9744034 0.054149628 -13.191048 3.4751968 -17.65216 6.4035797c-1.3538742 0.8541031 -2.625595 1.7818832 -3.8046112 2.7744598z" fill-rule="evenodd"/><path fill="#96ae6d" d="m96.73863 70.931694c-0.21820068 0.18370056 -0.4157257 0.4035492 -0.58800507 0.6735687l1.435936 -1.2088623c-0.29442596 0.14669037 -0.58748627 0.31604004 -0.8479309 0.5352936zm0.8479309 -0.5352936c0.42035675 -0.20510101 0.8547058 -0.36245728 1.2430496 -0.54654694c6.3752213 -2.0461197 12.940887 -2.5980377 18.17241 -1.3602142c-0.97895813 2.645317 -2.0394745 5.5318832 -3.6276398 8.196091c-8.184135 -0.5792389 -16.678535 0.43585968 -24.267357 2.8430405c-0.286026 0.40743256 -0.37143707 0.64598083 -0.55316925 1.1263046c7.4749146 -2.6386185 15.969315 -3.653717 24.451317 -3.1645508c-1.6770935 2.9057236 -3.5740204 5.6632233 -5.670265 8.427826c-7.0402603 -0.38168335 -14.279091 0.903595 -20.733635 3.3497696c0.032348633 0.4726944 -0.05658722 0.7142029 -0.03161621 1.1871643c6.139694 -2.5144043 13.071053 -3.8681564 20.202469 -3.569168c-1.3533707 1.4726334 -2.6971283 3.1038208 -4.1529007 4.6567154l-2.118988 2.45047c-4.7070007 0.6416931 -9.372032 1.9146347 -13.486679 3.724083c0.015357971 0.31439972 0.038101196 0.62854004 0.1558609 0.86268616c3.822876 -1.5578613 8.078033 -2.8190231 12.578331 -3.4533463c-1.5543213 1.6358566 -2.6913834 3.259674 -3.8322983 4.8807907c-2.747963 3.973877 -4.2727127 7.745247 -4.570389 11.316795c0.2412796 0.6241379 0.3875351 1.3282776 0.73122406 1.8721466c0.09854126 -0.082962036 0.19709015 -0.16592407 0.17434692 -0.4800644c0.08522797 -3.7200317 1.5811462 -7.9670486 4.7101593 -12.428368c0.94734955 -1.4581604 2.2021713 -2.8478317 3.4512482 -4.3933563l0 0c1.1895523 4.307312 1.4441528 8.56852 0.97787476 12.775986c0.30524445 -0.09033203 0.705513 -0.26065826 1.1285248 -0.11685181c0.5552139 -4.4489746 0.16585541 -9.102615 -1.2326279 -13.5613785c0.8702545 -0.89927673 1.7440262 -1.8015137 2.4014893 -2.8549347c0.8737793 -0.90224457 1.8464355 -1.8817825 2.5038986 -2.9352036l0 0c5.136688 4.799301 7.381935 11.205536 5.7939606 17.35122c0.4037857 -0.17329407 0.90260315 -0.42658234 1.4145508 -0.52428436c1.263504 -6.3724594 -1.0898972 -12.854286 -6.433281 -17.646217c0.479599 -0.5703964 0.8510361 -1.2163773 1.3437576 -1.6311874c2.1097183 -2.6033554 4.006645 -5.360855 5.588722 -8.186569l0 0c2.628334 2.5961227 4.774849 5.603836 6.4020386 8.709511l1.2174606 -0.35836792c-1.7449493 -3.3398132 -3.9996185 -6.4231186 -6.844269 -9.170425c1.2864304 -2.5768356 2.5728683 -5.1536713 3.449768 -7.713066l0 0c5.44471 3.0461578 9.926704 7.236061 12.476463 11.892105c0.17434692 -0.48005676 0.34646606 -1.1189346 0.32725525 -1.4360428c-2.7599792 -4.645714 -7.120697 -8.604439 -12.4515 -11.419151c0.8900299 -2.403801 1.6645203 -4.8829346 2.1372833 -7.2746964c-0.4191513 -0.14111328 -0.6354599 -0.29229355 -1.1570206 -0.35314178c-0.5774002 2.3132095 -1.1679306 4.470833 -1.8570099 6.7114105l-1.1477432 -0.20024872c-5.4247513 -1.0691986 -11.571274 -0.3761673 -17.739792 1.6625748c-0.19709015 0.16592407 -0.40026855 0.17033386 -0.49881744 0.2532959z" fill-rule="evenodd"/><path fill="#173505" d="m76.42241 705.6768c7.45475 -4.9648438 13.253471 -11.373779 16.933167 -18.345886c7.653305 -14.811951 5.18898 -31.903442 1.1542358 -47.716797c-0.6951599 0.7616577 -1.4982224 1.4375 -2.3922958 2.032959c-3.2618408 2.1724243 -7.669937 3.2747803 -12.002853 3.6218872c-5.3788376 0.57910156 -11.17852 0.50927734 -16.435528 1.463562c-3.0699348 0.6508179 -6.032814 1.7114868 -8.308086 3.2268677c-1.8621483 1.2401733 -3.2664337 2.7893677 -3.8717918 4.652649c-2.1672363 6.072632 4.6057625 13.126709 -0.067611694 18.313232c-0.42401123 0.456604 -0.8999405 0.84820557 -1.4178886 1.1931763c-5.019165 3.3427734 -14.032078 2.1443481 -19.304049 5.6554565c-0.14798546 0.09857178 -0.28445053 0.1977539 -0.42708206 0.3010254c-2.9227085 1.9465332 -4.0063267 4.982849 -4.111038 7.8235474c0.050556183 2.9778442 0.9135361 5.8709106 2.1218147 8.533997c1.8449879 4.55365 3.4884262 9.473877 5.333414 14.027527c1.3239365 3.0423584 2.6593971 6.085327 7.3136826 6.46167c9.285538 0.7514038 21.298668 -3.5492554 28.91803 -7.470642c2.304123 -1.1362915 4.498253 -2.3984985 6.563881 -3.774231z" fill-rule="evenodd"/><path fill="#96ae6d" d="m77.10967 704.18207c0.38230133 -0.25457764 0.7410736 -0.56817627 1.0725937 -0.9631958l-2.5157547 1.6754761c0.49181366 -0.18652344 0.98687744 -0.40838623 1.443161 -0.7122803zm-1.443161 0.7122803c-0.7011261 0.25958252 -1.4126358 0.4430542 -2.059082 0.6744995c-10.380672 2.2842407 -20.702106 2.2227783 -28.52784 -0.4300537c2.147602 -3.968933 4.4790726 -8.300964 7.576679 -12.213989c12.5648 2.043518 25.989742 1.6558228 38.33975 -1.019165c0.54067993 -0.5924072 0.7299042 -0.9506836 1.1260223 -1.6707764c-12.22818 3.0501099 -25.653122 3.4378052 -38.70161 1.4924316c3.2929916 -4.2755127 6.891979 -8.290161 10.802013 -12.288025c10.836319 1.5769043 22.376701 0.5942993 32.975494 -2.2998047c0.062042236 -0.7382202 0.2574234 -1.100647 0.33098602 -1.8381958c-10.12632 3.0440674 -21.205742 4.1759644 -32.203194 2.7145996c2.4502335 -2.0964355 4.923195 -4.4403076 7.5514297 -6.6470337l3.8707275 -3.50708c7.4579697 -0.33776855 15.00071 -1.6611328 21.816612 -3.894226c0.050827026 -0.4901123 0.09012604 -0.980896 -0.03704834 -1.3607788c-6.303314 1.8834229 -13.207092 3.2458496 -20.342499 3.6010742c2.800888 -2.3217163 4.9512863 -4.6830444 7.1070404 -7.039673c5.2087097 -5.7836304 8.470818 -11.424011 9.780968 -16.925842c-0.22626495 -1.0025024 -0.28605652 -2.1158447 -0.6903305 -3.0080566c-0.17264557 0.114990234 -0.34529877 0.22998047 -0.38459778 0.7207031c-1.0156784 5.762024 -4.345993 12.144714 -10.261871 18.631653c-1.8166199 2.1307373 -4.0942 4.1121826 -6.399864 6.3363647l0 0c-0.82341003 -6.8518066 -0.20664978 -13.501282 1.5161972 -19.966553c-0.49521637 0.097473145 -1.1569061 0.3059082 -1.7793045 0.023498535c-1.9182281 6.8276978 -2.4190292 14.105164 -1.307312 21.221252c-1.5642471 1.2740479 -3.1346588 2.552246 -4.405243 4.095337c-1.5704117 1.2781982 -3.3126678 2.6625366 -4.583252 4.2056274l0 0c-6.8327866 -8.167358 -8.796268 -18.42456 -4.872196 -27.741333c-0.66786194 0.21252441 -1.5022087 0.5358887 -2.3199844 0.6159668c-3.474331 9.714111 -1.3609352 20.103699 5.794422 28.288574c-0.8798218 0.8182373 -1.6097221 1.7689819 -2.472969 2.343872c-3.8926506 3.7457275 -7.491638 7.760376 -10.618149 11.924988l0 0c-3.4628563 -4.3970337 -6.0801544 -9.36554 -7.868149 -14.413452l-1.9746895 0.38598633c1.9151764 5.4277954 4.6823883 10.528748 8.445072 15.190674c-2.6085625 3.819641 -5.217125 7.6393433 -7.185913 11.489136l0 0c-7.727188 -5.48938 -13.688578 -12.619324 -16.540293 -20.202637c-0.3846035 0.72076416 -0.8034611 1.6882935 -0.84893036 2.1831665c3.1804447 7.5966187 9.00849 14.35083 16.613852 19.465088c-1.9522171 3.6065063 -3.7430038 7.3460693 -5.0447426 10.99231c0.6170387 0.2775879 0.9168701 0.54248047 1.7119102 0.7098999c1.445488 -3.5096436 2.874405 -6.77594 4.475971 -10.157227l1.7338333 0.47131348c8.16568 2.4181519 17.870071 2.2020264 27.928185 -0.099731445c0.34529877 -0.22998047 0.6616974 -0.20843506 0.83434296 -0.3234253z" fill-rule="evenodd"/><path fill="#000000" fill-opacity="0.0" d="m38.24173 555.3389c2.6330643 -3.7001343 5.590355 -7.4161377 9.585396 -10.168091c3.9277878 -2.8516846 9.403297 -4.959717 14.752235 -4.9611206c5.471878 -0.05456543 11.289581 2.175232 13.555725 5.939453c2.4634628 3.812378 0.6473999 9.082581 -4.18808 10.918701c-2.1582565 0.9324341 -4.6916733 1.1252441 -6.8904114 0.409729c-2.1269302 -0.6176758 -3.9915657 -2.2504272 -3.9763641 -4.0512695c-0.3115921 -1.7884521 1.0036545 -3.6402588 3.14579 -4.8233643c1.8153381 -1.1707764 4.332634 -1.6142578 6.8078003 -1.6576538c6.178581 -0.23565674 12.18203 1.7896729 16.184395 5.1902466c4.002365 3.4005127 5.8204727 8.384216 4.6794434 12.980957" fill-rule="evenodd"/><path stroke="#173505" stroke-width="1.0" stroke-linejoin="round" stroke-linecap="round" d="m38.24173 555.3389c2.6330643 -3.7001343 5.590355 -7.4161377 9.585396 -10.168091c3.9277878 -2.8516846 9.403297 -4.959717 14.752235 -4.9611206c5.471878 -0.05456543 11.289581 2.175232 13.555725 5.939453c2.4634628 3.812378 0.6473999 9.082581 -4.18808 10.918701c-2.1582565 0.9324341 -4.6916733 1.1252441 -6.8904114 0.409729c-2.1269302 -0.6176758 -3.9915657 -2.2504272 -3.9763641 -4.0512695c-0.3115921 -1.7884521 1.0036545 -3.6402588 3.14579 -4.8233643c1.8153381 -1.1707764 4.332634 -1.6142578 6.8078003 -1.6576538c6.178581 -0.23565674 12.18203 1.7896729 16.184395 5.1902466c4.002365 3.4005127 5.8204727 8.384216 4.6794434 12.980957" fill-rule="evenodd"/><path fill="#173505" d="m1768.1228 162.43947c-0.6566162 2.0142822 -0.48693848 4.187088 1.0908203 5.857361c2.8970947 3.092636 10.104492 3.5538788 11.584595 7.291931c0.35864258 0.89927673 0.30529785 1.7732544 0.023925781 2.6365204c-0.7149658 2.193161 -2.906372 4.3220673 -3.658081 6.6279907c-0.1850586 0.56773376 -0.28137207 1.1442261 -0.24853516 1.7372437c0.13928223 1.8694916 1.6917725 3.551422 3.5635986 4.716202c1.8414307 1.2746124 4.031372 1.9261017 6.187134 2.6825714c3.918579 1.3301544 7.630615 2.3851776 11.691162 3.742569c2.576538 0.8371887 4.802002 1.3797913 6.9591064 -0.1648407c2.8948975 -2.2377472 4.70105 -5.680084 5.7976074 -9.043701c0.57543945 -1.7654114 0.95581055 -3.5104218 1.197876 -5.0464325c0.8128662 -6.178055 -0.8470459 -12.603195 -4.6601562 -17.94159c-6.677246 -8.994873 -18.76123 -14.77124 -30.66272 -19.702774l0 0c0.5284424 1.369812 0.45983887 2.7366638 0.026367188 4.066559c-0.43225098 1.326004 -1.2294922 2.6150513 -2.1496582 3.8185272c-1.9088135 2.1707306 -4.272583 4.365738 -5.794922 6.722183c-0.39416504 0.63090515 -0.7224121 1.3075104 -0.9481201 1.9996796z" fill-rule="evenodd"/><path fill="#96ae6d" d="m1768.0139 162.31114c4.8016357 5.065262 12.504517 8.61705 20.594116 9.131821c0.107666016 0.5949707 0.3154297 1.3289642 0.4230957 1.9239349c0.95666504 3.0633545 1.9438477 6.0168457 3.5697021 8.861496c-4.3446045 -0.48634338 -8.552124 -1.4091797 -12.472046 -2.7354584c-0.06970215 0.21388245 -0.31811523 0.5132904 -0.38916016 0.7310486c4.1328125 1.5984955 8.76123 2.6020508 13.283081 3.0067444c1.1329346 2.5228271 2.8602295 5.039871 4.484741 7.425659c-6.567505 0.8142853 -13.562012 0.1625061 -19.81897 -1.8434448l0 0c0.319458 0.4083252 0.64001465 0.8127594 1.2736816 1.1656952c6.0439453 1.7337341 12.754639 2.3310547 19.14978 1.5993958c1.5537109 2.140808 3.5332031 4.3632965 5.264282 6.422455c0.45617676 -0.028167725 0.6324463 -0.10594177 1.0228271 -0.3781128c-1.6247559 -1.9230499 -3.2835693 -3.7410889 -4.8778076 -5.773987l1.2408447 -0.5676727c4.624756 -2.2240295 8.689453 -5.935501 11.161133 -10.75827l0.17614746 -0.5405121c0.07104492 -0.6805115 -0.0670166 -1.6283722 -0.13928223 -2.3322296l0 0c-0.122924805 0.6085663 -0.25610352 1.1325531 -0.40563965 1.5914154c-0.1508789 0.46273804 -0.31811523 0.8603363 -0.51330566 1.2277985c-2.6846924 5.0133057 -6.926758 8.806427 -11.799927 10.867126c-1.8730469 -2.5491333 -3.4278564 -5.1488037 -4.804077 -7.8339996c6.5373535 -3.9271545 11.553833 -9.187225 14.805054 -15.013214c-0.3206787 -0.40444946 -0.3560791 -0.75831604 -0.53479004 -1.1355286c-3.109253 5.8532257 -8.160034 11.218292 -14.55542 15.172668c-1.4483643 -2.9263 -2.7193604 -5.93425 -3.6708984 -8.996628c5.5093994 -3.5500183 9.785767 -8.373642 11.943237 -13.60376c-0.24841309 -0.16333008 -0.6044922 -0.45889282 -0.8479004 -0.6212616c-2.0863037 5.0123596 -6.043335 9.781555 -11.238525 13.276169c-0.60058594 -1.8422852 -0.9173584 -3.6301117 -1.5179443 -5.472397c-0.17871094 -0.8399658 -0.42321777 -1.9239502 -0.7437744 -2.7911377c2.8289795 -3.1428375 4.948242 -6.421814 6.3983154 -9.944855l-0.8820801 -0.5162811c-1.2016602 3.2236328 -3.2854004 6.393738 -5.8671875 9.241043c-0.45874023 -1.8150482 -1.0238037 -3.76622 -1.730957 -5.744629c-1.6219482 -4.2280426 -3.8864746 -7.8893433 -7.028076 -10.677704c-0.67419434 -0.24502563 -1.4853516 -0.51631165 -2.154541 -0.7603607l0 0c0.10644531 0.1361084 0.07104492 0.24497986 0.03552246 0.35386658c3.425537 2.8428192 6.11084 6.584839 8.017944 11.326202c0.49414062 1.7061768 1.1289062 3.4434814 1.5167236 5.01355c-4.661255 -2.27417 -8.795288 -5.2570343 -12.185181 -8.671478c-0.24841309 0.29940796 -0.3182373 0.5132904 -0.5666504 0.81269836c3.49646 3.5505524 7.9156494 6.5839844 13.001343 8.943726c0.2446289 1.0839844 0.60058594 2.3050385 0.7044678 3.3579102c0.21411133 1.1938324 0.5650635 2.41391 0.9921875 3.417221c-8.094727 -0.5157471 -15.336182 -4.0947266 -19.96045 -9.241638z" fill-rule="evenodd"/><path fill="#173505" d="m1735.3329 125.55145c9.428833 -2.246193 18.098267 -6.3253098 25.122559 -11.57373c14.772705 -11.200676 21.476074 -27.609413 26.07129 -43.332283c-1.0357666 0.48291016 -2.1254883 0.8540039 -3.2563477 1.1233978c-4.1254883 0.98282623 -8.739746 0.63236237 -12.889282 -0.3863907c-5.22876 -1.1289749 -10.502808 -2.9818726 -15.816772 -3.729782c-3.1522217 -0.35108948 -6.4212646 -0.29387665 -9.299072 0.3916855c-2.3552246 0.56108093 -4.453247 1.5462952 -5.984375 3.0655518c-5.1678467 4.891449 -2.6639404 13.439194 -9.662109 16.74627c-0.62768555 0.2872696 -1.2687988 0.4990387 -1.9238281 0.65509796c-6.3482666 1.5123215 -13.9729 -2.3651276 -20.640991 -0.7766266c-0.18713379 0.04458618 -0.36401367 0.093299866 -0.5488281 0.14387512c-3.6966553 0.8806381 -6.2806396 3.3263626 -7.8656006 5.894905c-1.5147705 2.742035 -2.241211 5.6570435 -2.5308838 8.46801c-0.6977539 4.7383423 -1.7722168 9.750099 -2.4699707 14.488441c-0.38256836 3.1938858 -0.7548828 6.391899 3.3095703 8.172142c8.108643 3.5522385 21.36316 3.3202896 30.395752 2.080307c2.7054443 -0.3296585 5.3762207 -0.8084717 7.9888916 -1.43087z" fill-rule="evenodd"/><path fill="#96ae6d" d="m1736.7457 124.3949c0.4835205 -0.1151886 0.9764404 -0.29164886 1.4870605 -0.5510483l-3.1818848 0.7580185c0.5480957 -0.019058228 1.1176758 -0.069480896 1.6948242 -0.20697021zm-1.6948242 0.20697021c-0.7780762 0.021362305 -1.5257568 -0.03010559 -2.2390137 -0.017623901c-10.702759 -1.1106415 -20.121582 -4.3507614 -25.896729 -9.193581c4.047119 -2.971405 8.453003 -6.218483 13.340698 -8.84568c10.43396 5.7467957 22.930054 9.532974 35.64087 10.893364c0.80566406 -0.3755951 1.166748 -0.64528656 1.9069824 -1.1824112c-12.7960205 -0.979332 -25.292114 -4.7655106 -36.220337 -10.571655c5.256592 -2.8987503 10.656616 -5.4643326 16.332764 -7.918556c9.095825 4.7864304 20.1781 7.446579 31.400269 8.066139c0.44384766 -0.6567383 0.81274414 -0.9282913 1.2667236 -1.5809021c-10.868164 -0.33655548 -21.606567 -2.7178345 -30.910645 -7.44812c3.3426514 -1.1636429 6.8358154 -2.546814 10.39917 -3.7565002l5.3828125 -2.0170135c7.0061035 1.9912796 14.606567 3.1062927 22.01831 3.1642227c0.3034668 -0.43308258 0.59680176 -0.87029266 0.67944336 -1.2573318c-6.759033 -0.2199707 -13.794922 -1.10215 -20.51477 -2.9779434c3.7817383 -1.2616959 6.9887695 -2.7603607 10.19812 -4.253044c7.8013916 -3.6886597 13.745239 -7.846596 17.829102 -12.479805c0.31835938 -0.98763275 0.84716797 -2.0254288 0.94470215 -2.9670258c-0.21826172 0.052017212 -0.4366455 0.10404205 -0.72998047 0.5412445c-3.9505615 4.962242 -10.346069 9.778786 -19.163574 13.893196c-2.7805176 1.3904953 -5.904663 2.502121 -9.181885 3.8272934l0 0c2.8378906 -6.527336 6.8884277 -12.425194 11.855347 -17.813194c-0.5046387 -0.06346893 -1.2197266 -0.0767746 -1.6416016 -0.52729034c-5.3358154 5.6595535 -9.609375 12.168114 -12.321777 19.026344c-2.1003418 0.68400574 -4.208374 1.3698654 -6.180664 2.3907547c-2.1080322 0.6858597 -4.429077 1.4159088 -6.4014893 2.4367905l0 0c-1.9749756 -9.585533 1.604126 -19.582428 10.081421 -26.902184c-0.7229004 -0.011444092 -1.6564941 0.027267456 -2.4472656 -0.15168762c-8.273682 7.822281 -11.785034 17.986687 -9.523804 27.687714c-1.2346191 0.4777832 -2.4013672 1.1230698 -3.493164 1.3831711c-5.527954 2.228714 -10.928101 4.7942963 -15.974121 7.642891l0 0c-0.8658447 -5.093994 -0.65771484 -10.450363 0.35131836 -15.623642l-2.010498 -0.2557373c-1.0917969 5.5603256 -1.2319336 11.084206 -0.23046875 16.513222c-4.390991 2.6925201 -8.78186 5.385048 -12.602905 8.302574l0 0c-4.197876 -7.4095078 -5.9188232 -15.776428 -4.5546875 -23.599152c-0.72998047 0.54125214 -1.6207275 1.297905 -1.9217529 1.736969c-1.0701904 7.9363556 0.725708 15.918091 5.008667 22.946533c-3.6782227 2.699852 -7.2783203 5.571335 -10.381714 8.508148c0.4194336 0.44452667 0.5550537 0.77954865 1.1953125 1.1780396c3.1634521 -2.7674408 6.184204 -5.3172073 9.423218 -7.9189987l1.3405762 0.96634674c6.2094727 4.7328033 15.20874 7.528389 25.625366 8.523537c0.4366455 -0.10404205 0.7150879 0.013313293 0.9334717 -0.038711548z" fill-rule="evenodd"/><path fill="#000000" fill-opacity="0.0" d="m1573.0659 90.70274c-2.9105225 -3.5754929 -5.6800537 -7.375458 -6.845337 -11.395882c-1.3115234 -4.0244293 -1.0189209 -8.718269 1.604248 -12.293755c2.623169 -3.6837196 8.01062 -6.477577 13.398071 -6.1448784c5.5389404 0.22447205 10.633789 4.024433 10.346436 8.157093c0 1.8999786 -1.0241699 3.687729 -2.9158936 4.8060684c-1.7452393 1.1183472 -4.5147705 1.5632782 -6.5526123 0.6694031c-2.1843262 -0.6694031 -3.642212 -2.4571457 -3.9348145 -4.469368c-0.43896484 -1.7877426 0.29260254 -3.6877213 1.4578857 -5.3632355c2.7642822 -4.244892 8.01062 -7.263218 13.837036 -8.269325c5.826416 -1.0061073 12.37915 0.22446823 17.040161 3.242794" fill-rule="evenodd"/><path stroke="#173505" stroke-width="1.0" stroke-linejoin="round" stroke-linecap="round" d="m1573.0659 90.70274c-2.9105225 -3.5754929 -5.6800537 -7.375458 -6.845337 -11.395882c-1.3115234 -4.0244293 -1.0189209 -8.718269 1.604248 -12.293755c2.623169 -3.6837196 8.01062 -6.477577 13.398071 -6.1448784c5.5389404 0.22447205 10.633789 4.024433 10.346436 8.157093c0 1.8999786 -1.0241699 3.687729 -2.9158936 4.8060684c-1.7452393 1.1183472 -4.5147705 1.5632782 -6.5526123 0.6694031c-2.1843262 -0.6694031 -3.642212 -2.4571457 -3.9348145 -4.469368c-0.43896484 -1.7877426 0.29260254 -3.6877213 1.4578857 -5.3632355c2.7642822 -4.244892 8.01062 -7.263218 13.837036 -8.269325c5.826416 -1.0061073 12.37915 0.22446823 17.040161 3.242794" fill-rule="evenodd"/><path fill="#000000" fill-opacity="0.0" d="m1837.008 695.72144c2.9106445 -3.5754395 5.680176 -7.3754272 6.845459 -11.395874c1.3115234 -4.024414 1.0189209 -8.718262 -1.604248 -12.293762c-2.623169 -3.6837158 -8.01062 -6.477539 -13.398071 -6.1448364c-5.5390625 0.2244873 -10.633789 4.024414 -10.346436 8.1571045c0 1.8999634 1.0241699 3.687683 2.9157715 4.8060303c1.7453613 1.1183472 4.5147705 1.5632935 6.5527344 0.6694336c2.184204 -0.6694336 3.642212 -2.4571533 3.9348145 -4.4693604c0.43896484 -1.7877808 -0.29260254 -3.6877441 -1.4578857 -5.3632812c-2.7642822 -4.244873 -8.01062 -7.2631836 -13.837036 -8.269287c-5.826416 -1.0061035 -12.37915 0.22442627 -17.040283 3.2427979" fill-rule="evenodd"/><path stroke="#173505" stroke-width="1.0" stroke-linejoin="round" stroke-linecap="round" d="m1837.008 695.72144c2.9106445 -3.5754395 5.680176 -7.3754272 6.845459 -11.395874c1.3115234 -4.024414 1.0189209 -8.718262 -1.604248 -12.293762c-2.623169 -3.6837158 -8.01062 -6.477539 -13.398071 -6.1448364c-5.5390625 0.2244873 -10.633789 4.024414 -10.346436 8.1571045c0 1.8999634 1.0241699 3.687683 2.9157715 4.8060303c1.7453613 1.1183472 4.5147705 1.5632935 6.5527344 0.6694336c2.184204 -0.6694336 3.642212 -2.4571533 3.9348145 -4.4693604c0.43896484 -1.7877808 -0.29260254 -3.6877441 -1.4578857 -5.3632812c-2.7642822 -4.244873 -8.01062 -7.2631836 -13.837036 -8.269287c-5.826416 -1.0061035 -12.37915 0.22442627 -17.040283 3.2427979" fill-rule="evenodd"/><path fill="#afbea4" d="m187.83464 602.5213l867.1811 0l0 101.13391l-867.1811 0z" fill-rule="evenodd"/></g></svg>